<svg width="755" height="440" viewBox="0 0 755 440" fill="none" xmlns="http://www.w3.org/2000/svg">
<rect x="2.99976" width="750" height="440" rx="15" fill="#7CCDE8"/>
<path fill-rule="evenodd" clip-rule="evenodd" d="M348.76 138.367C348.585 138.501 347.504 138.695 346.359 138.799C345.215 138.902 344.228 139.086 344.165 139.209C344.103 139.33 343.35 139.513 342.492 139.616C341.634 139.718 340.882 139.899 340.82 140.02C340.759 140.14 340.235 140.32 339.654 140.422C339.075 140.522 338.501 140.699 338.378 140.81C338.255 140.923 337.704 141.138 337.152 141.29C336.601 141.44 335.798 141.713 335.369 141.897C334.033 142.468 332.834 143.02 332.103 143.401C331.716 143.603 331.336 143.77 331.257 143.77C330.984 143.77 325.358 146.975 325.114 147.269C324.959 147.458 324.198 148.027 323.666 148.352C323.421 148.502 322.919 148.864 322.552 149.156C322.184 149.449 321.732 149.772 321.548 149.874C321.243 150.045 318.689 152.267 318.047 152.919C317.898 153.071 317.695 153.194 317.595 153.194C317.494 153.194 317.255 153.406 317.065 153.666C316.874 153.924 316.348 154.499 315.896 154.944C315.444 155.388 314.783 156.086 314.428 156.493C314.072 156.9 313.728 157.233 313.665 157.233C313.526 157.233 309.956 161.524 309.956 161.692C309.956 161.757 309.781 162.027 309.566 162.292C309.352 162.555 308.775 163.366 308.284 164.091C307.794 164.818 307.217 165.631 307.003 165.901C306.788 166.169 306.613 166.494 306.613 166.625C306.613 166.754 306.468 167.006 306.29 167.184C304.99 168.488 300.32 178.264 298.242 184.025C297.373 186.441 297.25 186.835 297.25 187.214C297.25 187.442 297.162 187.696 297.052 187.777C296.944 187.857 296.785 188.379 296.698 188.937C296.612 189.494 296.472 190.071 296.385 190.22C296.299 190.367 296.046 191.215 295.824 192.103C295.602 192.992 295.288 194.204 295.126 194.797C294.964 195.39 294.762 196.419 294.678 197.086C294.594 197.752 294.447 198.419 294.352 198.566C294.257 198.715 294.112 199.501 294.029 200.317C293.946 201.132 293.786 202.101 293.671 202.471C292.973 204.721 292.275 214.737 292.283 222.397C292.292 232.183 292.749 237.109 294.571 247.035C294.707 247.777 294.865 248.654 294.924 248.988C294.99 249.366 295.193 249.594 295.466 249.594C295.707 249.594 296.282 249.761 296.744 249.963C297.55 250.316 298.478 250.56 302.155 251.38C310.669 253.278 330.948 253.473 328.483 251.632C328.374 251.551 328.22 251.15 328.141 250.741C328.062 250.333 327.857 249.635 327.688 249.19C326.905 247.155 326.675 246.366 326.675 245.731C326.675 245.355 326.584 244.98 326.472 244.896C326.359 244.812 326.196 244.234 326.109 243.612C326.022 242.988 325.869 242.292 325.766 242.064C325.466 241.392 324.554 235.079 324.227 231.418C323.956 228.368 323.959 214.068 324.231 211.491C324.77 206.4 325.483 201.476 325.775 200.828C325.882 200.59 326.04 199.831 326.125 199.141C326.211 198.451 326.369 197.821 326.478 197.739C326.587 197.658 326.675 197.327 326.676 197.002C326.678 196.677 326.827 196.065 327.011 195.642C327.194 195.217 327.344 194.664 327.344 194.414C327.344 194.162 327.491 193.722 327.671 193.435C327.851 193.147 328.002 192.701 328.006 192.444C328.01 192.187 328.299 191.279 328.649 190.425C329 189.572 329.527 188.287 329.819 187.573C330.685 185.463 330.97 184.841 331.138 184.699C331.225 184.625 331.367 184.292 331.453 183.959C331.538 183.624 331.703 183.353 331.818 183.353C331.931 183.353 332.025 183.222 332.025 183.062C332.025 182.262 336.181 176.475 338.294 174.331C340.16 172.439 343.791 169.62 344.362 169.62C344.519 169.62 344.841 169.442 345.079 169.224C345.317 169.006 345.712 168.82 345.958 168.812C346.203 168.803 346.598 168.617 346.836 168.399C347.073 168.182 347.507 168.004 347.798 168.004C348.088 168.004 348.536 167.869 348.792 167.704C349.047 167.538 349.869 167.297 350.616 167.166C351.364 167.035 352.478 166.815 353.091 166.675C354.599 166.331 357.7 166.329 359.333 166.673C360.068 166.827 361.32 167.072 362.113 167.218C362.908 167.361 363.656 167.599 363.775 167.743C363.894 167.887 364.253 168.004 364.573 168.004C364.893 168.004 365.349 168.182 365.587 168.399C365.825 168.617 366.205 168.798 366.431 168.803C366.657 168.807 367.109 168.984 367.434 169.192C367.76 169.402 368.428 169.801 368.917 170.077C373.018 172.399 376.716 176.587 381.01 183.77C381.435 184.484 383.701 189.845 384.301 191.565C384.456 192.01 384.745 192.832 384.943 193.393C385.141 193.953 385.302 194.575 385.302 194.776C385.302 194.976 385.451 195.486 385.635 195.91C385.818 196.335 385.972 196.924 385.977 197.22C385.982 197.516 386.13 198.062 386.305 198.432C386.48 198.802 386.627 199.424 386.631 199.813C386.636 200.203 386.79 200.955 386.974 201.487C387.158 202.019 387.308 202.889 387.308 203.423C387.308 203.956 387.41 204.62 387.534 204.899C387.657 205.179 387.856 206.413 387.975 207.641C388.096 208.87 388.29 210.481 388.406 211.223C388.673 212.914 388.703 228.911 388.441 230.274C388.193 231.561 388.244 231.585 389.983 231.01C392.208 230.273 393.566 229.882 394.664 229.657C396.947 229.194 398.635 228.843 399.792 228.594C403.287 227.84 412.275 227.542 417.514 228.008C420.452 228.268 420.067 228.601 420.309 225.587C420.863 218.679 420.106 206.439 418.615 198.162C418.414 197.052 418.171 195.658 418.073 195.066C417.975 194.473 417.794 193.625 417.668 193.181C417.543 192.737 417.272 191.646 417.065 190.758C416.859 189.869 416.548 188.744 416.377 188.258C416.205 187.772 416.064 187.184 416.064 186.953C416.064 186.722 415.926 186.211 415.759 185.817C415.159 184.416 414.727 183.057 414.727 182.568C414.727 182.295 414.577 181.922 414.392 181.737C414.209 181.553 414.058 181.245 414.058 181.052C414.058 180.86 413.913 180.361 413.734 179.941C413.556 179.522 413.197 178.634 412.933 177.966C412.671 177.301 412.117 176.028 411.703 175.139C411.288 174.251 410.844 173.281 410.717 172.985C410.59 172.69 410.287 172.084 410.045 171.64C409.803 171.195 409.536 170.649 409.452 170.428C409.367 170.205 409.24 169.963 409.171 169.888C408.867 169.568 408.039 168.001 408.039 167.746C408.039 167.591 407.946 167.465 407.832 167.465C407.717 167.465 407.567 167.253 407.497 166.995C407.429 166.735 407.045 166.083 406.647 165.545C406.248 165.007 405.65 164.159 405.319 163.66C403.802 161.382 403.351 160.779 401.547 158.606C400.49 157.333 399.135 155.789 398.538 155.175C397.94 154.561 397.2 153.787 396.894 153.456C396.587 153.124 395.821 152.451 395.191 151.958C394.561 151.465 393.91 150.9 393.743 150.701C392.881 149.677 386.194 145.247 383.735 144.072C383.31 143.868 382.687 143.545 382.351 143.355C382.015 143.162 381.439 142.925 381.071 142.828C380.703 142.731 380.346 142.539 380.275 142.403C380.206 142.266 379.961 142.154 379.731 142.154C379.501 142.154 379.03 142.012 378.685 141.838C376.576 140.778 371.394 139.319 368.249 138.9C367.145 138.753 365.952 138.517 365.596 138.374C364.774 138.044 349.19 138.036 348.76 138.367ZM113.567 140.69C113.567 140.774 113.663 141.062 113.782 141.329C113.9 141.595 114.097 142.466 114.22 143.263C114.342 144.061 114.604 145.499 114.802 146.462C115 147.424 115.263 148.819 115.387 149.559C115.512 150.299 115.672 151.087 115.746 151.308C115.818 151.531 116.003 152.38 116.155 153.194C116.741 156.312 117.622 160.846 118.145 163.426C118.341 164.389 118.593 165.702 118.706 166.345C118.818 166.987 119.008 167.956 119.126 168.499C119.245 169.042 119.658 171.121 120.046 173.12C120.433 175.12 120.889 177.323 121.058 178.018C121.23 178.711 121.369 179.526 121.369 179.826C121.369 180.127 121.504 180.891 121.668 181.526C121.833 182.161 122.145 183.649 122.361 184.833C122.578 186.019 122.884 187.594 123.042 188.334C123.2 189.074 123.502 190.649 123.715 191.835C123.927 193.019 124.232 194.595 124.393 195.335C124.552 196.076 124.83 197.409 125.011 198.298C125.19 199.186 125.462 200.519 125.614 201.259C125.765 201.999 125.956 203.151 126.038 203.817C126.12 204.484 126.307 205.293 126.453 205.617C126.6 205.941 126.719 206.562 126.719 206.998C126.719 207.434 126.869 208.226 127.053 208.757C127.238 209.289 127.39 210.061 127.394 210.473C127.398 210.885 127.583 211.853 127.803 212.624L127.808 212.638C128.005 213.327 128.813 213.628 129.413 213.236C130.968 212.216 142.639 205.213 144.608 204.117C145.436 203.655 146.789 202.904 147.617 202.447C148.445 201.988 149.724 201.279 150.459 200.87C151.195 200.461 152.423 199.836 153.189 199.48C154.053 199.08 154.541 198.71 154.479 198.503C154.422 198.319 154.313 197.532 154.235 196.752C154.156 195.973 153.952 194.737 153.78 194.007C153.609 193.276 153.467 192.247 153.465 191.719C153.463 191.191 153.318 190.273 153.141 189.68C152.965 189.089 152.815 188.119 152.808 187.526C152.8 186.933 152.646 185.854 152.463 185.127C152.281 184.4 152.131 183.332 152.131 182.754C152.131 182.175 152.03 181.472 151.907 181.193C151.782 180.913 151.618 179.921 151.541 178.989C151.464 178.057 151.325 177.173 151.231 177.025C151.138 176.876 150.988 175.907 150.898 174.871C150.808 173.834 150.641 172.683 150.526 172.313C150.411 171.945 150.231 170.914 150.125 170.026C149.833 167.57 149.289 163.959 149.03 162.754C148.903 162.161 148.796 161.241 148.793 160.711C148.79 160.18 148.713 159.656 148.62 159.547C148.528 159.435 148.337 158.416 148.194 157.28C147.936 155.228 147.553 152.615 146.904 148.481C146.718 147.297 146.459 145.541 146.329 144.578C146.199 143.615 145.976 142.313 145.832 141.682C145.678 141.013 145.083 140.539 144.396 140.539H129.568C120.767 140.539 113.567 140.606 113.567 140.69ZM184.231 141.39C184.231 141.859 184.09 142.857 183.916 143.612C183.571 145.106 183.156 147.521 182.917 149.425C182.834 150.092 182.694 150.775 182.609 150.943C182.523 151.11 182.352 152.018 182.228 152.961C182.105 153.903 181.852 155.524 181.667 156.559C181.483 157.597 181.229 159.11 181.1 159.926C180.973 160.741 180.727 162.195 180.552 163.158C180.378 164.119 180.072 165.877 179.872 167.061C179.673 168.247 179.406 169.701 179.28 170.292C179.154 170.885 178.966 171.976 178.861 172.716C178.662 174.123 178.293 176.352 177.656 179.986C177.449 181.172 177.185 182.778 177.073 183.558C176.961 184.337 176.719 185.665 176.537 186.508C176.355 187.353 176.206 188.313 176.206 188.643C176.206 188.931 176.495 189.131 176.765 189.028L177.488 188.754C179.953 187.819 181.265 187.392 181.667 187.392C181.892 187.392 182.585 187.218 183.208 187.004C183.833 186.791 185.145 186.437 186.127 186.218C187.107 185.998 188.511 185.683 189.247 185.52C191.061 185.116 196.876 184.621 197.773 184.794C198.429 184.92 198.498 184.87 198.498 184.261C198.498 183.889 198.609 183.335 198.744 183.03C199.057 182.322 199.381 182.828 199.386 184.033C199.388 184.49 199.75 184.864 200.206 184.882L201.006 184.912C203.252 184.998 206.495 185.878 208.984 187.077C211.409 188.245 212.204 188.656 213.767 189.544C214.749 190.102 215.701 190.635 215.886 190.728C216.069 190.824 216.822 191.304 217.558 191.795C218.293 192.286 219.497 193.084 220.233 193.567C222.214 194.871 224.192 196.309 224.636 196.768C225.302 197.456 225.299 197.406 224.221 190.892C224.038 189.782 223.811 188.206 223.716 187.392C223.622 186.576 223.435 185.426 223.301 184.833C223.166 184.242 222.886 182.545 222.678 181.064C222.469 179.582 222.16 177.664 221.99 176.802C221.82 175.937 221.681 174.986 221.681 174.685C221.681 174.385 221.535 173.334 221.356 172.351C221.178 171.367 220.918 169.835 220.777 168.946C220.277 165.767 219.858 163.009 219.757 162.214C219.7 161.77 219.515 160.619 219.345 159.656C218.927 157.286 218.546 154.924 218.347 153.464C218.061 151.357 217.091 145.337 216.603 142.624C216.385 141.417 215.334 140.539 214.108 140.539H200.229H185.083C184.612 140.539 184.231 140.92 184.231 141.39ZM253.353 141.144C253.17 141.716 252.944 143.125 252.438 146.865C252.318 147.754 252.128 148.785 252.014 149.155C251.902 149.525 251.746 150.491 251.667 151.302C251.588 152.113 251.443 152.901 251.346 153.053C251.248 153.204 251.104 154.103 251.026 155.052C250.947 155.999 250.796 156.908 250.689 157.071C250.583 157.235 250.424 158.154 250.339 159.115C250.252 160.077 250.1 160.985 250.004 161.135C249.908 161.285 249.773 162.178 249.706 163.12C249.639 164.064 249.475 164.967 249.342 165.127C249.208 165.287 249.1 165.89 249.1 166.465C249.1 167.042 248.956 168.258 248.779 169.171C248.602 170.084 248.308 171.74 248.124 172.851C247.94 173.961 247.677 175.477 247.538 176.217C247.4 176.957 247.198 178.319 247.088 179.244C246.979 180.169 246.785 181.161 246.656 181.448C246.529 181.736 246.421 182.434 246.416 182.998C246.41 183.563 246.261 184.51 246.084 185.103C245.907 185.696 245.758 186.604 245.75 187.122C245.743 187.641 245.592 188.549 245.415 189.142C245.239 189.735 245.094 190.522 245.093 190.892C245.092 191.263 244.943 192.352 244.764 193.315C244.456 194.955 244.26 196.107 243.398 201.325C243.21 202.474 242.91 204.161 242.734 205.074C242.557 205.987 242.413 207.059 242.413 207.458C242.413 207.856 242.255 208.917 242.062 209.816C241.775 211.157 241.765 211.485 242.006 211.648C242.169 211.758 242.552 212.116 242.858 212.444C243.329 212.947 247.796 217.112 250.359 219.435C250.767 219.805 252.832 221.694 254.949 223.633C258.663 227.035 260.615 228.728 263.088 230.698C263.732 231.21 264.267 231.764 264.278 231.927C264.302 232.313 265.273 227.919 265.82 224.956C265.957 224.214 266.156 223.366 266.264 223.07C266.449 222.568 266.57 221.973 267.166 218.695C267.293 217.991 267.493 217.206 267.611 216.949C267.729 216.69 267.825 216.205 267.824 215.871C267.824 215.535 267.964 214.716 268.138 214.05C268.69 211.919 269.506 208.182 269.842 206.24C269.957 205.575 270.146 204.786 270.261 204.49C270.376 204.195 270.532 203.379 270.61 202.679C270.686 201.98 270.844 201.335 270.959 201.249C271.074 201.164 271.169 200.707 271.17 200.233C271.171 199.761 271.321 199.028 271.504 198.603C271.688 198.178 271.838 197.513 271.836 197.122C271.836 196.732 271.975 195.866 272.146 195.201C272.318 194.533 272.62 193.367 272.817 192.606C273.013 191.846 273.175 190.998 273.174 190.722C273.174 190.446 273.314 189.673 273.488 189.008C274.074 186.748 274.914 182.881 275.155 181.333C275.247 180.741 275.441 179.991 275.587 179.668C275.731 179.345 275.85 178.755 275.85 178.357C275.85 177.96 276.012 177.013 276.208 176.252C276.405 175.493 276.707 174.325 276.879 173.659C277.05 172.992 277.189 172.205 277.188 171.908C277.186 171.612 277.325 170.824 277.496 170.158C277.668 169.491 277.97 168.324 278.167 167.563C278.363 166.804 278.525 165.927 278.525 165.617C278.525 165.306 278.664 164.595 278.835 164.038C279.005 163.479 279.36 161.931 279.623 160.598C279.885 159.265 280.257 157.509 280.448 156.695C280.64 155.879 280.924 154.548 281.084 153.732C281.435 151.921 282.456 147.084 282.873 145.25C283.042 144.51 283.283 143.419 283.408 142.826C283.534 142.235 283.697 141.477 283.771 141.144C283.839 140.833 283.603 140.539 283.284 140.539H268.727H254.185C253.806 140.539 253.47 140.783 253.353 141.144ZM424.981 155.616C424.981 163.877 431.661 170.719 439.923 170.751L442.759 170.762L445.617 170.774C453.87 170.806 460.546 177.498 460.559 185.751L460.594 209.072L460.648 245.854C460.649 246.774 461.083 247.639 461.819 248.19C462.462 248.672 463.892 249.846 464.995 250.803C466.099 251.758 467.55 252.997 468.22 253.557C468.89 254.116 471.248 256.205 473.459 258.199C476.944 261.342 483.098 266.709 484.36 267.709C484.588 267.89 485.139 268.349 485.585 268.725C486.03 269.103 487.047 269.883 487.844 270.459C488.641 271.035 489.343 271.577 489.405 271.664C489.661 272.027 490.742 272.746 490.743 272.556C490.743 272.441 490.743 249.682 490.742 221.98C490.739 181.994 490.797 171.517 491.019 171.153C491.277 170.732 492.659 170.691 509.244 170.63L512.303 170.618C520.543 170.587 527.215 163.789 527.247 155.549C527.278 147.269 520.574 140.539 512.293 140.539H476.142H439.981C431.697 140.539 424.981 147.331 424.981 155.616ZM560.236 141.686C560.022 142.317 559.843 143.074 559.837 143.368C559.833 143.663 559.686 144.208 559.511 144.578C559.336 144.948 559.189 145.51 559.185 145.825C559.181 146.142 559.027 146.747 558.844 147.172C558.66 147.596 558.511 148.15 558.509 148.402C558.509 148.654 558.416 149.139 558.303 149.478C558.19 149.819 557.873 151.006 557.598 152.116C557.323 153.228 556.874 154.984 556.598 156.021C556.324 157.058 555.88 158.815 555.612 159.926C555.345 161.036 554.993 162.431 554.831 163.022C554.669 163.615 554.367 164.826 554.16 165.715C553.952 166.604 553.554 168.179 553.273 169.216C552.306 172.796 551.82 174.829 551.82 175.304C551.82 175.566 551.729 175.85 551.617 175.932C551.505 176.016 551.346 176.569 551.264 177.159C551.181 177.75 551.034 178.293 550.935 178.366C550.837 178.44 550.69 179.043 550.607 179.708C550.526 180.372 550.363 180.988 550.248 181.073C550.133 181.159 550.038 181.556 550.036 181.956C550.035 182.353 549.885 183.027 549.702 183.45C549.519 183.875 549.369 184.419 549.367 184.662C549.366 184.904 549.216 185.45 549.033 185.873C548.85 186.298 548.7 186.904 548.699 187.221C548.697 187.536 548.548 188.142 548.364 188.567C548.181 188.992 548.031 189.597 548.03 189.913C548.029 190.229 547.879 190.835 547.696 191.26C547.512 191.683 547.363 192.229 547.361 192.472C547.36 192.714 547.21 193.259 547.027 193.683C546.844 194.107 546.694 194.713 546.692 195.029C546.691 195.346 546.541 195.952 546.358 196.375C546.175 196.8 546.025 197.445 546.025 197.807C546.025 198.17 545.917 198.711 545.786 199.009C545.553 199.532 545.138 201.165 544.666 203.413C544.54 204.006 544.345 204.605 544.229 204.746C544.114 204.886 544.015 205.311 544.011 205.689C544.007 206.066 543.86 206.678 543.684 207.048C543.509 207.42 543.362 208.032 543.358 208.41C543.354 208.79 543.203 209.336 543.022 209.622C542.843 209.909 542.692 210.475 542.688 210.877C542.684 211.279 542.542 212.006 542.374 212.493C542.075 213.349 541.827 214.293 541.007 217.685C540.791 218.574 540.492 219.724 540.341 220.243C540.19 220.762 539.895 221.912 539.688 222.801C539.479 223.689 539.205 224.78 539.078 225.224C538.951 225.668 538.798 226.336 538.741 226.706C538.682 227.076 538.551 227.622 538.448 227.917C538.346 228.213 538.039 229.365 537.766 230.475C537.492 231.586 537.143 232.979 536.989 233.572C536.835 234.165 536.533 235.377 536.317 236.265C536.101 237.154 535.789 238.262 535.625 238.729C535.46 239.196 535.325 239.833 535.325 240.146C535.325 240.459 535.235 240.925 535.127 241.183C535.017 241.44 534.707 242.56 534.438 243.67C534.168 244.781 533.863 245.932 533.757 246.227C533.653 246.525 533.499 247.187 533.415 247.701C533.331 248.213 533.186 248.819 533.095 249.047C533.003 249.273 532.754 250.186 532.543 251.074C532.33 251.963 532.027 253.175 531.868 253.767C531.708 254.36 531.405 255.572 531.195 256.461C530.662 258.715 529.962 261.474 529.761 262.116C529.667 262.411 529.415 263.381 529.199 264.269C528.984 265.158 528.724 266.218 528.623 266.625C528.45 267.318 528.68 267.667 528.955 267.13C529.021 267.001 529.804 266.374 530.696 265.739C531.587 265.103 532.365 264.507 532.427 264.411C532.488 264.318 532.94 263.951 533.43 263.599C533.921 263.245 540.091 258.333 547.139 252.683C564.754 238.566 569.249 235.008 570.545 234.162C571.971 233.231 571.835 233.168 568.376 233.168C564.586 233.168 564.386 233.052 565.038 231.223C565.373 230.283 565.756 228.662 566.098 226.735C566.215 226.083 566.397 225.418 566.505 225.253C566.612 225.09 566.768 224.382 566.853 223.683C566.937 222.983 567.1 222.338 567.215 222.253C567.33 222.167 567.425 221.831 567.424 221.506C567.424 221.182 567.563 220.371 567.734 219.705C567.905 219.038 568.207 217.871 568.404 217.11C568.601 216.349 568.763 215.501 568.764 215.225C568.765 214.949 568.915 214.377 569.098 213.952C569.281 213.527 569.431 212.895 569.431 212.548C569.431 212.199 569.57 211.515 569.74 211.029C570.064 210.103 570.425 208.542 570.782 206.521C570.9 205.861 571.095 205.2 571.217 205.054C571.339 204.907 571.438 204.436 571.438 204.006C571.438 203.576 571.579 202.844 571.753 202.377C571.927 201.91 572.116 201.165 572.173 200.721C572.231 200.277 572.384 199.55 572.513 199.106C572.732 198.353 572.961 197.309 573.81 193.181C573.992 192.292 574.285 190.948 574.462 190.195C574.637 189.442 574.781 188.594 574.78 188.31C574.78 188.027 574.922 187.25 575.096 186.584C575.271 185.917 575.578 184.403 575.78 183.217C575.982 182.033 576.291 180.447 576.468 179.694C576.643 178.941 576.788 178.054 576.788 177.724C576.788 177.395 576.928 176.558 577.099 175.863C577.27 175.17 577.582 173.632 577.792 172.447C578.415 168.911 579.418 166.874 579.635 168.699C579.67 168.984 579.838 169.822 580.012 170.562C580.307 171.814 580.518 172.809 581.34 176.823C581.516 177.674 581.782 178.916 581.933 179.582C582.084 180.249 582.286 181.279 582.381 181.872C582.598 183.214 582.985 185.037 584.061 189.746C584.255 190.599 584.562 191.963 584.744 192.777C584.925 193.591 585.176 194.622 585.303 195.066C585.429 195.511 585.579 196.238 585.636 196.682C585.694 197.126 585.884 197.871 586.058 198.338C586.23 198.805 586.373 199.495 586.373 199.87C586.373 200.246 586.467 200.624 586.583 200.711C586.698 200.797 586.86 201.411 586.943 202.077C587.026 202.741 587.173 203.345 587.271 203.418C587.368 203.49 587.52 204.066 587.605 204.694C587.691 205.323 587.838 205.957 587.933 206.106C588.028 206.255 588.212 206.92 588.342 207.588C588.562 208.699 588.749 209.489 589.625 212.973C589.792 213.64 590.044 214.729 590.183 215.396C590.323 216.063 590.52 216.805 590.62 217.046C590.719 217.286 590.87 217.926 590.953 218.466C591.067 219.198 591.175 219.38 591.378 219.177C591.994 218.559 601.475 212.738 604.541 211.095C609.738 208.308 614.675 206.009 615.955 205.777C616.741 205.633 616.785 204.87 616.101 203.225C615.933 202.825 615.798 202.306 615.798 202.07C615.798 201.602 614.587 196.942 614.097 195.529C613.93 195.042 613.792 194.409 613.792 194.123C613.792 193.837 613.654 193.205 613.489 192.719C613.007 191.32 612.455 189.116 612.447 188.567C612.443 188.29 612.293 187.83 612.112 187.542C611.933 187.255 611.782 186.649 611.778 186.195C611.774 185.743 611.624 185.137 611.444 184.849C611.264 184.562 611.117 183.993 611.117 183.586C611.117 183.179 611.024 182.776 610.911 182.692C610.797 182.608 610.638 182.146 610.555 181.666C610.367 180.564 609.793 178.361 609.406 177.252C609.243 176.787 609.111 176.163 609.111 175.871C609.111 175.577 608.961 174.989 608.778 174.564C608.595 174.141 608.443 173.46 608.443 173.053C608.442 172.646 608.346 172.312 608.229 172.312C608.112 172.312 607.955 171.858 607.882 171.302C607.808 170.748 607.661 170.095 607.553 169.854C607.446 169.614 607.287 168.959 607.2 168.399C607.113 167.84 606.905 167.067 606.74 166.683C606.574 166.298 606.437 165.818 606.437 165.617C606.436 165.193 605.83 162.884 605.394 161.636C605.231 161.169 605.098 160.479 605.098 160.102C605.098 159.726 605.005 159.349 604.892 159.265C604.779 159.181 604.62 158.719 604.537 158.24C604.388 157.369 603.841 155.155 603.523 154.136C603.431 153.84 603.191 152.931 602.992 152.116C602.029 148.181 601.684 146.822 601.519 146.327C601.42 146.032 601.125 144.88 600.863 143.77C600.6 142.658 600.275 141.477 600.14 141.144C599.992 140.778 599.637 140.539 599.242 140.539H580.261L561.837 140.54C561.113 140.54 560.47 141.001 560.236 141.686Z" fill="#FAFAFA"/>
<path fill-rule="evenodd" clip-rule="evenodd" d="M193.148 184.962C191.983 185.062 190.328 185.293 189.47 185.477C185.981 186.222 184.286 186.636 183.208 187.004C182.585 187.218 181.876 187.392 181.633 187.392C181.389 187.392 180.746 187.56 180.203 187.765C179.66 187.97 178.59 188.352 177.826 188.613C176.11 189.202 175.885 189.505 175.54 191.699C175.136 194.263 174.739 196.669 174.315 199.105C174.109 200.29 173.805 202.046 173.642 203.009C173.478 203.972 173.184 205.699 172.988 206.846C172.793 207.993 172.476 209.872 172.285 211.019C172.093 212.168 171.79 213.955 171.611 214.992C171.007 218.48 170.62 220.905 170.388 222.65C170.261 223.605 170.064 224.597 169.949 224.854C169.836 225.112 169.742 225.718 169.742 226.198C169.742 226.68 169.602 227.749 169.431 228.573C169.107 230.124 168.85 231.677 168.266 235.591C168.078 236.85 167.779 238.789 167.599 239.9C167.42 241.01 167.178 242.707 167.06 243.67C166.944 244.633 166.746 245.772 166.623 246.201C166.499 246.629 166.398 247.418 166.398 247.953C166.398 248.487 166.293 249.347 166.164 249.864C166.036 250.383 165.846 251.593 165.74 252.556C165.282 256.755 164.458 261.954 164.161 262.534C163.864 263.115 163.5 262.51 163.5 261.434C163.5 260.854 163.356 259.498 163.18 258.42C163.005 257.343 162.7 255.249 162.504 253.767C162.306 252.286 161.998 249.984 161.816 248.651C161.636 247.318 161.336 245.077 161.149 243.67C160.963 242.262 160.706 240.445 160.579 239.631C160.451 238.816 160.265 237.362 160.164 236.399C160.063 235.436 159.916 234.457 159.837 234.223C159.756 233.989 159.599 232.958 159.485 231.934C159.248 229.799 158.763 226.234 158.388 223.878C158.072 221.891 157.614 218.774 157.142 215.396C156.945 213.989 156.675 212.292 156.541 211.627C156.407 210.959 156.227 209.748 156.138 208.933C155.966 207.332 155.644 205.258 155.131 202.432C154.952 201.448 154.806 200.267 154.806 199.807C154.806 198.47 154.571 198.559 147.116 202.734C146.135 203.283 144.581 204.145 143.665 204.65C142.273 205.416 130.734 212.378 128.649 213.709C128.166 214.018 128.044 214.25 128.139 214.688C128.629 216.942 129.503 221.497 129.853 223.608C130 224.497 130.21 225.466 130.319 225.763C130.43 226.059 130.615 226.907 130.73 227.647C131.134 230.25 131.456 231.961 131.642 232.494C131.746 232.791 131.928 233.64 132.049 234.38C132.169 235.12 132.414 236.453 132.594 237.341C133.192 240.296 133.667 242.712 133.943 244.208C134.094 245.022 134.281 245.87 134.359 246.093C134.438 246.314 134.601 247.103 134.722 247.843C135.037 249.765 135.671 253.082 136.651 257.941C136.814 258.755 137.115 260.27 137.32 261.308C137.523 262.343 137.835 263.918 138.014 264.807C138.192 265.696 138.435 267.075 138.554 267.872C138.673 268.668 138.869 269.539 138.986 269.806C139.105 270.074 139.202 270.562 139.202 270.892C139.202 271.223 139.349 272.108 139.527 272.863C139.842 274.194 140.464 277.278 141.863 284.465C142.238 286.39 142.659 288.51 142.798 289.177C142.936 289.843 143.134 290.874 143.234 291.465C143.336 292.058 143.563 293.27 143.74 294.158C143.915 295.047 144.179 296.38 144.324 297.12C144.47 297.861 144.762 299.194 144.973 300.083C145.199 301.031 146.044 301.701 147.019 301.706L161.561 301.766C179.648 301.844 178.658 301.946 178.658 300.013C178.658 299.605 178.765 298.847 178.895 298.33C179.026 297.813 179.22 296.784 179.325 296.044C179.432 295.302 179.62 294.212 179.743 293.62C179.866 293.027 180.08 291.997 180.219 291.331C180.358 290.664 180.556 289.489 180.659 288.72C180.762 287.951 180.901 287.213 180.969 287.08C181.037 286.948 181.191 286.184 181.312 285.382C181.515 284.028 181.909 281.831 182.784 277.194C182.979 276.157 183.193 274.885 183.259 274.367C183.323 273.848 183.47 273.119 183.587 272.748C183.702 272.376 183.889 271.467 184.004 270.728C184.417 268.066 185.324 263.048 186.592 256.394C186.782 255.393 187.077 253.727 187.249 252.69C187.42 251.654 187.715 250.017 187.905 249.055C188.097 248.092 188.357 246.638 188.485 245.823C188.613 245.009 188.806 243.98 188.913 243.536C189.018 243.091 189.224 242.06 189.367 241.246C189.51 240.432 189.773 238.978 189.948 238.015C190.124 237.052 190.409 235.477 190.58 234.514C190.752 233.551 191.053 231.916 191.249 230.879C191.446 229.843 191.708 228.327 191.831 227.513C191.955 226.699 192.152 225.917 192.268 225.776C192.385 225.636 192.48 225.074 192.48 224.527C192.48 223.983 192.623 222.946 192.797 222.225C193.115 220.917 193.419 219.101 193.829 216.076C193.95 215.191 194.139 214.1 194.252 213.653C194.364 213.203 194.573 212.05 194.713 211.087C194.854 210.124 195.113 208.368 195.29 207.184C195.468 205.998 195.702 204.242 195.811 203.279C195.921 202.316 196.119 201.188 196.251 200.77C196.384 200.353 196.492 199.629 196.492 199.16C196.492 198.692 196.637 197.398 196.814 196.283C196.992 195.17 197.299 193.047 197.495 191.565C197.693 190.084 197.959 188.116 198.089 187.19C198.47 184.45 198.58 184.498 193.148 184.962ZM199.523 185.13C199.467 185.306 199.555 186.584 199.718 187.97C199.881 189.355 200.181 192.124 200.383 194.123C200.586 196.123 200.855 198.546 200.982 199.509C201.472 203.209 201.882 206.72 202.041 208.544C202.134 209.589 202.285 210.594 202.378 210.777C202.472 210.961 202.635 211.984 202.741 213.052C202.986 215.525 203.323 217.824 204.757 226.839C205.015 228.47 205.306 230.486 205.403 231.323C205.499 232.16 205.643 232.972 205.724 233.131C205.804 233.287 205.962 234.178 206.075 235.11C206.374 237.572 206.743 239.916 206.975 240.842C207.088 241.287 207.284 242.437 207.412 243.4C207.54 244.363 207.787 245.999 207.961 247.035C208.405 249.677 208.892 252.675 209.185 254.575C209.323 255.464 209.578 256.978 209.752 257.941C209.926 258.903 210.115 260.055 210.171 260.5C210.228 260.944 210.442 262.277 210.647 263.461C210.995 265.478 211.294 267.371 211.879 271.27C212.012 272.158 212.214 273.252 212.328 273.7C212.442 274.149 212.633 275.239 212.753 276.123C212.875 277.008 213.128 278.671 213.318 279.82C213.652 281.841 213.955 283.683 214.666 288.032C214.855 289.181 215.095 290.725 215.202 291.465C215.308 292.207 215.617 294.084 215.889 295.64C216.159 297.194 216.474 299.128 216.589 299.938C216.704 300.747 216.852 301.474 216.917 301.553C216.983 301.632 224.297 301.731 233.17 301.771L248.657 301.839C249.049 301.841 249.406 301.61 249.565 301.251C249.808 300.703 249.965 299.986 250.657 296.312C250.796 295.572 250.997 294.724 251.104 294.428C251.211 294.131 251.362 293.317 251.438 292.617C251.516 291.916 251.672 291.273 251.788 291.187C251.903 291.1 251.998 290.748 251.998 290.404C251.998 290.059 252.154 289.127 252.345 288.332C253.195 284.791 253.676 282.565 254.021 280.56C254.134 279.894 254.296 279.167 254.378 278.944C254.565 278.438 255.067 275.997 255.341 274.255C255.456 273.527 255.654 272.806 255.78 272.653C255.907 272.499 256.011 272.076 256.011 271.711C256.011 271.347 256.167 270.371 256.361 269.544C256.973 266.914 257.315 265.381 257.57 264.135C257.706 263.468 257.969 262.256 258.154 261.442C258.339 260.627 258.567 259.475 258.66 258.884C258.753 258.291 258.941 257.382 259.078 256.865C259.214 256.346 259.488 255.134 259.689 254.171C260.035 252.501 260.162 251.905 260.997 248.045C261.196 247.119 261.523 245.605 261.721 244.679C261.919 243.754 262.22 242.459 262.389 241.804C262.559 241.148 262.698 240.322 262.698 239.968C262.698 239.614 262.801 239.092 262.927 238.808C263.053 238.524 263.248 237.776 263.362 237.144C263.474 236.512 263.719 235.207 263.905 234.246C264.386 231.753 264.38 231.727 263.088 230.698C260.615 228.728 258.663 227.035 254.949 223.632C252.832 221.694 250.767 219.805 250.359 219.435C247.712 217.036 243.309 212.926 242.747 212.333C242.379 211.945 242.025 211.627 241.959 211.627C241.812 211.627 241.066 215.591 241.072 216.338C241.074 216.635 240.935 217.664 240.761 218.627C240.587 219.59 240.282 221.529 240.084 222.936C239.885 224.343 239.629 226.038 239.516 226.705C239.26 228.193 238.661 232.434 238.38 234.748C238.265 235.69 238.127 236.548 238.074 236.653C238.02 236.756 237.876 237.743 237.753 238.842C237.63 239.942 237.366 241.993 237.167 243.4C236.969 244.807 236.668 247.05 236.499 248.382C236.331 249.715 236.031 252.018 235.833 253.498C235.635 254.979 235.339 257.503 235.173 259.107C234.893 261.821 234.75 262.508 234.517 262.227C234.353 262.028 233.525 256.553 233.157 253.229C232.96 251.452 232.655 248.967 232.479 247.709C232.302 246.45 232.158 244.957 232.158 244.392C232.158 243.828 232.063 243.149 231.945 242.884C231.829 242.619 231.626 241.325 231.496 240.007C231.366 238.689 231.113 236.52 230.934 235.187C230.755 233.855 230.469 231.606 230.297 230.192C230.128 228.777 229.926 227.384 229.852 227.095C229.777 226.807 229.605 225.723 229.467 224.686C229.187 222.568 228.757 219.54 228.277 216.338C227.629 212.014 227.233 209.302 227.019 207.728C226.899 206.843 226.709 205.752 226.598 205.305C226.486 204.857 226.171 202.976 225.9 201.125C225.272 196.861 225.329 196.936 220.233 193.57C219.497 193.086 218.293 192.286 217.558 191.795C216.822 191.303 216.069 190.824 215.886 190.728C215.701 190.635 214.749 190.101 213.767 189.544C212.204 188.655 211.409 188.245 208.984 187.077C205.613 185.453 199.801 184.258 199.523 185.13ZM614.906 206.106C614.6 206.318 614.22 206.495 614.062 206.5C613.712 206.511 608.678 208.88 606.324 210.139C605.956 210.336 605.153 210.765 604.541 211.095C601.443 212.754 591.838 218.655 591.424 219.152C591.231 219.382 591.623 222.159 591.955 222.92C592.056 223.151 592.238 223.825 592.36 224.416C592.585 225.507 592.983 227.156 593.647 229.735C593.847 230.512 594.023 231.572 594.037 232.09C594.052 232.608 593.638 233.037 593.12 233.04L582.965 233.103L572.975 233.166C572.256 233.17 571.559 233.408 570.988 233.843C570.505 234.213 570.071 234.514 570.025 234.514C569.978 234.514 568.998 235.26 567.846 236.171C566.695 237.083 564.599 238.74 563.189 239.855C561.779 240.97 554.708 246.623 547.474 252.418C540.24 258.214 533.921 263.245 533.43 263.599C532.94 263.951 532.488 264.317 532.427 264.411C532.365 264.507 531.613 265.09 530.755 265.707C528.424 267.387 528.292 267.565 527.76 269.79C527.494 270.9 527.181 272.019 527.066 272.276C526.95 272.533 526.855 272.984 526.855 273.276C526.855 273.57 526.716 274.208 526.547 274.695C526.378 275.181 526.067 276.306 525.854 277.194C525.643 278.083 525.338 279.294 525.176 279.887C525.014 280.479 524.816 281.356 524.736 281.836C524.656 282.316 524.498 282.778 524.386 282.862C524.272 282.946 524.18 283.322 524.18 283.699C524.18 284.075 524.038 284.765 523.865 285.232C523.693 285.699 523.501 286.384 523.441 286.754C523.382 287.124 523.223 287.79 523.091 288.234C522.957 288.678 522.536 290.315 522.155 291.869C521.336 295.209 521.026 296.432 520.306 299.139C519.52 302.106 518.019 301.846 535.499 301.766L549.649 301.704C550.316 301.701 550.904 301.261 551.094 300.621C551.454 299.417 551.959 297.188 552.278 295.399C552.393 294.748 552.577 294.082 552.686 293.918C552.794 293.754 552.936 293.195 553 292.677C553.066 292.16 553.334 290.887 553.598 289.849C553.861 288.814 554.17 287.481 554.284 286.888C554.398 286.295 554.696 284.962 554.946 283.927C555.921 279.883 556.115 279.047 556.284 278.136C556.38 277.619 556.563 276.831 556.69 276.386C556.817 275.942 557.093 274.79 557.303 273.829C557.755 271.748 558.195 269.833 558.604 268.174C558.769 267.507 559.072 266.174 559.278 265.211C559.868 262.453 560.346 260.786 560.608 260.571C560.74 260.463 569.35 260.37 579.738 260.369L597.554 260.364C598.198 260.364 598.773 260.768 598.991 261.374C599.192 261.93 599.435 262.808 599.533 263.327C599.632 263.844 600.076 265.662 600.521 267.366C601.63 271.604 601.971 272.995 602.172 274.097C602.267 274.616 602.462 275.304 602.607 275.629C602.751 275.952 602.869 276.52 602.869 276.892C602.869 277.262 602.96 277.635 603.072 277.718C603.184 277.802 603.346 278.385 603.432 279.013C603.517 279.642 603.671 280.282 603.774 280.437C603.876 280.59 604.059 281.196 604.18 281.783C604.3 282.369 604.551 283.455 604.739 284.195C604.926 284.936 605.199 286.087 605.344 286.754C605.49 287.42 605.746 288.347 605.912 288.814C606.077 289.281 606.213 289.971 606.213 290.345C606.213 290.722 606.303 291.098 606.416 291.182C606.528 291.265 606.69 291.848 606.776 292.476C606.861 293.105 607.01 293.742 607.103 293.889C607.198 294.037 607.343 294.583 607.426 295.1C607.509 295.619 607.662 296.286 607.769 296.582C608.056 297.383 608.888 300.797 608.888 301.173C608.888 301.786 609.892 301.825 625.383 301.825C641.454 301.825 641.604 301.815 641.236 300.731C641.115 300.374 640.802 299.173 640.539 298.063C640.279 296.952 639.986 295.801 639.888 295.504C639.792 295.209 639.538 294.239 639.324 293.351C639.11 292.462 638.809 291.25 638.655 290.657C638.501 290.066 638.152 288.672 637.878 287.562C637.605 286.45 637.297 285.3 637.196 285.003C637.093 284.707 636.84 283.737 636.631 282.849C636.424 281.96 636.123 280.749 635.961 280.156C635.801 279.564 635.374 277.928 635.014 276.52C633.213 269.471 632.889 268.231 632.603 267.294C632.433 266.734 632.291 266.007 632.287 265.678C632.283 265.347 632.132 264.841 631.953 264.553C631.772 264.267 631.625 263.799 631.625 263.513C631.625 262.977 631.037 260.579 630.705 259.768C630.6 259.514 630.421 258.847 630.306 258.286C629.933 256.474 628.902 252.444 628.588 251.572C628.419 251.106 628.281 250.576 628.281 250.397C628.281 250.084 627.733 247.899 627.37 246.767C627.275 246.47 626.981 245.319 626.716 244.208C626.452 243.098 626.105 241.703 625.945 241.112C625.784 240.519 625.477 239.307 625.261 238.419C625.045 237.53 624.733 236.422 624.568 235.955C624.404 235.488 624.269 234.966 624.269 234.793C624.269 234.47 623.694 232.098 623.385 231.148C623.288 230.853 622.985 229.701 622.708 228.591C622.432 227.479 621.978 225.723 621.698 224.686C621.419 223.649 620.974 221.892 620.711 220.781C620.448 219.671 620.137 218.551 620.022 218.294C619.906 218.037 619.811 217.587 619.811 217.294C619.811 217 619.672 216.362 619.503 215.876C619.335 215.389 619.035 214.325 618.837 213.51C618.641 212.696 618.188 210.94 617.834 209.607C617.478 208.274 617.125 206.849 617.046 206.442C616.88 205.582 615.891 205.426 614.906 206.106ZM409.377 227.686C403.299 228.127 400.757 228.366 399.851 228.583C399.267 228.723 398.087 228.975 397.228 229.143C394.398 229.696 393.673 229.857 392.547 230.195C388.108 231.522 387.977 231.612 387.977 233.373C387.977 234.032 387.823 235.438 387.633 236.495C387.444 237.553 387.131 239.328 386.939 240.438C386.746 241.55 386.449 242.915 386.279 243.472C386.11 244.032 385.97 244.697 385.969 244.954C385.969 245.211 385.818 245.767 385.635 246.192C385.451 246.615 385.302 247.142 385.302 247.363C385.302 247.768 384.866 249.111 384.285 250.491C384.109 250.909 383.964 251.4 383.964 251.581C383.964 251.993 381.372 257.923 380.939 258.501C380.764 258.735 380.62 259.017 380.62 259.126C380.62 259.939 376.117 266.132 374.202 267.951C373.381 268.733 372.657 269.442 372.595 269.53C372.345 269.882 369.07 272.127 368.138 272.586C367.586 272.856 366.884 273.226 366.577 273.407C366.031 273.73 364.446 274.273 362.23 274.897C358.339 275.994 351.895 275.63 347.941 274.092C346.756 273.632 343.804 272.22 343.394 271.917C343.209 271.782 342.908 271.591 342.725 271.494C341.376 270.785 336.705 266.491 335.892 265.211C335.751 264.99 335.125 264.141 334.501 263.327C333.876 262.511 333.365 261.694 333.364 261.51C333.363 261.324 333.277 261.172 333.171 261.172C332.947 261.172 331.356 258.344 331.356 257.945C331.356 257.795 331.263 257.672 331.149 257.672C331.034 257.672 330.869 257.399 330.784 257.066C330.698 256.732 330.554 256.399 330.464 256.325C330.375 256.251 330.036 255.524 329.712 254.709C328.697 252.161 328.739 252.192 326.858 252.544C322.244 253.41 308.318 252.754 302.155 251.379C298.478 250.56 297.55 250.316 296.744 249.963C294.958 249.177 294.88 250.113 296.359 254.575C296.457 254.871 296.763 255.902 297.04 256.865C297.316 257.826 297.627 258.729 297.73 258.87C297.835 259.01 297.919 259.301 297.919 259.514C297.919 259.934 301.229 268.067 301.937 269.386C302.175 269.83 302.472 270.436 302.596 270.732C302.929 271.525 303.306 272.226 303.994 273.328C304.331 273.868 304.606 274.431 304.606 274.578C304.606 274.727 304.756 274.918 304.941 275.003C305.124 275.087 305.275 275.343 305.275 275.57C305.275 275.797 305.35 275.984 305.442 275.984C305.535 275.986 305.861 276.433 306.167 276.979C308.37 280.907 317.536 291.215 320.211 292.774C320.739 293.081 321.473 293.616 321.803 293.931C322.36 294.467 326.62 297.178 327.902 297.813C328.146 297.934 328.818 298.283 329.394 298.587C329.969 298.891 330.577 299.139 330.742 299.139C330.908 299.139 331.14 299.249 331.256 299.382C331.523 299.687 335.358 301.219 336.447 301.456C336.896 301.553 337.364 301.724 337.486 301.834C337.707 302.033 338.967 302.346 342.367 303.052C343.334 303.253 344.232 303.545 344.362 303.702C344.691 304.099 365.84 304.099 365.949 303.702C365.994 303.545 366.779 303.293 367.696 303.143C368.614 302.993 369.714 302.766 370.144 302.64C371.04 302.379 372.72 301.92 374.115 301.555C375.442 301.209 380.107 299.341 381.958 298.416C382.387 298.202 382.94 297.929 383.184 297.811C384.499 297.18 389.829 293.824 390.957 292.919C391.675 292.342 392.307 291.869 392.362 291.869C392.417 291.869 392.897 291.476 393.43 290.995C393.962 290.513 394.679 289.877 395.023 289.581C398.73 286.392 403.679 280.492 406.536 275.85C407.408 274.433 408.715 272.144 409.151 271.27C409.446 270.678 409.751 270.132 409.827 270.058C409.904 269.984 410.036 269.741 410.12 269.52C410.206 269.297 410.535 268.57 410.852 267.904C411.406 266.743 412.702 263.66 414.079 260.23C414.435 259.341 414.727 258.427 414.727 258.197C414.727 257.968 414.815 257.664 414.922 257.524C415.278 257.058 417.644 248.134 418.06 245.689C419.328 238.244 419.853 234.284 420.014 230.977C420.164 227.867 420.539 228.148 415.953 227.925C414.114 227.835 412.157 227.725 411.606 227.68C411.055 227.634 410.052 227.638 409.377 227.686ZM460.703 274.569L460.729 286.899C460.746 295.089 467.369 301.73 475.559 301.768C486.306 301.818 490.441 301.753 490.661 301.532C490.911 301.283 490.964 298.713 490.964 287.247V274.064C490.964 273.549 490.774 273.054 490.429 272.672C489.637 271.795 489.43 271.619 487.844 270.465C487.047 269.885 486.03 269.103 485.585 268.725C485.139 268.349 484.588 267.89 484.36 267.709C483.098 266.709 476.944 261.341 473.459 258.199C471.248 256.205 468.89 254.116 468.22 253.556C467.55 252.995 466.148 251.803 465.106 250.908C462.841 248.959 460.939 247.439 460.769 247.439C460.702 247.439 460.671 259.648 460.703 274.569Z" fill="#E7F7FD"/>
<path fill-rule="evenodd" clip-rule="evenodd" d="M352.257 137.364C352.196 137.585 351.269 137.743 349.396 137.853C347.873 137.942 346.407 138.159 346.139 138.335C345.871 138.509 345.087 138.653 344.397 138.653C343.706 138.653 342.935 138.787 342.682 138.95C342.429 139.113 341.708 139.346 341.08 139.467C339.689 139.734 338.053 140.228 337.589 140.522C337.4 140.643 336.824 140.826 336.309 140.933C335.792 141.038 335.314 141.233 335.245 141.369C335.176 141.505 334.95 141.616 334.743 141.616C334.535 141.618 334.109 141.781 333.793 141.98C333.479 142.177 332.93 142.427 332.574 142.535C331.277 142.93 326.085 145.952 323.582 147.77C322.432 148.605 321.323 149.41 321.119 149.559C317.116 152.442 310.102 160.16 307.058 165.032C306.751 165.521 306.242 166.3 305.925 166.762C305.314 167.649 302.376 172.811 302.376 172.995C302.376 173.055 301.948 173.987 301.424 175.065C300.901 176.142 300.135 177.873 299.723 178.91C299.311 179.945 298.886 180.976 298.779 181.198C298.672 181.421 298.526 181.784 298.453 182.005C298.296 182.5 298.08 183.106 297.485 184.752C297.232 185.447 297.024 186.174 297.02 186.368C297.016 186.56 296.866 186.954 296.685 187.242C296.505 187.528 296.358 187.969 296.358 188.219C296.358 188.471 296.208 189.024 296.025 189.447C295.841 189.872 295.692 190.416 295.69 190.659C295.69 190.901 295.539 191.447 295.356 191.871C295.173 192.295 295.023 192.968 295.021 193.367C295.021 193.766 294.932 194.158 294.824 194.239C294.715 194.32 294.555 194.963 294.468 195.669C294.379 196.373 294.243 197.071 294.163 197.22C293.491 198.462 292.194 209.224 291.89 216.07C291.488 225.109 292.381 240.466 293.511 243.939C293.584 244.161 293.745 244.949 293.871 245.689C294.346 248.479 294.618 249.594 294.79 249.465C294.956 249.34 294.838 248.502 293.994 243.804C291.947 232.41 291.687 219.383 293.227 205.298C293.355 204.114 293.556 202.841 293.671 202.471C293.786 202.101 293.946 201.131 294.029 200.317C294.112 199.501 294.256 198.714 294.351 198.566C294.446 198.419 294.593 197.751 294.678 197.086C294.762 196.419 294.964 195.389 295.126 194.796C295.288 194.204 295.602 192.992 295.824 192.103C296.046 191.215 296.299 190.366 296.384 190.219C296.471 190.071 296.612 189.494 296.697 188.937C296.784 188.379 296.943 187.857 297.052 187.777C297.161 187.696 297.25 187.442 297.25 187.214C297.25 186.835 297.373 186.44 298.242 184.025C300.319 178.264 304.99 168.487 306.29 167.184C306.468 167.006 306.612 166.754 306.612 166.625C306.612 166.494 306.787 166.169 307.003 165.901C307.217 165.631 307.793 164.818 308.284 164.091C308.775 163.366 309.351 162.555 309.565 162.291C309.781 162.026 309.956 161.757 309.956 161.692C309.956 161.524 313.526 157.233 313.665 157.233C313.728 157.233 314.071 156.9 314.427 156.493C314.783 156.086 315.444 155.388 315.896 154.943C316.348 154.499 316.874 153.924 317.065 153.665C317.255 153.405 317.494 153.194 317.594 153.194C317.695 153.194 317.898 153.071 318.047 152.919C318.977 151.974 321.806 149.605 322.551 149.15C322.796 149 323.298 148.638 323.665 148.345C324.033 148.053 324.484 147.731 324.668 147.629C324.852 147.528 325.052 147.374 325.114 147.289C325.324 146.999 330.96 143.77 331.257 143.77C331.336 143.77 331.716 143.603 332.102 143.401C332.834 143.02 334.032 142.467 335.368 141.897C335.798 141.713 336.6 141.44 337.151 141.29C337.704 141.138 338.255 140.923 338.378 140.81C338.501 140.698 339.075 140.522 339.654 140.422C340.234 140.32 340.757 140.141 340.819 140.021C340.879 139.903 341.601 139.723 342.421 139.621C343.242 139.519 344.023 139.351 344.156 139.246C345.215 138.412 363.012 137.693 365.573 138.38C366.187 138.545 367.491 138.79 368.472 138.924C371.444 139.333 376.662 140.821 378.685 141.837C379.03 142.012 379.501 142.154 379.731 142.154C379.961 142.154 380.206 142.266 380.275 142.403C380.346 142.539 380.703 142.731 381.071 142.828C381.439 142.925 382.015 143.162 382.351 143.354C382.687 143.545 383.31 143.868 383.735 144.072C386.193 145.246 392.881 149.676 393.742 150.701C393.91 150.9 394.561 151.465 395.191 151.958C395.821 152.451 396.587 153.124 396.893 153.455C397.2 153.787 397.939 154.561 398.537 155.174C399.135 155.788 400.49 157.333 401.547 158.606C403.351 160.779 403.802 161.382 405.318 163.66C405.65 164.159 406.248 165.007 406.647 165.545C407.045 166.083 407.429 166.734 407.497 166.995C407.567 167.253 407.717 167.465 407.832 167.465C407.945 167.465 408.039 167.591 408.039 167.746C408.039 168.001 408.867 169.568 409.17 169.888C409.24 169.962 409.367 170.205 409.451 170.428C409.536 170.649 409.803 171.195 410.045 171.639C410.287 172.084 410.59 172.69 410.717 172.985C410.844 173.281 411.288 174.25 411.702 175.139C412.117 176.028 412.671 177.301 412.933 177.966C413.196 178.634 413.556 179.522 413.734 179.941C413.913 180.361 414.058 180.86 414.058 181.052C414.058 181.244 414.209 181.553 414.392 181.737C414.577 181.921 414.726 182.295 414.726 182.568C414.726 183.057 415.158 184.416 415.759 185.817C415.926 186.211 416.064 186.721 416.064 186.953C416.064 187.184 416.204 187.772 416.377 188.258C416.548 188.744 416.858 189.869 417.064 190.757C417.272 191.646 417.543 192.737 417.668 193.181C417.793 193.625 417.975 194.473 418.073 195.066C418.17 195.658 418.414 197.052 418.615 198.162C420.098 206.392 420.86 218.726 420.313 225.628C420.178 227.339 420.203 228.041 420.413 228.407C421.312 229.961 420.886 208.946 419.898 203.009C419.359 199.768 419.159 198.509 418.974 197.22C418.869 196.48 418.672 195.533 418.538 195.115C418.403 194.698 418.293 194.092 418.292 193.769C418.291 193.446 418.141 192.833 417.958 192.41C417.775 191.985 417.625 191.379 417.623 191.063C417.622 190.748 417.472 190.142 417.289 189.717C417.106 189.292 416.953 188.686 416.949 188.371C416.945 188.054 416.794 187.56 416.615 187.272C416.434 186.985 416.287 186.536 416.287 186.272C416.287 185.802 415.881 184.503 415.263 182.994C415.09 182.574 414.95 182.119 414.95 181.981C414.95 181.595 412.703 176.1 412.475 175.931C412.366 175.848 412.275 175.611 412.275 175.402C412.275 174.767 408.926 168.251 407.433 165.985C407.335 165.836 406.712 164.867 406.047 163.829C403.592 160 395.765 151.08 394.375 150.53C394.228 150.471 393.741 150.077 393.294 149.654C392.848 149.231 392.405 148.885 392.309 148.885C392.214 148.885 391.971 148.705 391.771 148.486C391.145 147.802 387.223 145.327 383.938 143.544C381.931 142.453 375.868 139.999 375.183 139.999C374.878 139.999 374.575 139.895 374.51 139.768C374.445 139.642 373.823 139.467 373.127 139.38C372.432 139.293 371.758 139.094 371.628 138.937C371.498 138.781 370.876 138.653 370.245 138.653C369.615 138.653 368.607 138.472 368.005 138.252C367.348 138.012 366.007 137.85 364.642 137.848C362.925 137.845 362.292 137.747 362.038 137.441C361.594 136.905 352.404 136.832 352.257 137.364ZM113.384 140.345C113.218 140.585 113.215 141.015 113.373 141.758C113.499 142.346 113.741 143.553 113.912 144.442C114.083 145.33 114.385 146.846 114.582 147.809C114.779 148.772 115.077 150.286 115.245 151.174C115.414 152.063 115.712 153.577 115.909 154.54C116.107 155.502 116.36 156.897 116.472 157.637C116.583 158.377 116.765 159.225 116.876 159.522C116.986 159.818 117.197 160.787 117.344 161.676C117.491 162.564 117.759 164.019 117.938 164.907C118.117 165.796 118.366 167.188 118.49 168.004C118.615 168.819 118.811 169.601 118.928 169.741C119.044 169.882 119.139 170.321 119.139 170.72C119.139 171.118 119.282 172.032 119.456 172.753C119.84 174.341 120.204 176.252 120.5 178.236C120.624 179.05 120.817 179.832 120.934 179.973C121.05 180.114 121.146 180.66 121.146 181.185C121.148 181.71 121.298 182.487 121.481 182.912C121.664 183.337 121.814 184.036 121.814 184.469C121.814 184.901 121.965 185.689 122.148 186.221C122.333 186.752 122.483 187.534 122.483 187.957C122.483 188.381 122.62 189.184 122.789 189.743C123.107 190.795 123.498 192.838 123.784 194.932C123.875 195.599 124.042 196.326 124.155 196.546C124.268 196.768 124.434 197.495 124.525 198.162C124.616 198.829 124.835 200.101 125.012 200.989C125.19 201.878 125.453 203.211 125.599 203.952C125.743 204.692 126 205.904 126.17 206.644C126.339 207.386 126.525 208.355 126.582 208.799C126.64 209.244 126.804 210.152 126.947 210.819C127.09 211.484 127.306 212.499 127.426 213.073C127.583 213.817 127.714 214.032 127.885 213.825C128.056 213.619 128.019 213.202 127.756 212.37C127.553 211.728 127.387 210.87 127.387 210.463C127.387 210.056 127.237 209.289 127.053 208.757C126.87 208.226 126.718 207.434 126.718 206.998C126.718 206.562 126.599 205.941 126.452 205.616C126.307 205.293 126.119 204.484 126.038 203.817C125.956 203.151 125.765 201.999 125.614 201.259C125.461 200.519 125.19 199.186 125.011 198.298C124.83 197.409 124.552 196.076 124.393 195.334C124.232 194.595 123.927 193.019 123.714 191.835C123.502 190.649 123.2 189.074 123.042 188.334C122.884 187.594 122.578 186.019 122.361 184.833C122.144 183.649 121.833 182.161 121.668 181.526C121.504 180.891 121.368 180.126 121.368 179.826C121.368 179.525 121.229 178.711 121.058 178.018C120.888 177.323 120.432 175.12 120.046 173.119C119.658 171.121 119.245 169.042 119.126 168.499C119.008 167.956 118.818 166.986 118.706 166.345C118.593 165.702 118.34 164.388 118.145 163.426C117.622 160.845 116.741 156.312 116.155 153.194C116.002 152.379 115.818 151.531 115.746 151.308C115.672 151.087 115.512 150.298 115.387 149.559C115.263 148.819 114.999 147.424 114.801 146.461C114.603 145.498 114.341 144.061 114.22 143.262C114.097 142.466 113.9 141.595 113.782 141.328C113.663 141.062 113.567 140.774 113.567 140.69C113.567 140.606 120.767 140.538 129.567 140.538H144.396C145.082 140.538 145.678 141.013 145.831 141.682C145.976 142.312 146.199 143.615 146.329 144.578C146.459 145.54 146.718 147.297 146.904 148.481C147.553 152.615 147.935 155.228 148.193 157.28C148.337 158.415 148.528 159.435 148.62 159.546C148.712 159.656 148.79 160.18 148.793 160.711C148.795 161.241 148.902 162.161 149.029 162.753C149.289 163.959 149.833 167.57 150.125 170.025C150.23 170.914 150.411 171.945 150.526 172.313C150.641 172.683 150.808 173.834 150.898 174.871C150.987 175.906 151.137 176.876 151.231 177.024C151.324 177.173 151.464 178.057 151.541 178.989C151.617 179.921 151.782 180.913 151.906 181.193C152.029 181.472 152.131 182.175 152.131 182.753C152.131 183.332 152.281 184.4 152.463 185.127C152.646 185.854 152.8 186.933 152.808 187.526C152.814 188.119 152.964 189.088 153.141 189.68C153.317 190.273 153.463 191.19 153.464 191.719C153.467 192.247 153.61 193.276 153.783 194.006C153.955 194.737 154.161 196.021 154.242 196.861C154.333 197.81 154.509 198.443 154.708 198.535C155.102 198.718 155.134 197.978 154.781 196.902C154.644 196.483 154.446 195.415 154.342 194.527C153.998 191.591 153.665 189.429 153.341 188.041C153.166 187.287 153.019 186.137 153.015 185.482C153.011 184.83 152.864 183.993 152.689 183.621C152.514 183.251 152.365 182.403 152.36 181.737C152.354 181.07 152.199 179.929 152.017 179.204C151.834 178.477 151.686 177.348 151.686 176.695C151.686 176.042 151.564 175.244 151.414 174.919C151.266 174.596 151.07 173.604 150.979 172.716C150.816 171.132 150.47 168.663 149.806 164.369C149.243 160.726 148.754 157.461 148.453 155.347C148.295 154.237 148.144 153.328 148.116 153.328C148.066 153.328 147.612 150.111 147.229 147.038C147.111 146.098 146.915 144.946 146.792 144.481C146.67 144.015 146.509 142.938 146.436 142.085C146.34 140.96 146.19 140.462 145.888 140.267C145.213 139.831 113.685 139.907 113.384 140.345ZM183.996 140.74C183.873 141.148 183.715 141.661 183.644 141.884C183.573 142.106 183.433 142.955 183.331 143.77C183.148 145.25 182.868 146.872 182.405 149.155C182.27 149.82 182.079 150.972 181.981 151.712C181.719 153.688 181.342 155.837 180.981 157.391C180.807 158.144 180.664 159.13 180.664 159.58C180.664 160.029 180.514 160.834 180.33 161.366C180.146 161.897 179.995 162.768 179.995 163.301C179.995 163.833 179.895 164.497 179.772 164.776C179.647 165.054 179.451 165.985 179.332 166.844C179.214 167.704 178.965 169.316 178.779 170.428C178.593 171.538 178.33 173.234 178.194 174.197C178.057 175.16 177.867 176.134 177.772 176.362C177.676 176.59 177.527 177.438 177.439 178.247C177.352 179.055 177.14 180.236 176.967 180.871C176.793 181.506 176.651 182.453 176.651 182.975C176.651 183.498 176.551 184.154 176.428 184.432C176.304 184.712 176.112 185.642 176.001 186.502C175.89 187.361 175.729 188.339 175.642 188.675C175.52 189.143 175.559 189.25 175.807 189.134C175.992 189.048 176.253 188.268 176.416 187.313C176.572 186.394 176.832 184.854 176.992 183.891C177.153 182.928 177.453 181.172 177.659 179.986C178.33 176.125 178.667 174.086 178.861 172.716C178.965 171.976 179.154 170.885 179.28 170.292C179.405 169.701 179.673 168.247 179.872 167.061C180.071 165.876 180.378 164.119 180.552 163.157C180.727 162.194 180.973 160.74 181.1 159.926C181.228 159.11 181.482 157.596 181.667 156.559C181.852 155.523 182.104 153.903 182.227 152.961C182.352 152.018 182.523 151.11 182.609 150.943C182.694 150.775 182.833 150.092 182.916 149.424C183.156 147.521 183.57 145.106 183.915 143.611C184.089 142.857 184.231 141.858 184.231 141.39C184.231 140.92 184.612 140.538 185.082 140.538H200.229H214.107C215.334 140.538 216.385 141.417 216.603 142.624C217.091 145.337 218.06 151.357 218.347 153.464C218.546 154.924 218.927 157.286 219.344 159.656C219.514 160.619 219.7 161.77 219.756 162.214C219.858 163.009 220.277 165.767 220.777 168.946C220.917 169.835 221.178 171.366 221.356 172.35C221.535 173.334 221.681 174.384 221.681 174.685C221.681 174.985 221.82 175.937 221.99 176.801C222.16 177.664 222.469 179.582 222.677 181.064C222.886 182.545 223.166 184.241 223.301 184.833C223.434 185.426 223.622 186.576 223.715 187.392C223.81 188.206 224.038 189.782 224.221 190.891C224.405 192.003 224.693 193.793 224.86 194.872C225.035 195.992 225.336 197.031 225.564 197.296C226.002 197.806 225.89 196.186 225.447 195.617C225.338 195.477 225.245 194.932 225.243 194.405C225.24 193.88 225.137 192.966 225.015 192.373C224.892 191.78 224.637 190.266 224.446 189.008C224.256 187.747 223.953 185.81 223.774 184.699C223.595 183.589 223.346 181.899 223.219 180.944C223.092 179.991 222.895 178.999 222.78 178.74C222.667 178.483 222.573 177.793 222.573 177.207C222.573 176.622 222.431 175.554 222.257 174.834C221.916 173.418 221.565 171.114 221.238 168.164C221.125 167.142 220.927 166.177 220.8 166.024C220.671 165.868 220.567 165.19 220.567 164.516C220.568 163.842 220.425 162.745 220.249 162.08C219.93 160.873 219.641 159.034 219.216 155.515C219.093 154.498 218.895 153.446 218.776 153.178C218.657 152.909 218.561 152.194 218.561 151.588C218.561 150.98 218.409 150.048 218.226 149.517C218.042 148.985 217.892 148.012 217.892 147.353C217.892 146.696 217.789 145.925 217.663 145.642C217.537 145.358 217.346 144.271 217.236 143.225C217.128 142.18 216.878 141.026 216.68 140.661C216.458 140.253 216.031 139.999 215.566 139.999H200.27H184.995C184.535 139.999 184.129 140.3 183.996 140.74ZM253.279 140.336C253.08 140.521 252.806 141.338 252.67 142.154C252.434 143.561 252.22 144.849 251.428 149.626C251.238 150.773 250.992 152.468 250.88 153.394C250.769 154.318 250.574 155.31 250.447 155.598C250.318 155.885 250.21 156.583 250.205 157.147C250.199 157.713 250.051 158.659 249.874 159.252C249.696 159.845 249.55 160.71 249.549 161.173C249.546 161.639 249.403 162.608 249.231 163.329C248.941 164.532 248.82 165.279 248.212 169.644C248.095 170.471 247.897 171.48 247.77 171.883C247.643 172.286 247.539 173.037 247.539 173.551C247.539 174.063 247.389 174.919 247.204 175.451C247.021 175.982 246.87 176.89 246.87 177.47C246.87 178.049 246.72 178.958 246.536 179.49C246.353 180.021 246.201 180.91 246.201 181.466C246.201 182.022 246.052 182.993 245.867 183.621C245.684 184.251 245.533 185.135 245.533 185.584C245.533 186.033 245.391 187.019 245.216 187.772C244.818 189.487 244.459 191.61 244.194 193.785C244.083 194.709 243.886 195.701 243.759 195.989C243.631 196.276 243.526 196.989 243.526 197.574C243.526 198.157 243.377 199.07 243.192 199.601C243.009 200.133 242.856 201.026 242.855 201.587C242.852 202.148 242.706 203.09 242.53 203.682C242.353 204.275 242.205 205.311 242.2 205.985C242.194 206.658 242.094 207.326 241.976 207.466C241.86 207.608 241.677 208.604 241.571 209.681C241.46 210.796 241.461 211.536 241.572 211.402C241.838 211.08 242.407 208.432 242.41 207.497C242.411 207.077 242.557 205.986 242.733 205.074C242.91 204.161 243.209 202.474 243.398 201.325C244.259 196.107 244.456 194.955 244.764 193.315C244.943 192.352 245.091 191.263 245.093 190.891C245.094 190.521 245.238 189.735 245.415 189.142C245.591 188.549 245.743 187.641 245.749 187.122C245.757 186.604 245.907 185.696 246.084 185.103C246.26 184.51 246.41 183.563 246.415 182.997C246.421 182.434 246.529 181.736 246.656 181.448C246.785 181.16 246.978 180.168 247.088 179.244C247.198 178.319 247.4 176.957 247.538 176.217C247.677 175.477 247.94 173.961 248.123 172.851C248.308 171.74 248.602 170.084 248.779 169.171C248.955 168.258 249.1 167.041 249.1 166.465C249.1 165.889 249.208 165.287 249.342 165.127C249.474 164.967 249.639 164.064 249.706 163.12C249.773 162.178 249.908 161.285 250.004 161.135C250.1 160.984 250.251 160.076 250.338 159.115C250.424 158.154 250.583 157.234 250.689 157.071C250.796 156.908 250.947 155.998 251.026 155.052C251.103 154.103 251.248 153.203 251.345 153.053C251.443 152.901 251.587 152.113 251.666 151.302C251.745 150.491 251.902 149.525 252.014 149.155C252.128 148.785 252.318 147.754 252.438 146.865C252.944 143.125 253.17 141.716 253.353 141.144C253.469 140.783 253.805 140.538 254.185 140.538H268.726H283.284C283.602 140.538 283.839 140.833 283.77 141.144C283.697 141.477 283.534 142.235 283.408 142.826C283.282 143.419 283.041 144.51 282.873 145.25C282.456 147.083 281.435 151.921 281.083 153.732C280.924 154.548 280.639 155.879 280.448 156.695C280.257 157.509 279.885 159.265 279.623 160.598C279.359 161.931 279.005 163.479 278.835 164.038C278.664 164.595 278.525 165.306 278.525 165.616C278.525 165.927 278.363 166.804 278.166 167.563C277.97 168.324 277.667 169.491 277.496 170.158C277.325 170.824 277.186 171.612 277.187 171.908C277.189 172.205 277.049 172.992 276.878 173.659C276.707 174.325 276.405 175.493 276.208 176.252C276.012 177.013 275.85 177.96 275.85 178.357C275.85 178.755 275.731 179.344 275.586 179.668C275.44 179.991 275.247 180.74 275.154 181.333C274.913 182.881 274.074 186.747 273.488 189.008C273.314 189.673 273.173 190.446 273.173 190.722C273.175 190.998 273.013 191.846 272.816 192.606C272.62 193.367 272.317 194.533 272.146 195.2C271.975 195.866 271.836 196.732 271.836 197.121C271.837 197.512 271.687 198.178 271.504 198.603C271.321 199.028 271.171 199.761 271.17 200.233C271.168 200.706 271.074 201.164 270.959 201.249C270.843 201.335 270.686 201.98 270.609 202.679C270.532 203.379 270.375 204.195 270.26 204.49C270.145 204.786 269.957 205.574 269.842 206.24C269.506 208.182 268.69 211.919 268.138 214.05C267.964 214.716 267.823 215.535 267.823 215.871C267.825 216.205 267.728 216.69 267.611 216.949C267.493 217.205 267.292 217.991 267.165 218.695C266.57 221.973 266.448 222.568 266.264 223.07C266.156 223.366 265.956 224.214 265.82 224.956C265.512 226.62 265.041 228.903 264.696 230.384C264.51 231.187 264.504 231.644 264.675 232C264.882 232.43 264.914 232.388 264.92 231.673C264.924 231.221 265.02 230.736 265.132 230.596C265.246 230.455 265.44 229.735 265.563 228.995C265.825 227.416 266.299 225.067 266.808 222.8C267.399 220.175 268.436 215.186 268.766 213.376C268.901 212.636 269.082 211.969 269.168 211.895C269.253 211.822 269.396 211.168 269.485 210.442C269.573 209.717 269.732 208.928 269.838 208.693C269.945 208.455 270.092 207.688 270.167 206.988C270.242 206.287 270.397 205.644 270.513 205.558C270.628 205.471 270.723 205.041 270.723 204.6C270.723 204.161 270.873 203.364 271.057 202.833C271.241 202.301 271.392 201.548 271.393 201.159C271.393 200.769 271.544 200.104 271.728 199.681C271.911 199.256 272.059 198.65 272.059 198.333C272.058 198.018 272.2 197.213 272.374 196.546C272.78 194.987 273.16 193.194 273.371 191.835C273.464 191.242 273.658 190.492 273.802 190.169C273.948 189.846 274.067 189.172 274.067 188.672C274.067 188.172 274.214 187.528 274.393 187.242C274.574 186.954 274.724 186.371 274.728 185.946C274.732 185.523 274.88 184.613 275.058 183.926C275.442 182.443 275.913 180.369 276.409 177.966C276.608 177.005 276.916 175.671 277.092 175.005C277.267 174.338 277.412 173.535 277.411 173.22C277.411 172.905 277.56 172.211 277.745 171.68C277.928 171.148 278.079 170.353 278.079 169.914C278.079 169.473 278.173 169.042 278.289 168.956C278.404 168.87 278.56 168.226 278.634 167.526C278.709 166.826 278.874 166.028 279 165.752C279.125 165.477 279.315 164.689 279.42 164.002C279.652 162.492 280.04 160.618 280.348 159.522C280.472 159.078 280.653 158.289 280.749 157.771C281.142 155.635 281.836 152.386 282.334 150.352C282.444 149.899 282.63 148.991 282.747 148.332C282.864 147.675 283.124 146.408 283.328 145.519C284.17 141.812 284.355 140.461 284.051 140.228C283.546 139.84 253.702 139.945 253.279 140.336ZM424.703 140.29C424.137 140.687 424.096 169.935 424.659 170.906C424.874 171.276 425.27 171.504 425.698 171.504H442.715H445.446C453.721 171.504 460.434 178.206 460.446 186.481L460.481 209.539L460.538 247.575L460.537 209.203L460.536 185.773C460.536 177.511 453.856 170.806 445.595 170.773L442.759 170.762L439.922 170.751C431.661 170.719 424.981 163.877 424.981 155.616C424.981 147.331 431.697 140.538 439.981 140.538H476.142H512.293C520.574 140.538 527.278 147.268 527.246 155.549C527.215 163.789 520.542 170.587 512.303 170.618L509.243 170.63C492.688 170.691 491.277 170.731 491.02 171.152C490.799 171.512 490.742 182.06 490.742 221.763C490.742 261.314 490.801 272.074 491.02 272.657C491.245 273.252 491.321 263.518 491.411 222.518L491.489 186.494C491.507 178.267 498.149 171.59 506.376 171.528L509.53 171.504C525.213 171.387 527.566 171.318 527.75 170.966C528.224 170.059 528.019 140.59 527.538 140.278C526.941 139.892 425.251 139.905 424.703 140.29ZM560.085 140.708C559.83 141.099 559.623 141.658 559.623 141.952C559.623 142.5 559.037 144.891 558.703 145.712C558.599 145.967 558.421 146.633 558.307 147.193C558.11 148.166 557.923 148.893 557.365 150.838C557.228 151.32 557.064 152.137 557.002 152.656C556.94 153.173 556.751 153.837 556.584 154.129C556.416 154.422 556.279 154.989 556.279 155.393C556.279 155.795 556.187 156.192 556.076 156.276C555.964 156.359 555.803 156.921 555.719 157.525C555.633 158.13 555.425 158.947 555.255 159.341C555.084 159.737 554.943 160.238 554.943 160.454C554.942 160.673 554.801 161.338 554.63 161.936C554.459 162.534 554.146 163.749 553.933 164.637C553.722 165.526 553.468 166.45 553.369 166.691C553.27 166.933 553.117 167.587 553.031 168.148C552.944 168.707 552.736 169.479 552.57 169.864C552.405 170.248 552.268 170.769 552.268 171.021C552.267 171.273 552.177 171.757 552.069 172.097C551.961 172.438 551.648 173.625 551.373 174.735C551.099 175.847 550.586 177.823 550.233 179.126C549.881 180.43 549.592 181.726 549.592 182.005C549.592 182.285 549.497 182.584 549.382 182.669C549.266 182.755 549.104 183.369 549.022 184.031C548.939 184.695 548.783 185.237 548.674 185.237C548.566 185.237 548.474 185.631 548.468 186.112C548.464 186.594 548.317 187.29 548.142 187.66C547.967 188.032 547.82 188.576 547.814 188.872C547.809 189.169 547.655 189.757 547.472 190.182C547.289 190.607 547.139 191.213 547.138 191.528C547.138 191.845 546.986 192.451 546.803 192.875C546.62 193.299 546.47 193.882 546.47 194.171C546.47 194.46 546.363 194.94 546.231 195.239C545.999 195.761 545.583 197.396 545.111 199.643C544.987 200.236 544.79 200.836 544.674 200.976C544.559 201.117 544.464 201.542 544.463 201.918C544.463 202.296 544.311 202.952 544.128 203.377C543.945 203.8 543.795 204.384 543.795 204.673C543.795 204.962 543.677 205.463 543.533 205.788C543.39 206.111 543.199 206.799 543.109 207.318C543.021 207.836 542.837 208.654 542.702 209.135C542.569 209.617 542.348 210.404 542.213 210.885C542.079 211.366 541.891 212.224 541.794 212.791C541.698 213.36 541.508 213.96 541.37 214.124C541.232 214.291 541.12 214.717 541.12 215.073C541.12 215.428 540.98 216.1 540.807 216.567C540.633 217.034 540.443 217.719 540.383 218.089C540.279 218.731 540.169 219.159 539.559 221.32C539.412 221.837 539.242 222.566 539.183 222.936C539.123 223.306 538.932 223.991 538.759 224.458C538.587 224.923 538.445 225.465 538.445 225.66C538.445 225.856 538.306 226.503 538.135 227.1C537.964 227.697 537.651 228.914 537.439 229.803C537.227 230.691 536.915 231.816 536.746 232.302C536.578 232.788 536.439 233.478 536.439 233.834C536.439 234.191 536.348 234.551 536.236 234.635C536.123 234.717 535.961 235.296 535.874 235.919C535.786 236.541 535.634 237.238 535.533 237.466C535.263 238.078 534.433 241.537 534.433 242.046C534.433 242.287 534.339 242.6 534.223 242.741C534.108 242.881 533.915 243.481 533.797 244.073C533.585 245.128 533.411 245.809 532.868 247.709C532.721 248.227 532.548 249.014 532.485 249.458C532.422 249.903 532.294 250.387 532.202 250.536C532.108 250.685 531.961 251.32 531.875 251.95C531.79 252.58 531.628 253.094 531.516 253.094C531.403 253.094 531.312 253.317 531.312 253.588C531.312 254.094 530.539 257.38 530.194 258.344C530.087 258.642 529.933 259.307 529.85 259.826C529.767 260.345 529.624 260.889 529.532 261.038C529.44 261.186 529.294 261.776 529.208 262.35C529.123 262.923 528.973 263.59 528.877 263.831C528.525 264.705 527.938 267.15 528.049 267.282C528.279 267.562 528.608 267.064 528.752 266.217C528.898 265.363 529.437 263.177 529.763 262.115C529.967 261.455 530.681 258.635 531.195 256.461C531.405 255.572 531.708 254.36 531.867 253.767C532.026 253.174 532.33 251.963 532.543 251.074C532.754 250.185 533.003 249.273 533.095 249.046C533.186 248.819 533.331 248.213 533.415 247.701C533.499 247.187 533.653 246.524 533.757 246.227C533.863 245.931 534.168 244.781 534.438 243.67C534.707 242.56 535.017 241.44 535.127 241.183C535.235 240.925 535.325 240.459 535.325 240.146C535.325 239.832 535.46 239.196 535.624 238.729C535.789 238.262 536.1 237.154 536.317 236.265C536.533 235.376 536.835 234.165 536.989 233.572C537.142 232.979 537.491 231.586 537.766 230.475C538.039 229.365 538.346 228.213 538.448 227.917C538.551 227.621 538.682 227.075 538.741 226.705C538.798 226.335 538.951 225.668 539.078 225.224C539.205 224.78 539.479 223.689 539.688 222.8C539.895 221.912 540.189 220.761 540.34 220.243C540.491 219.724 540.791 218.574 541.006 217.685C541.826 214.292 542.075 213.349 542.373 212.493C542.542 212.006 542.684 211.279 542.688 210.877C542.692 210.475 542.843 209.909 543.022 209.622C543.203 209.336 543.354 208.79 543.358 208.41C543.362 208.032 543.509 207.419 543.684 207.048C543.859 206.678 544.006 206.066 544.01 205.689C544.014 205.311 544.113 204.886 544.228 204.746C544.345 204.605 544.54 204.006 544.666 203.413C545.138 201.165 545.553 199.532 545.785 199.008C545.916 198.711 546.025 198.17 546.025 197.806C546.025 197.444 546.175 196.8 546.358 196.375C546.541 195.952 546.691 195.346 546.692 195.029C546.693 194.712 546.843 194.107 547.027 193.683C547.21 193.258 547.36 192.714 547.361 192.472C547.362 192.229 547.512 191.683 547.695 191.26C547.879 190.835 548.028 190.229 548.03 189.912C548.031 189.597 548.181 188.991 548.364 188.567C548.547 188.142 548.697 187.536 548.698 187.221C548.7 186.904 548.85 186.298 549.033 185.873C549.216 185.45 549.366 184.904 549.367 184.662C549.368 184.419 549.518 183.875 549.702 183.45C549.885 183.027 550.035 182.353 550.036 181.955C550.037 181.556 550.132 181.159 550.247 181.073C550.362 180.988 550.525 180.372 550.607 179.708C550.69 179.042 550.837 178.44 550.935 178.365C551.034 178.293 551.181 177.75 551.264 177.159C551.345 176.569 551.504 176.016 551.617 175.932C551.729 175.85 551.82 175.565 551.82 175.304C551.82 174.829 552.306 172.796 553.273 169.216C553.554 168.179 553.952 166.604 554.159 165.715C554.367 164.826 554.669 163.615 554.831 163.022C554.993 162.43 555.344 161.036 555.612 159.926C555.879 158.815 556.323 157.058 556.598 156.021C556.873 154.984 557.323 153.228 557.598 152.116C557.872 151.006 558.189 149.819 558.303 149.478C558.415 149.138 558.509 148.654 558.509 148.402C558.51 148.15 558.66 147.596 558.843 147.172C559.027 146.747 559.18 146.141 559.184 145.825C559.188 145.51 559.336 144.947 559.511 144.578C559.686 144.208 559.833 143.663 559.837 143.367C559.842 143.073 560.022 142.317 560.236 141.686C560.469 141.001 561.113 140.54 561.836 140.54L580.261 140.538H599.242C599.637 140.538 599.992 140.778 600.14 141.144C600.275 141.477 600.6 142.658 600.862 143.77C601.124 144.88 601.42 146.032 601.519 146.327C601.683 146.822 602.029 148.18 602.992 152.116C603.191 152.93 603.43 153.84 603.523 154.136C603.841 155.155 604.388 157.369 604.536 158.239C604.619 158.719 604.778 159.181 604.892 159.265C605.004 159.349 605.098 159.726 605.098 160.102C605.098 160.479 605.23 161.169 605.394 161.635C605.83 162.884 606.436 165.193 606.437 165.616C606.437 165.818 606.573 166.298 606.739 166.683C606.905 167.067 607.112 167.839 607.199 168.399C607.286 168.959 607.445 169.613 607.552 169.854C607.661 170.095 607.808 170.748 607.881 171.302C607.955 171.858 608.111 172.312 608.229 172.312C608.346 172.312 608.442 172.646 608.443 173.053C608.443 173.46 608.594 174.14 608.778 174.564C608.961 174.989 609.111 175.577 609.111 175.871C609.111 176.163 609.243 176.787 609.406 177.252C609.793 178.361 610.367 180.564 610.555 181.666C610.638 182.146 610.797 182.608 610.911 182.692C611.023 182.776 611.117 183.178 611.117 183.586C611.117 183.993 611.264 184.561 611.443 184.849C611.624 185.137 611.774 185.742 611.778 186.195C611.782 186.649 611.933 187.255 612.112 187.542C612.293 187.83 612.442 188.29 612.446 188.567C612.454 189.116 613.007 191.32 613.488 192.719C613.654 193.205 613.792 193.837 613.792 194.123C613.792 194.409 613.93 195.042 614.099 195.528C614.268 196.015 614.725 197.684 615.116 199.239C615.505 200.794 615.931 202.43 616.059 202.875C616.189 203.319 616.345 204.015 616.405 204.422C616.467 204.83 616.655 205.164 616.827 205.164C616.996 205.164 617.136 205.305 617.136 205.477C617.136 205.65 617.193 205.723 617.263 205.637C617.334 205.552 617.233 205.114 617.041 204.663C616.847 204.212 616.689 203.644 616.689 203.4C616.689 203.156 616.554 202.574 616.389 202.107C616.225 201.64 615.912 200.532 615.694 199.643C614.796 195.976 614.617 195.294 614.323 194.451C614.153 193.964 614.011 193.297 614.006 192.969C614.002 192.641 613.855 192.071 613.68 191.699C613.504 191.329 613.354 190.723 613.346 190.353C613.338 189.983 613.185 189.445 613.004 189.158C612.823 188.87 612.676 188.36 612.676 188.022C612.676 187.686 612.54 187.012 612.373 186.526C611.893 185.127 611.34 182.923 611.332 182.374C611.328 182.098 611.178 181.635 610.998 181.348C610.817 181.062 610.667 180.456 610.663 180.002C610.659 179.55 610.51 178.944 610.329 178.656C610.148 178.369 610.001 177.8 610.001 177.393C610.001 176.986 609.91 176.583 609.798 176.501C609.686 176.417 609.525 175.855 609.441 175.25C609.357 174.646 609.148 173.83 608.977 173.434C608.807 173.039 608.667 172.551 608.665 172.349C608.664 171.925 608.059 169.617 607.623 168.366C607.46 167.901 607.326 167.277 607.326 166.985C607.326 166.691 607.177 166.103 606.993 165.678C606.81 165.254 606.66 164.694 606.659 164.432C606.659 164.17 606.569 163.747 606.46 163.49C606.278 163.062 605.982 161.92 604.978 157.771C604.781 156.957 604.539 156.105 604.441 155.877C604.342 155.651 604.194 155.045 604.11 154.531C604.025 154.018 603.872 153.355 603.767 153.06C603.478 152.239 602.868 149.767 602.868 149.415C602.868 149.242 602.733 148.72 602.569 148.253C602.404 147.786 602.106 146.738 601.907 145.923C600.948 141.992 600.544 140.645 600.228 140.336C599.959 140.073 595.621 139.999 580.217 139.999H561.394C560.866 139.999 560.373 140.266 560.085 140.708ZM352.979 166.688C352.427 166.817 351.364 167.03 350.616 167.163C349.868 167.295 349.047 167.537 348.792 167.704C348.536 167.869 348.088 168.004 347.798 168.004C347.506 168.004 347.073 168.182 346.836 168.399C346.598 168.617 346.202 168.802 345.957 168.812C345.711 168.82 345.317 169.006 345.079 169.224C344.841 169.442 344.518 169.62 344.362 169.62C343.791 169.62 340.159 172.439 338.294 174.331C336.18 176.475 332.025 182.262 332.025 183.062C332.025 183.222 331.931 183.353 331.817 183.353C331.702 183.353 331.538 183.624 331.452 183.959C331.367 184.292 331.225 184.624 331.138 184.699C330.969 184.841 330.685 185.463 329.819 187.573C329.526 188.287 328.999 189.571 328.649 190.425C328.298 191.279 328.01 192.187 328.006 192.444C328.002 192.701 327.85 193.147 327.671 193.434C327.491 193.722 327.343 194.162 327.343 194.414C327.343 194.664 327.194 195.217 327.01 195.641C326.827 196.065 326.677 196.677 326.676 197.002C326.675 197.327 326.586 197.658 326.478 197.739C326.368 197.821 326.211 198.451 326.125 199.141C326.039 199.831 325.882 200.59 325.775 200.828C325.483 201.476 324.77 206.4 324.231 211.491C323.958 214.068 323.956 228.368 324.227 231.418C324.553 235.079 325.466 241.392 325.765 242.064C325.868 242.291 326.022 242.988 326.109 243.611C326.196 244.233 326.359 244.812 326.471 244.896C326.584 244.98 326.675 245.355 326.675 245.731C326.675 246.366 326.905 247.155 327.687 249.19C327.857 249.635 328.059 250.321 328.137 250.719C328.213 251.114 328.467 251.648 328.701 251.904C329.236 252.489 329.231 252.179 328.681 250.806C328.444 250.213 328.246 249.541 328.242 249.311C328.238 249.082 328.151 248.778 328.05 248.638C327.735 248.206 326.607 244.044 326.203 241.833C325.594 238.495 325.306 236.637 325.114 234.784C324.997 233.674 324.794 231.916 324.66 230.879C324.135 226.796 324.599 209.898 325.337 206.24C325.442 205.721 325.629 204.631 325.753 203.817C326.225 200.713 326.474 199.356 326.667 198.836C326.776 198.54 327.087 197.388 327.354 196.278C327.623 195.166 327.932 194.142 328.039 194.002C328.147 193.861 328.236 193.581 328.236 193.381C328.236 193.052 328.527 192.174 329.477 189.639C329.652 189.172 329.795 188.72 329.795 188.634C329.795 188.549 330.196 187.686 330.687 186.718C331.178 185.75 331.579 184.906 331.579 184.842C331.579 184.652 332.928 182.257 334.011 180.526C335.743 177.756 339.956 173.013 341.387 172.221C341.57 172.119 342.223 171.67 342.836 171.223C344.029 170.352 344.292 170.2 345.845 169.487C346.398 169.234 347.179 168.857 347.581 168.651C347.984 168.442 348.548 168.272 348.836 168.272C349.122 168.272 349.747 168.071 350.221 167.822C351.485 167.161 361.15 167.167 362.39 167.83C362.846 168.074 363.469 168.272 363.776 168.272C364.082 168.272 364.712 168.468 365.176 168.707C365.64 168.945 366.321 169.295 366.689 169.483C368.183 170.247 370.418 171.659 370.636 171.976C370.763 172.16 370.966 172.312 371.088 172.312C371.382 172.312 374.373 175.141 375.794 176.763C376.977 178.11 380.112 182.968 380.842 184.586C381.106 185.166 381.512 186.004 381.748 186.448C381.983 186.893 382.238 187.439 382.313 187.66C382.39 187.883 382.732 188.791 383.074 189.68C383.417 190.568 383.869 191.841 384.078 192.507C384.288 193.174 384.598 194.04 384.769 194.435C384.939 194.827 385.079 195.449 385.079 195.814C385.079 196.181 385.22 196.622 385.391 196.793C385.562 196.965 385.753 197.556 385.816 198.105C385.929 199.099 386.177 200.33 386.774 202.838C386.945 203.558 387.086 204.544 387.086 205.027C387.086 205.508 387.235 206.419 387.42 207.048C387.603 207.678 387.756 208.996 387.758 209.977C387.76 210.958 387.911 212.609 388.093 213.646C388.466 215.777 388.565 226.216 388.222 227.306C387.746 228.82 387.67 231.73 388.119 231.207C388.621 230.625 388.877 214.488 388.431 211.491C388.299 210.602 388.094 208.87 387.975 207.641C387.856 206.413 387.657 205.179 387.534 204.899C387.409 204.62 387.308 203.956 387.308 203.422C387.308 202.889 387.158 202.018 386.973 201.487C386.79 200.955 386.636 200.202 386.631 199.813C386.627 199.424 386.48 198.802 386.304 198.432C386.129 198.062 385.982 197.516 385.977 197.22C385.971 196.924 385.818 196.335 385.634 195.91C385.451 195.486 385.301 194.976 385.301 194.775C385.301 194.575 385.141 193.953 384.943 193.392C384.745 192.832 384.456 192.009 384.301 191.565C383.7 189.845 381.435 184.484 381.009 183.77C376.716 176.587 373.018 172.399 368.917 170.077C368.427 169.801 367.76 169.402 367.434 169.192C367.109 168.983 366.657 168.807 366.431 168.802C366.205 168.798 365.825 168.617 365.587 168.399C365.349 168.182 364.892 168.004 364.573 168.004C364.253 168.004 363.893 167.886 363.774 167.743C363.655 167.599 362.908 167.361 362.113 167.217C361.32 167.072 360.068 166.826 359.332 166.673C357.774 166.345 354.423 166.353 352.979 166.688ZM578.6 169.127C578.364 169.769 578 171.261 577.792 172.447C577.582 173.632 577.27 175.17 577.099 175.863C576.928 176.557 576.787 177.394 576.787 177.724C576.787 178.054 576.643 178.941 576.468 179.693C576.291 180.446 575.982 182.033 575.78 183.217C575.578 184.403 575.27 185.917 575.095 186.584C574.921 187.25 574.78 188.027 574.78 188.31C574.781 188.594 574.637 189.442 574.461 190.195C574.162 191.478 573.974 192.36 573.096 196.614C572.904 197.54 572.642 198.661 572.513 199.105C572.384 199.55 572.23 200.277 572.173 200.721C572.115 201.165 571.927 201.91 571.753 202.377C571.579 202.844 571.437 203.576 571.437 204.006C571.437 204.435 571.338 204.907 571.217 205.054C571.095 205.2 570.9 205.86 570.782 206.521C570.425 208.542 570.064 210.103 569.74 211.029C569.57 211.515 569.431 212.199 569.431 212.548C569.431 212.895 569.281 213.527 569.098 213.951C568.915 214.376 568.765 214.948 568.764 215.225C568.762 215.501 568.6 216.349 568.404 217.11C568.207 217.871 567.905 219.038 567.734 219.705C567.562 220.37 567.423 221.181 567.423 221.506C567.425 221.831 567.33 222.167 567.215 222.253C567.1 222.338 566.937 222.983 566.852 223.682C566.768 224.382 566.612 225.09 566.505 225.253C566.396 225.418 566.214 226.083 566.098 226.734C565.756 228.662 565.373 230.282 565.037 231.223C564.391 233.037 564.608 233.17 568.164 233.149C569.903 233.139 571.504 233.045 571.722 232.942C571.939 232.837 570.619 232.754 568.788 232.758C565.27 232.764 565.033 232.706 565.388 231.916C565.596 231.449 565.718 230.94 566.384 227.738C566.527 227.046 566.72 226.39 566.812 226.279C566.903 226.167 566.979 225.704 566.981 225.246C566.981 224.791 567.132 224.07 567.315 223.645C567.498 223.22 567.648 222.589 567.648 222.241C567.648 221.892 567.787 221.209 567.956 220.723C568.279 219.797 568.641 218.236 568.999 216.215C569.117 215.554 569.312 214.893 569.432 214.748C569.554 214.601 569.653 214.233 569.653 213.929C569.652 213.625 569.792 212.832 569.963 212.165C570.135 211.497 570.435 210.331 570.633 209.57C570.83 208.811 570.995 207.901 570.999 207.55C571.003 207.2 571.152 206.678 571.333 206.39C571.513 206.104 571.661 205.629 571.661 205.337C571.661 204.818 572.134 202.6 572.589 200.989C572.715 200.545 572.908 199.642 573.021 198.981C573.133 198.32 573.324 197.661 573.445 197.514C573.567 197.367 573.667 196.903 573.667 196.485C573.667 196.065 573.817 195.286 574.001 194.754C574.184 194.223 574.338 193.409 574.344 192.947C574.348 192.483 574.495 191.801 574.67 191.431C574.845 191.061 574.992 190.378 574.996 189.916C575 189.452 575.154 188.638 575.339 188.106C575.522 187.575 575.673 186.675 575.673 186.108C575.673 185.54 575.78 184.946 575.911 184.788C576.042 184.629 576.236 183.849 576.343 183.051C576.58 181.282 576.985 179.102 577.913 174.601C578.066 173.861 578.234 172.83 578.287 172.312C578.339 171.793 578.525 170.988 578.7 170.521C578.874 170.055 579.017 169.471 579.017 169.226C579.017 168.98 579.117 168.854 579.239 168.946C579.362 169.038 579.466 169.56 579.47 170.106C579.474 170.654 579.621 171.404 579.797 171.774C579.972 172.144 580.123 172.871 580.131 173.389C580.139 173.908 580.29 174.635 580.465 175.005C580.641 175.375 580.788 176.079 580.792 176.57C580.796 177.062 580.919 177.729 581.066 178.052C581.212 178.375 581.4 179.185 581.486 179.852C581.57 180.517 581.744 181.427 581.871 181.871C582.127 182.766 582.509 184.531 582.806 186.18C583.098 187.802 583.5 189.562 583.84 190.696C584.007 191.253 584.143 192.048 584.143 192.459C584.143 192.871 584.233 193.323 584.343 193.464C584.452 193.604 584.648 194.265 584.777 194.931C585.26 197.43 585.544 198.587 585.842 199.281C586.012 199.674 586.15 200.296 586.15 200.664C586.15 201.031 586.3 201.679 586.483 202.104C586.666 202.527 586.816 203.133 586.817 203.45C586.818 203.766 586.968 204.372 587.152 204.796C587.335 205.221 587.485 205.88 587.486 206.263C587.487 206.646 587.562 207.049 587.654 207.161C587.811 207.35 587.931 207.849 588.632 211.223C588.786 211.963 588.973 212.63 589.048 212.703C589.122 212.777 589.309 213.444 589.463 214.184C590.164 217.558 590.284 218.057 590.44 218.246C590.533 218.357 590.609 218.761 590.612 219.143C590.614 219.693 590.661 219.755 590.834 219.435C591.05 219.038 590.935 217.829 590.606 217.02C590.514 216.793 590.323 216.063 590.182 215.396C589.942 214.247 589.765 213.51 588.934 210.21C588.74 209.434 588.473 208.253 588.342 207.587C588.212 206.92 588.028 206.255 587.933 206.106C587.838 205.957 587.691 205.322 587.605 204.694C587.519 204.065 587.368 203.49 587.271 203.418C587.173 203.345 587.026 202.741 586.943 202.077C586.86 201.411 586.698 200.797 586.583 200.711C586.467 200.624 586.373 200.246 586.373 199.87C586.373 199.495 586.23 198.805 586.057 198.338C585.884 197.871 585.694 197.126 585.636 196.682C585.579 196.238 585.429 195.511 585.303 195.066C585.176 194.622 584.925 193.591 584.744 192.777C584.562 191.963 584.254 190.599 584.061 189.746C582.985 185.036 582.597 183.214 582.381 181.871C582.286 181.278 582.084 180.249 581.933 179.582C581.781 178.916 581.522 177.705 581.357 176.89C580.741 173.851 580.32 171.871 580.012 170.562C579.838 169.822 579.67 168.983 579.635 168.699C579.521 167.746 579.033 167.948 578.6 169.127ZM198.744 183.03C198.367 183.881 198.414 184.849 198.814 184.448C199.064 184.196 199.151 184.232 199.234 184.616C199.291 184.885 199.347 184.679 199.359 184.161C199.392 182.863 199.075 182.283 198.744 183.03Z" fill="white"/>
<path d="M728.697 266.096C469.853 351.506 210.548 404.258 29.3672 278.688C18.9487 271.467 3.99976 278.605 3.99976 291.281V419.5C3.99976 427.784 10.7155 434.5 18.9997 434.5H733.5C741.784 434.5 748.5 427.784 748.5 419.5V280.367C748.5 270.112 738.435 262.883 728.697 266.096Z" fill="#7CCDE8"/>
<path d="M725.48 266.647C440.769 403.139 3.99978 127.963 3.99976 254.5V422C3.99976 430.285 10.7155 437 18.9997 437H733.5C741.784 437 748.5 430.285 748.5 422V280.507C748.5 268.954 735.898 261.653 725.48 266.647Z" fill="#5DB9D6"/>
<path d="M728.675 265.724C483.342 337.577 78.9452 274.356 10.6278 261.365C3.28651 259.969 3.99978 265.055 3.99978 272.528V419.5C3.99978 427.784 10.7155 434.5 18.9998 434.5H733.5C741.784 434.5 748.5 427.784 748.5 419.5V280.367C748.5 270.112 738.516 262.841 728.675 265.724Z" fill="#7CCDE8"/>
<path d="M746.437 261.644C396.117 401.584 102.991 327.687 24.5938 303.02C14.5214 299.851 4 307.401 4 317.96V420C4 428.284 10.7157 435 19 435H738C746.284 435 753 428.284 753 420V266C753 262.656 749.543 260.403 746.437 261.644Z" fill="#5DB9D6"/>
<path d="M741.357 293.129C662.41 311.673 241.119 382.748 25.7933 298.418C15.5255 294.397 3.99976 301.738 3.99976 312.765V422C3.99976 430.284 10.7155 437 18.9997 437H738C746.284 437 753 430.284 753 422V304C753 295.716 749.421 291.235 741.357 293.129Z" fill="#6DC4DF"/>
<path d="M17.9998 0.5H738C746.008 0.5 752.5 6.99187 752.5 15V425C752.5 433.008 746.008 439.5 738 439.5H17.9997C9.99161 439.5 3.49976 433.008 3.49976 425V15C3.49976 6.99188 9.99163 0.5 17.9998 0.5Z" stroke="white" stroke-opacity="0.25"/>
<circle cx="378" cy="220" r="66" fill="#18A0FB"/>
<path d="M402.5 216.902C404.5 218.057 404.5 220.943 402.5 222.098L367.25 242.45C365.25 243.604 362.75 242.161 362.75 239.852V199.148C362.75 196.839 365.25 195.396 367.25 196.55L402.5 216.902Z" fill="white"/>
</svg>
