<svg width="528" height="156" viewBox="0 0 528 156" fill="none" xmlns="http://www.w3.org/2000/svg">
<path fill-rule="evenodd" clip-rule="evenodd" d="M235.636 1.4234C235.463 1.54844 234.397 1.72923 233.267 1.82565C232.138 1.92207 231.164 2.09382 231.102 2.20832C231.04 2.32131 230.297 2.49155 229.451 2.58797C228.603 2.68289 227.861 2.85162 227.801 2.96462C227.74 3.0761 227.222 3.24484 226.65 3.33975C226.078 3.43316 225.512 3.59737 225.39 3.70133C225.269 3.80679 224.725 4.00716 224.18 4.14878C223.636 4.28889 222.844 4.5435 222.42 4.71525C221.102 5.24706 219.919 5.76231 219.197 6.11786C218.815 6.30618 218.441 6.46136 218.363 6.46136C218.093 6.46136 212.54 9.45039 212.3 9.72458C212.147 9.90085 211.396 10.4312 210.87 10.734C210.629 10.8741 210.134 11.2116 209.771 11.4843C209.408 11.7569 208.962 12.0583 208.781 12.1532C208.48 12.3129 205.959 14.3844 205.325 14.993C205.178 15.1347 204.978 15.2492 204.879 15.2492C204.78 15.2492 204.544 15.4465 204.356 15.6891C204.167 15.9301 203.649 16.4665 203.202 16.8808C202.756 17.2951 202.104 17.9459 201.753 18.3256C201.402 18.7052 201.063 19.0156 201.001 19.0156C200.863 19.0156 197.34 23.017 197.34 23.1737C197.34 23.234 197.167 23.4856 196.955 23.7326C196.744 23.9782 196.175 24.7345 195.69 25.411C195.206 26.0889 194.637 26.8467 194.426 27.0983C194.213 27.3484 194.04 27.6512 194.04 27.7733C194.04 27.8938 193.898 28.1288 193.722 28.2945C192.439 29.5103 187.83 38.6266 185.78 43.999C184.922 46.2513 184.8 46.6189 184.8 46.9729C184.8 47.1854 184.713 47.4219 184.605 47.4972C184.498 47.5726 184.341 48.0592 184.255 48.5789C184.171 49.0987 184.032 49.6366 183.946 49.7752C183.862 49.9123 183.612 50.7032 183.393 51.5318C183.174 52.3604 182.864 53.4904 182.704 54.0433C182.544 54.5962 182.345 55.5559 182.262 56.1781C182.179 56.7988 182.034 57.421 181.94 57.5581C181.846 57.6967 181.704 58.4304 181.622 59.1912C181.54 59.9505 181.382 60.8545 181.268 61.1995C180.579 63.2981 179.89 72.6373 179.898 79.78C179.907 88.9052 180.359 93.4987 182.156 102.755C182.291 103.447 182.447 104.265 182.505 104.577C182.57 104.929 182.77 105.142 183.039 105.142C183.277 105.142 183.845 105.297 184.301 105.485C185.096 105.815 186.012 106.042 189.641 106.806C198.044 108.576 218.058 108.759 215.625 107.041C215.517 106.966 215.365 106.592 215.287 106.211C215.209 105.83 215.007 105.179 214.84 104.765C214.067 102.867 213.84 102.131 213.84 101.539C213.84 101.188 213.751 100.839 213.64 100.76C213.529 100.682 213.368 100.143 213.282 99.5627C213.196 98.9811 213.044 98.3318 212.943 98.1194C212.647 97.4927 211.747 91.6065 211.425 88.1926C211.157 85.3482 211.159 72.0136 211.429 69.6106C211.961 64.8634 212.664 60.2714 212.952 59.6673C213.058 59.4458 213.213 58.7377 213.298 58.0944C213.382 57.4511 213.538 56.8636 213.646 56.7867C213.753 56.7114 213.84 56.4026 213.842 56.0997C213.843 55.7969 213.991 55.2259 214.172 54.8312C214.352 54.435 214.5 53.9197 214.5 53.6862C214.5 53.4512 214.645 53.0414 214.824 52.7732C215.001 52.5051 215.15 52.0892 215.154 51.8497C215.158 51.6102 215.443 50.7635 215.789 49.9665C216.134 49.171 216.655 47.9733 216.944 47.3074C217.798 45.3398 218.079 44.7598 218.245 44.6272C218.331 44.5579 218.471 44.2476 218.555 43.9372C218.64 43.6254 218.802 43.3723 218.916 43.3723C219.028 43.3723 219.12 43.2502 219.12 43.1011C219.12 42.3553 223.222 36.9588 225.307 34.9596C227.149 33.1954 230.732 30.5664 231.296 30.5664C231.45 30.5664 231.769 30.4007 232.004 30.1973C232.238 29.9939 232.628 29.8207 232.871 29.8131C233.112 29.8041 233.503 29.6309 233.738 29.4275C233.972 29.2256 234.399 29.0599 234.687 29.0599C234.974 29.0599 235.416 28.9333 235.668 28.7796C235.92 28.6245 236.73 28.4 237.468 28.278C238.206 28.1559 239.306 27.951 239.91 27.82C241.399 27.4991 244.459 27.4976 246.071 27.8185C246.797 27.9616 248.032 28.1906 248.815 28.3262C249.599 28.4603 250.337 28.6817 250.454 28.8158C250.572 28.9499 250.927 29.0599 251.243 29.0599C251.558 29.0599 252.008 29.2256 252.243 29.4275C252.478 29.6309 252.853 29.7996 253.076 29.8041C253.299 29.8086 253.745 29.9728 254.066 30.1672C254.388 30.363 255.047 30.7352 255.53 30.9928C259.577 33.1577 263.227 37.0627 267.464 43.7609C267.884 44.4268 270.12 49.4256 270.713 51.0301C270.866 51.4444 271.151 52.2113 271.346 52.7341C271.541 53.2568 271.7 53.8369 271.7 54.0237C271.7 54.2105 271.848 54.6866 272.029 55.0813C272.209 55.4775 272.361 56.0274 272.366 56.3031C272.372 56.5788 272.517 57.088 272.69 57.433C272.863 57.778 273.008 58.3581 273.012 58.7212C273.017 59.0842 273.169 59.7863 273.35 60.282C273.532 60.7776 273.68 61.5897 273.68 62.0868C273.68 62.584 273.78 63.2032 273.903 63.4638C274.024 63.7245 274.221 64.8755 274.339 66.0205C274.457 67.167 274.649 68.669 274.764 69.3605C275.028 70.9379 275.057 85.8544 274.798 87.126C274.554 88.3252 274.604 88.3478 276.32 87.8115C278.516 87.1245 279.856 86.7599 280.94 86.5505C283.193 86.1181 284.859 85.7912 286.001 85.5591C289.45 84.8556 298.32 84.5784 303.491 85.0123C306.391 85.2548 306.011 85.5652 306.25 82.7554C306.796 76.3133 306.049 64.8996 304.577 57.1814C304.379 56.1464 304.139 54.8463 304.043 54.2949C303.946 53.742 303.767 52.951 303.643 52.5367C303.52 52.1224 303.252 51.1055 303.047 50.2768C302.844 49.4482 302.538 48.3997 302.369 47.9462C302.198 47.4927 302.06 46.9443 302.06 46.7289C302.06 46.5134 301.924 46.0374 301.759 45.6698C301.166 44.3636 300.74 43.0966 300.74 42.6401C300.74 42.3855 300.592 42.0374 300.41 41.8657C300.229 41.6939 300.08 41.4062 300.08 41.2269C300.08 41.0476 299.937 40.5821 299.76 40.1904C299.585 39.8002 299.23 38.9716 298.97 38.3494C298.711 37.7287 298.165 36.5415 297.755 35.7129C297.346 34.8843 296.908 33.9803 296.783 33.7046C296.657 33.4289 296.359 32.8639 296.12 32.4496C295.881 32.0353 295.617 31.5261 295.534 31.3197C295.451 31.1118 295.325 30.8858 295.257 30.8165C294.957 30.5182 294.14 29.0569 294.14 28.8188C294.14 28.6742 294.047 28.5567 293.935 28.5567C293.822 28.5567 293.674 28.3593 293.605 28.1183C293.538 27.8757 293.159 27.2686 292.766 26.7669C292.372 26.2652 291.782 25.4742 291.455 25.0087C289.958 22.8844 289.513 22.3225 287.733 20.2962C286.69 19.109 285.353 17.6687 284.763 17.0962C284.173 16.5237 283.443 15.8021 283.14 15.4932C282.838 15.1844 282.082 14.5561 281.46 14.0966C280.838 13.6371 280.195 13.1098 280.03 12.9245C279.18 11.9694 272.58 7.83836 270.154 6.74309C269.734 6.55326 269.119 6.25194 268.788 6.07417C268.457 5.89489 267.888 5.67342 267.525 5.58303C267.162 5.49263 266.809 5.31335 266.739 5.1868C266.671 5.05874 266.429 4.95479 266.202 4.95479C265.975 4.95479 265.51 4.82221 265.17 4.6595C263.088 3.67119 257.974 2.31077 254.87 1.92056C253.781 1.78347 252.603 1.56351 252.252 1.42942C251.441 1.12208 236.061 1.11455 235.636 1.4234ZM3.52075 3.58984C3.52075 3.66818 3.61579 3.93635 3.73327 4.18493C3.84943 4.43352 4.04347 5.24556 4.16491 5.9883C4.28503 6.73254 4.54375 8.07338 4.73911 8.9713C4.93447 9.86921 5.19451 11.1694 5.31727 11.8594C5.44003 12.5494 5.59843 13.2846 5.67103 13.491C5.74231 13.6989 5.92447 14.4899 6.07495 15.2492C6.65311 18.1568 7.52299 22.3843 8.03911 24.7903C8.23183 25.6882 8.48131 26.913 8.59219 27.5126C8.70307 28.1107 8.89051 29.0147 9.00667 29.5209C9.12415 30.0271 9.53203 31.966 9.91483 33.8297C10.2963 35.6948 10.7464 37.7497 10.9141 38.3976C11.083 39.0439 11.2203 39.8032 11.2203 40.0834C11.2203 40.3636 11.3536 41.0762 11.516 41.6683C11.6784 42.2604 11.9859 43.648 12.1998 44.7523C12.4136 45.8581 12.7159 47.327 12.8716 48.017C13.0274 48.707 13.3257 50.1759 13.5356 51.2817C13.7455 52.386 14.0464 53.8549 14.2048 54.545C14.3619 55.2365 14.6365 56.4794 14.8147 57.308C14.9916 58.1366 15.2595 59.3795 15.41 60.0695C15.5592 60.7595 15.7479 61.8337 15.8284 62.4544C15.909 63.0766 16.0938 63.8314 16.2376 64.1327C16.3828 64.4356 16.5003 65.0141 16.5003 65.4209C16.5003 65.8276 16.6482 66.5658 16.8303 67.0615C17.0125 67.5572 17.163 68.2773 17.1669 68.6615C17.1709 69.0457 17.353 69.9481 17.5708 70.6667L17.9668 71.9744L19.1588 71.2377C20.694 70.2871 32.2123 63.7561 34.1553 62.7347C34.9724 62.3038 36.3082 61.6032 37.1253 61.1769C37.9424 60.749 39.2043 60.0876 39.9303 59.7064C40.6563 59.3253 41.8681 58.7422 42.6244 58.4108C43.4772 58.0372 43.959 57.6922 43.8969 57.4993C43.8415 57.3276 43.7332 56.5939 43.6567 55.8662C43.5788 55.14 43.3768 53.9875 43.2079 53.3066C43.0389 52.6256 42.899 51.6659 42.8964 51.1733C42.895 50.6806 42.7512 49.8249 42.5769 49.272C42.4027 48.7206 42.2548 47.8166 42.2482 47.2637C42.2403 46.7108 42.0885 45.7044 41.9077 45.0265C41.7282 44.3485 41.5803 43.3527 41.5803 42.8133C41.5803 42.274 41.48 41.6186 41.3586 41.358C41.2358 41.0973 41.0734 40.1723 40.9982 39.303C40.9216 38.4337 40.7844 37.6096 40.692 37.471C40.5996 37.3324 40.4517 36.4285 40.3633 35.4628C40.2748 34.4956 40.1098 33.4229 39.9963 33.0779C39.8828 32.7344 39.7046 31.7732 39.6003 30.9446C39.3126 28.6546 38.7753 25.2874 38.5192 24.1635C38.3938 23.6106 38.2882 22.7534 38.2856 22.2592C38.283 21.7636 38.2064 21.2754 38.1153 21.173C38.0242 21.069 37.8355 20.1184 37.6942 19.0593C37.4395 17.1459 37.062 14.7098 36.4218 10.8545C36.2383 9.75019 35.9822 8.11255 35.8542 7.21464C35.7261 6.31673 35.5057 5.10243 35.3631 4.51487L35.1044 3.44822H19.3119C10.6263 3.44822 3.52075 3.5115 3.52075 3.58984ZM73.2603 4.24218C73.2603 4.67909 73.1204 5.61015 72.9488 6.31371C72.6082 7.70729 72.199 9.95961 71.9628 11.7343C71.8809 12.3566 71.7436 12.9938 71.6592 13.1505C71.5747 13.3057 71.4057 14.1524 71.283 15.0322C71.1615 15.9105 70.912 17.4216 70.7299 18.3873C70.5477 19.3546 70.2969 20.7662 70.1702 21.527C70.0448 22.2863 69.8019 23.6422 69.629 24.5402C69.4574 25.4366 69.1551 27.0757 68.9584 28.18C68.7618 29.2859 68.4978 30.6418 68.3737 31.1932C68.2496 31.7461 68.0635 32.763 67.9605 33.453C67.7638 34.7652 67.3995 36.8443 66.7712 40.2326C66.5666 41.3384 66.3066 42.8359 66.1957 43.5636C66.0848 44.2898 65.8459 45.5282 65.6664 46.3146C65.4868 47.1025 65.3403 47.9974 65.3403 48.3048V48.8622L66.6049 48.4087C69.0376 47.5364 70.3326 47.1387 70.7299 47.1387C70.9516 47.1387 71.6354 46.976 72.2505 46.7771C72.867 46.5782 74.1619 46.2483 75.1308 46.0434C76.0983 45.8385 77.4843 45.5447 78.2103 45.3926C80.0002 45.0159 85.7396 44.5549 86.6253 44.7161C87.2721 44.8336 87.3408 44.7869 87.3408 44.2189C87.3408 43.8724 87.4503 43.3557 87.5836 43.0709C87.8925 42.4111 88.212 42.8826 88.2172 44.0065L88.2199 44.7688L89.8158 44.8261C92.032 44.9059 95.233 45.727 97.6896 46.8449C100.083 47.9341 100.867 48.3168 102.41 49.1454C103.379 49.6652 104.319 50.1623 104.501 50.2497C104.682 50.3386 105.425 50.7861 106.151 51.2441C106.877 51.7021 108.065 52.4463 108.791 52.8968C110.746 54.1126 112.698 55.4534 113.136 55.8813C113.794 56.5231 113.791 56.4764 112.727 50.4019C112.546 49.3669 112.322 47.898 112.228 47.1387C112.136 46.3779 111.951 45.3052 111.819 44.7523C111.686 44.2009 111.41 42.619 111.204 41.2374C110.998 39.8559 110.693 38.0676 110.525 37.2631C110.358 36.4571 110.22 35.5697 110.22 35.2895C110.22 35.0093 110.076 34.03 109.9 33.1125C109.724 32.195 109.467 30.7668 109.328 29.9382C108.834 26.9733 108.421 24.4016 108.321 23.6603C108.265 23.246 108.082 22.1733 107.914 21.2754C107.502 19.0653 107.126 16.8627 106.93 15.5008C106.647 13.5362 105.69 7.92273 105.208 5.3932L104.837 3.44822H89.0488H73.2603V4.24218ZM141.478 4.01319C141.297 4.54651 141.074 5.86024 140.575 9.34794C140.456 10.1766 140.269 11.1377 140.157 11.4827C140.046 11.8277 139.891 12.7287 139.813 13.485C139.736 14.2413 139.593 14.9765 139.497 15.1181C139.4 15.2582 139.258 16.0974 139.181 16.9817C139.103 17.8646 138.954 18.7128 138.848 18.8649C138.744 19.0171 138.587 19.8743 138.503 20.7707C138.417 21.6671 138.268 22.5138 138.173 22.6539C138.078 22.7941 137.944 23.6272 137.878 24.5055C137.812 25.3853 137.65 26.2275 137.519 26.3767C137.387 26.5258 137.28 27.0878 137.28 27.6241C137.28 28.162 137.138 29.2964 136.964 30.1476C136.789 30.9988 136.499 32.543 136.317 33.5796C136.136 34.6146 135.876 36.0277 135.739 36.7177C135.603 37.4078 135.403 38.6778 135.295 39.5411C135.187 40.4028 134.995 41.3278 134.869 41.596C134.743 41.8642 134.636 42.515 134.631 43.0408C134.626 43.5681 134.478 44.451 134.304 45.0039C134.129 45.5568 133.982 46.4035 133.974 46.8871C133.967 47.3707 133.818 48.2174 133.644 48.7703C133.469 49.3232 133.327 50.0569 133.326 50.4019C133.324 50.7484 133.178 51.7638 133.001 52.6617C132.697 54.1909 132.503 55.2651 131.653 60.1313C131.467 61.2025 131.171 62.7753 130.997 63.6265C130.823 64.4777 130.68 65.4781 130.68 65.8502C130.68 66.2209 130.525 67.2107 130.334 68.0483C130.051 69.2988 130.041 69.6046 130.279 69.7568C130.44 69.8592 130.818 70.1937 131.12 70.4995C131.585 70.968 135.993 74.852 138.522 77.0184C138.925 77.3634 140.963 79.1246 143.053 80.9325C146.718 84.1053 148.644 85.6842 151.085 87.5207C151.721 87.9983 152.249 88.515 152.26 88.6672C152.283 89.0273 153.242 84.9294 153.782 82.1664C153.916 81.4748 154.113 80.6839 154.22 80.4082C154.402 79.9396 154.522 79.3852 155.11 76.3284C155.235 75.6715 155.433 74.9394 155.549 74.6998C155.665 74.4588 155.76 74.0068 155.759 73.6949C155.759 73.3816 155.898 72.6177 156.069 71.997C156.614 70.0099 157.42 66.5252 157.751 64.7143C157.864 64.0936 158.051 63.3584 158.164 63.0827C158.278 62.807 158.432 62.0462 158.509 61.3938C158.584 60.7415 158.74 60.1403 158.853 60.0605C158.967 59.9806 159.06 59.5543 159.062 59.1129C159.063 58.6729 159.211 57.989 159.392 57.5927C159.572 57.1965 159.72 56.5758 159.719 56.2112C159.719 55.8481 159.856 55.0406 160.025 54.4199C160.194 53.7977 160.493 52.71 160.687 52.0004C160.881 51.2923 161.04 50.5013 161.039 50.2437C161.039 49.9861 161.178 49.2659 161.349 48.6452C161.927 46.5375 162.756 42.9323 162.994 41.489C163.085 40.9361 163.276 40.2371 163.42 39.9358C163.563 39.6345 163.68 39.0846 163.68 38.7139C163.68 38.3433 163.84 37.4605 164.034 36.7509C164.228 36.0428 164.526 34.9536 164.695 34.3329C164.864 33.7106 165.002 32.9769 165 32.6997C164.999 32.424 165.136 31.6888 165.305 31.0681C165.474 30.4459 165.773 29.3582 165.967 28.6486C166.161 27.9405 166.32 27.1224 166.32 26.8332C166.32 26.5439 166.458 25.881 166.627 25.3612C166.794 24.84 167.144 23.3967 167.404 22.1538C167.663 20.9108 168.03 19.2732 168.218 18.5139C168.407 17.7531 168.688 16.5117 168.845 15.7509C169.193 14.062 170.2 9.55133 170.612 7.84137C170.778 7.15137 171.016 6.13443 171.14 5.58152C171.264 5.03012 171.425 4.32354 171.497 4.01319L171.629 3.44822H156.65H141.671L141.478 4.01319ZM310.86 17.5075V31.5668L328.406 31.6316L345.95 31.6964L346.007 67.3553L346.062 103.016L347.216 103.832C347.851 104.281 349.262 105.377 350.351 106.268C351.44 107.159 352.872 108.314 353.533 108.837C354.195 109.358 356.522 111.306 358.704 113.165C362.144 116.096 368.217 121.101 369.462 122.033C369.687 122.202 370.231 122.63 370.671 122.981C371.11 123.333 372.114 124.061 372.9 124.597C373.687 125.135 374.38 125.64 374.441 125.721C374.694 126.06 375.761 126.731 375.762 126.553C375.762 126.446 375.762 105.223 375.761 79.3913C375.758 42.1052 375.815 32.3351 376.034 31.9962C376.289 31.6029 377.652 31.5653 394.02 31.508L411.731 31.4448L411.788 17.4457L411.844 3.44822H361.352H310.86V17.5075ZM444.345 4.51789C444.134 5.10695 443.957 5.81203 443.952 6.08622C443.948 6.36192 443.803 6.86964 443.63 7.21464C443.457 7.55964 443.312 8.08393 443.308 8.37771C443.304 8.673 443.152 9.23796 442.971 9.63419C442.79 10.0289 442.643 10.5457 442.641 10.7807C442.641 11.0157 442.549 11.4677 442.438 11.7841C442.326 12.1019 442.013 13.2093 441.742 14.2443C441.47 15.2808 441.027 16.9184 440.755 17.8857C440.484 18.8529 440.046 20.4905 439.782 21.527C439.518 22.562 439.171 23.8622 439.011 24.4136C438.852 24.9665 438.553 26.0964 438.349 26.9251C438.144 27.7537 437.751 29.2226 437.473 30.1898C436.519 33.5283 436.04 35.4236 436.04 35.8665C436.04 36.1106 435.95 36.3758 435.839 36.4526C435.728 36.5309 435.571 37.0462 435.491 37.5961C435.409 38.1475 435.264 38.6537 435.166 38.7215C435.07 38.7908 434.924 39.3527 434.843 39.9734C434.762 40.5926 434.601 41.1666 434.488 41.2465C434.374 41.3263 434.28 41.697 434.279 42.0691C434.278 42.4397 434.13 43.0679 433.949 43.4626C433.768 43.8589 433.62 44.3666 433.619 44.5926C433.618 44.8186 433.47 45.3278 433.289 45.7225C433.108 46.1187 432.96 46.6837 432.959 46.979C432.958 47.2728 432.81 47.8377 432.629 48.2339C432.448 48.6302 432.3 49.1951 432.299 49.4889C432.298 49.7842 432.15 50.3492 431.969 50.7454C431.788 51.1401 431.64 51.6493 431.639 51.8753C431.638 52.1013 431.49 52.609 431.309 53.0052C431.128 53.4 430.98 53.9649 430.979 54.2602C430.978 54.5555 430.83 55.1205 430.649 55.5152C430.468 55.9114 430.32 56.5125 430.32 56.85C430.32 57.189 430.213 57.6937 430.084 57.9709C429.854 58.459 429.445 59.9822 428.979 62.0778C428.855 62.6307 428.662 63.1896 428.548 63.3207C428.434 63.4518 428.336 63.848 428.332 64.2005C428.328 64.5516 428.183 65.1226 428.01 65.4676C427.837 65.8141 427.692 66.3851 427.688 66.7376C427.684 67.0916 427.535 67.6009 427.357 67.8675C427.18 68.1357 427.031 68.663 427.027 69.0381C427.023 69.4133 426.883 70.0912 426.717 70.5447C426.422 71.3432 426.177 72.223 425.368 75.3868C425.155 76.2154 424.859 77.2881 424.71 77.7717C424.561 78.2553 424.271 79.328 424.066 80.1566C423.86 80.9852 423.59 82.0021 423.464 82.4164C423.339 82.8307 423.188 83.453 423.132 83.798C423.074 84.143 422.944 84.6522 422.843 84.9279C422.742 85.2036 422.439 86.2778 422.169 87.3128C421.899 88.3493 421.554 89.648 421.402 90.2009C421.251 90.7538 420.952 91.8837 420.74 92.7123C420.526 93.5409 420.218 94.5744 420.056 95.0098C419.894 95.4452 419.76 96.0388 419.76 96.3311C419.76 96.6234 419.672 97.0573 419.565 97.2983C419.457 97.5379 419.151 98.5819 418.885 99.6169C418.619 100.653 418.318 101.726 418.213 102.002C418.11 102.279 417.959 102.897 417.875 103.376C417.792 103.853 417.65 104.418 417.56 104.631C417.469 104.842 417.223 105.693 417.015 106.522C416.805 107.35 416.505 108.48 416.348 109.033C416.191 109.586 415.891 110.716 415.684 111.544C415.159 113.646 414.467 116.219 414.269 116.817C414.177 117.093 413.927 117.997 413.715 118.826C413.502 119.654 413.246 120.643 413.146 121.022C412.976 121.669 413.203 121.994 413.473 121.494C413.539 121.373 414.311 120.789 415.192 120.197C416.071 119.603 416.839 119.047 416.9 118.958C416.961 118.871 417.407 118.529 417.89 118.2C418.374 117.87 424.464 113.291 431.42 108.022C448.804 94.8577 453.241 91.5402 454.52 90.7508C455.927 89.883 455.792 89.8242 452.379 89.8242C448.638 89.8242 448.441 89.7158 449.084 88.0103C449.415 87.1335 449.793 85.6224 450.131 83.8251C450.246 83.2179 450.425 82.5972 450.532 82.4436C450.638 82.2914 450.792 81.6315 450.875 80.9792C450.959 80.3268 451.12 79.7257 451.233 79.6459C451.347 79.566 451.44 79.2527 451.439 78.9498C451.439 78.647 451.576 77.8907 451.745 77.27C451.914 76.6478 452.213 75.5601 452.407 74.8505C452.601 74.1409 452.76 73.3499 452.762 73.0923C452.763 72.8347 452.911 72.3013 453.092 71.9051C453.273 71.5089 453.42 70.9198 453.42 70.5959C453.42 70.2705 453.558 69.6332 453.725 69.1797C454.045 68.3165 454.401 66.8611 454.754 64.9764C454.87 64.3602 455.062 63.7441 455.183 63.6085C455.303 63.4714 455.4 63.0314 455.4 62.6307C455.4 62.23 455.54 61.5475 455.712 61.1121C455.883 60.6767 456.07 59.9822 456.126 59.5678C456.183 59.1535 456.335 58.4756 456.462 58.0613C456.678 57.3592 456.904 56.386 457.742 52.5367C457.922 51.7081 458.211 50.4546 458.385 49.7526C458.558 49.0505 458.7 48.2596 458.699 47.9944C458.699 47.7308 458.839 47.0061 459.011 46.3854C459.183 45.7632 459.487 44.3515 459.686 43.2457C459.886 42.1414 460.191 40.6619 460.365 39.9599C460.538 39.2578 460.68 38.4307 460.68 38.1234C460.68 37.816 460.819 37.0356 460.988 36.3878C461.157 35.7415 461.464 34.3072 461.672 33.2029C462.287 29.905 463.277 28.0053 463.491 29.7077C463.525 29.9728 463.691 30.7548 463.863 31.4448C464.153 32.6124 464.362 33.5404 465.174 37.2827C465.347 38.0767 465.609 39.2352 465.758 39.8559C465.908 40.4781 466.107 41.4378 466.201 41.9907C466.414 43.2427 466.797 44.9421 467.858 49.3337C468.05 50.1292 468.354 51.4007 468.533 52.1601C468.711 52.9194 468.959 53.8806 469.085 54.2949C469.209 54.7092 469.357 55.3871 469.413 55.8014C469.47 56.2157 469.658 56.9103 469.829 57.3457C470 57.7811 470.141 58.4244 470.141 58.7739C470.141 59.1249 470.233 59.4775 470.348 59.5588C470.462 59.6387 470.621 60.2112 470.703 60.8319C470.785 61.4511 470.93 62.0145 471.027 62.0823C471.123 62.1501 471.272 62.6864 471.357 63.2725C471.441 63.8585 471.586 64.4506 471.68 64.5892C471.774 64.7278 471.956 65.3485 472.084 65.9708C472.3 67.0073 472.485 67.744 473.35 70.9921C473.515 71.6144 473.763 72.6298 473.9 73.252C474.039 73.8742 474.233 74.5657 474.332 74.7902C474.429 75.0147 474.579 75.6113 474.66 76.1145C474.773 76.7969 474.88 76.9672 475.08 76.7774C475.687 76.2019 485.045 70.7737 488.07 69.2415C493.2 66.6427 498.072 64.4988 499.335 64.2819C500.111 64.1478 500.155 63.4367 499.479 61.903C499.314 61.5294 499.181 61.0458 499.181 60.8258C499.181 60.3889 497.985 56.044 497.502 54.7257C497.337 54.2723 497.201 53.6817 497.201 53.415C497.201 53.1484 497.065 52.5593 496.901 52.1058C496.426 50.8011 495.881 48.7462 495.873 48.2339C495.869 47.9763 495.721 47.547 495.543 47.2788C495.366 47.0106 495.217 46.4456 495.213 46.0223C495.209 45.6005 495.061 45.0355 494.883 44.7673C494.706 44.4992 494.561 43.9689 494.561 43.5892C494.561 43.2095 494.468 42.8344 494.358 42.7561C494.245 42.6777 494.088 42.2468 494.006 41.7994C493.82 40.7719 493.254 38.717 492.872 37.6835C492.711 37.2496 492.581 36.668 492.581 36.3953C492.581 36.1211 492.433 35.5728 492.252 35.1765C492.071 34.7818 491.922 34.1475 491.922 33.7679C491.921 33.3882 491.826 33.0764 491.711 33.0764C491.595 33.0764 491.44 32.653 491.368 32.1348C491.295 31.618 491.15 31.0094 491.043 30.7849C490.937 30.5604 490.78 29.9502 490.695 29.4275C490.609 28.9062 490.404 28.1861 490.24 27.8275C490.077 27.4689 489.942 27.0215 489.942 26.8332C489.941 26.4384 489.343 24.2856 488.913 23.121C488.751 22.6856 488.621 22.0423 488.621 21.6912C488.621 21.3402 488.528 20.9892 488.418 20.9108C488.305 20.8325 488.148 20.4016 488.066 19.9542C487.92 19.1421 487.38 17.0781 487.066 16.1275C486.975 15.8518 486.738 15.0036 486.542 14.2443C485.591 10.5743 485.251 9.30726 485.088 8.84625C484.991 8.57055 484.699 7.49637 484.44 6.46136C484.182 5.42484 483.861 4.32354 483.728 4.01319L483.486 3.44822H464.108L444.731 3.44973L444.345 4.51789Z" fill="#FAFAFA" fill-opacity="0.65"/>
<path fill-rule="evenodd" clip-rule="evenodd" d="M82.0606 44.8726C80.9109 44.966 79.2767 45.1814 78.4306 45.3532C74.9867 46.0477 73.3143 46.4334 72.2504 46.7769C71.6353 46.9757 70.9357 47.1384 70.6954 47.1384C70.4552 47.1384 69.8203 47.2951 69.2843 47.4865C68.7484 47.6778 67.6924 48.0333 66.9387 48.2774C65.2451 48.8258 65.0234 49.109 64.6828 51.1549C64.2842 53.5459 63.8921 55.7891 63.4737 58.061C63.2704 59.1654 62.9708 60.803 62.8097 61.7009C62.6474 62.5988 62.357 64.2093 62.1643 65.279C61.9715 66.3487 61.6587 68.1008 61.4699 69.1705C61.2812 70.2416 60.9815 71.9079 60.8047 72.8751C60.2093 76.1278 59.8265 78.3892 59.5982 80.0163C59.4728 80.9066 59.2787 81.8317 59.1652 82.0712C59.053 82.3123 58.9606 82.8772 58.9606 83.3247C58.9606 83.7736 58.822 84.771 58.653 85.5393C58.3336 86.9856 58.0802 88.4334 57.5033 92.0839C57.3185 93.2575 57.0228 95.0654 56.846 96.1019C56.6691 97.1369 56.4302 98.7188 56.314 99.6167C56.1992 100.515 56.0038 101.577 55.8824 101.977C55.7596 102.377 55.6606 103.112 55.6606 103.611C55.6606 104.109 55.5563 104.911 55.4296 105.393C55.3029 105.876 55.1154 107.005 55.0112 107.903C54.5584 111.818 53.7453 116.667 53.4522 117.207C53.1592 117.75 52.8002 117.185 52.8002 116.181C52.8002 115.641 52.6576 114.377 52.4847 113.372C52.3118 112.367 52.0108 110.414 51.8168 109.033C51.6214 107.651 51.3178 105.504 51.1383 104.261C50.9601 103.019 50.6644 100.929 50.4796 99.6167C50.2961 98.3045 50.0427 96.6096 49.9173 95.8503C49.7906 95.091 49.6071 93.7351 49.5081 92.8371C49.4078 91.9392 49.2626 91.0262 49.1847 90.8078C49.1055 90.5893 48.9497 89.6282 48.8375 88.673C48.6039 86.6828 48.1247 83.3578 47.7551 81.1612C47.4436 79.3082 46.9908 76.402 46.5249 73.2518C46.3308 71.9395 46.0642 70.3576 45.9322 69.7369C45.8002 69.1147 45.622 67.9848 45.5349 67.2255C45.3646 65.7325 45.0465 63.7981 44.5409 61.1631C44.364 60.2456 44.2202 59.1443 44.2202 58.7149C44.2202 57.469 43.9878 57.5518 36.6302 61.4448C35.6626 61.957 34.1288 62.76 33.2246 63.2316C31.8504 63.9457 20.4628 70.4375 18.4049 71.6789C17.9284 71.9667 17.8083 72.1836 17.902 72.5919C18.3851 74.6935 19.2484 78.9406 19.5929 80.9096C19.7381 81.7383 19.9454 82.6422 20.0536 82.9194C20.1632 83.1951 20.3453 83.9861 20.4588 84.6761C20.8575 87.1031 21.1756 88.6986 21.3591 89.1958C21.462 89.473 21.6416 90.2639 21.7604 90.9539C21.8792 91.6439 22.1207 92.8869 22.2989 93.7155C22.889 96.471 23.3576 98.7233 23.6295 100.118C23.7786 100.878 23.9634 101.669 24.04 101.877C24.1179 102.083 24.2789 102.818 24.399 103.508C24.7092 105.301 25.3349 108.394 26.3025 112.924C26.4635 113.684 26.7605 115.097 26.9625 116.064C27.1631 117.03 27.4707 118.498 27.6476 119.327C27.8231 120.156 28.0634 121.442 28.1808 122.185C28.2983 122.928 28.491 123.74 28.6072 123.988C28.7247 124.239 28.8197 124.694 28.8197 125.001C28.8197 125.31 28.9649 126.135 29.1405 126.839C29.452 128.08 30.0658 130.956 31.4465 137.658C31.8161 139.453 32.2319 141.43 32.3692 142.052C32.5052 142.673 32.7005 143.634 32.7995 144.185C32.8998 144.738 33.1242 145.868 33.2985 146.697C33.4714 147.526 33.7314 148.768 33.8753 149.458C34.0192 150.15 34.307 151.393 34.5155 152.221L34.8957 153.728L50.8862 153.791C68.7365 153.864 67.7597 153.959 67.7597 152.157C67.7597 151.776 67.8653 151.069 67.9934 150.587C68.1227 150.105 68.3141 149.145 68.4184 148.455C68.524 147.764 68.7088 146.747 68.8303 146.195C68.9517 145.642 69.1629 144.681 69.3002 144.06C69.4375 143.438 69.6328 142.343 69.7345 141.626C69.8361 140.909 69.9734 140.22 70.0407 140.097C70.108 139.973 70.2598 139.261 70.3786 138.513C70.5793 137.251 70.9687 135.202 71.8319 130.878C72.0247 129.911 72.2359 128.725 72.3005 128.241C72.3639 127.758 72.5091 127.078 72.6239 126.732C72.7375 126.385 72.9223 125.537 73.0358 124.849C73.4437 122.366 74.3386 117.686 75.59 111.482C75.7774 110.548 76.0691 108.995 76.2381 108.028C76.4071 107.062 76.6988 105.536 76.8862 104.638C77.075 103.74 77.3324 102.384 77.4578 101.625C77.5845 100.866 77.7746 99.906 77.8802 99.4916C77.9845 99.0773 78.1877 98.1162 78.329 97.3568C78.4702 96.5975 78.7289 95.2416 78.9019 94.3437C79.0761 93.4458 79.3573 91.9769 79.5262 91.079C79.6952 90.1811 79.9922 88.6564 80.1862 87.6892C80.3803 86.7235 80.639 85.3103 80.7604 84.551C80.8832 83.7917 81.0772 83.0625 81.1921 82.9315C81.3069 82.8004 81.4006 82.2761 81.4006 81.7669C81.4006 81.2592 81.5419 80.292 81.7135 79.62C82.0276 78.3997 82.3273 76.7063 82.7325 73.886C82.8513 73.0604 83.0387 72.0435 83.1496 71.6262C83.2605 71.2074 83.4664 70.1317 83.605 69.2337C83.7436 68.3358 83.9997 66.6982 84.1739 65.5939C84.3495 64.4881 84.5805 62.8504 84.6887 61.9525C84.797 61.0546 84.9923 60.003 85.123 59.6128C85.2537 59.2241 85.3606 58.5492 85.3606 58.1123C85.3606 57.6754 85.5032 56.4686 85.6787 55.4291C85.8543 54.391 86.1566 52.4114 86.3506 51.0299C86.546 49.6484 86.8087 47.8134 86.9367 46.9501C87.3129 44.395 87.4211 44.4402 82.0606 44.8726ZM88.3517 45.0292C88.2963 45.1935 88.3834 46.3851 88.5445 47.6778C88.7055 48.9689 89.0012 51.5512 89.2005 53.4148C89.4011 55.2799 89.6665 57.5398 89.7919 58.4377C90.275 61.8877 90.6802 65.1615 90.8373 66.8624C90.9284 67.8372 91.0775 68.7742 91.1699 68.9445C91.2623 69.1162 91.4234 70.0699 91.5276 71.0657C91.7692 73.3723 92.1019 75.5161 93.5169 83.9228C93.7717 85.4429 94.0594 87.3231 94.1545 88.1035C94.2495 88.8839 94.3921 89.6417 94.4713 89.7894C94.5505 89.9355 94.7062 90.7656 94.8184 91.6349C95.1128 93.9309 95.4771 96.1169 95.7068 96.9802C95.8176 97.3945 96.0117 98.4672 96.1371 99.3651C96.2638 100.263 96.508 101.789 96.6796 102.755C97.1178 105.218 97.5983 108.014 97.8874 109.786C98.0234 110.615 98.2755 112.026 98.4471 112.924C98.6187 113.822 98.8048 114.896 98.8602 115.311C98.917 115.725 99.1282 116.968 99.3302 118.072C99.6734 119.952 99.9691 121.718 100.546 125.353C100.678 126.182 100.877 127.202 100.989 127.619C101.102 128.038 101.29 129.055 101.409 129.879C101.529 130.705 101.779 132.255 101.966 133.326C102.296 135.211 102.595 136.928 103.297 140.984C103.483 142.055 103.72 143.495 103.826 144.185C103.93 144.877 104.235 146.628 104.503 148.078C104.77 149.528 105.081 151.331 105.195 152.086C105.308 152.841 105.454 153.519 105.518 153.592C105.583 153.666 112.802 153.758 121.559 153.796L137.481 153.862L137.74 153.311C137.978 152.8 138.134 152.131 138.817 148.705C138.954 148.015 139.152 147.224 139.258 146.949C139.363 146.671 139.512 145.912 139.588 145.26C139.664 144.606 139.819 144.006 139.933 143.926C140.047 143.845 140.141 143.517 140.141 143.196C140.141 142.875 140.294 142.005 140.482 141.264C141.322 137.962 141.796 135.886 142.136 134.016C142.249 133.395 142.408 132.717 142.489 132.51C142.674 132.038 143.169 129.762 143.439 128.138C143.553 127.458 143.748 126.786 143.872 126.643C143.998 126.5 144.101 126.105 144.101 125.765C144.101 125.426 144.255 124.516 144.446 123.744C145.05 121.292 145.388 119.862 145.64 118.7C145.773 118.078 146.033 116.948 146.215 116.189C146.399 115.43 146.623 114.355 146.716 113.804C146.807 113.251 146.993 112.403 147.127 111.921C147.262 111.437 147.533 110.307 147.731 109.409C148.072 107.852 148.198 107.296 149.022 103.696C149.218 102.833 149.54 101.422 149.736 100.558C149.931 99.695 150.228 98.4883 150.396 97.8766C150.563 97.2649 150.701 96.4951 150.701 96.1651C150.701 95.8352 150.802 95.3486 150.926 95.0834C151.05 94.8183 151.243 94.1207 151.355 93.5317C151.466 92.9426 151.708 91.7253 151.891 90.8289C152.366 88.5043 152.36 88.4801 151.085 87.5205C148.644 85.684 146.718 84.1051 143.053 80.9322C140.963 79.1244 138.925 77.3632 138.522 77.0182C135.91 74.7809 131.565 70.9482 131.01 70.3953C130.647 70.0337 130.297 69.7369 130.233 69.7369C130.087 69.7369 129.351 73.4341 129.358 74.1301C129.359 74.4073 129.222 75.367 129.05 76.2649C128.878 77.1628 128.577 78.9707 128.382 80.2829C128.185 81.5951 127.933 83.1755 127.821 83.7977C127.569 85.1853 126.978 89.14 126.7 91.2974C126.587 92.1758 126.451 92.9757 126.398 93.0737C126.345 93.1701 126.203 94.0906 126.081 95.1151C125.96 96.141 125.7 98.0529 125.503 99.3651C125.308 100.677 125.011 102.768 124.844 104.011C124.678 105.254 124.382 107.401 124.187 108.781C123.992 110.163 123.699 112.516 123.535 114.012C123.259 116.543 123.118 117.183 122.888 116.921C122.726 116.736 121.909 111.63 121.546 108.531C121.352 106.874 121.051 104.557 120.877 103.383C120.702 102.209 120.56 100.817 120.56 100.29C120.56 99.7643 120.466 99.1316 120.35 98.8845C120.235 98.6374 120.034 97.4307 119.906 96.2013C119.778 94.9719 119.529 92.9501 119.352 91.7072C119.175 90.4643 118.893 88.3672 118.724 87.0489C118.556 85.7292 118.357 84.4305 118.284 84.1608C118.21 83.8927 118.04 82.8817 117.904 81.9145C117.628 79.9394 117.203 77.1161 116.729 74.1301C116.09 70.0985 115.699 67.569 115.488 66.1016C115.369 65.276 115.182 64.2591 115.072 63.8417C114.962 63.4244 114.651 61.6708 114.383 59.9443C113.764 55.9684 113.82 56.0377 108.791 52.8995C108.065 52.4476 106.877 51.7018 106.151 51.2438C105.425 50.7858 104.681 50.3384 104.501 50.2495C104.318 50.1621 103.379 49.6649 102.41 49.1452C100.867 48.3166 100.083 47.9339 97.6894 46.8447C94.3617 45.3306 88.6263 44.2157 88.3517 45.0292ZM498.3 64.589C497.998 64.7864 497.623 64.9521 497.467 64.9566C497.121 64.9671 492.153 67.1758 489.83 68.3494C489.467 68.5332 488.675 68.9339 488.07 69.2413C485.013 70.7885 475.534 76.2905 475.125 76.7545C474.935 76.9685 475.322 79.5583 475.649 80.2679C475.749 80.4833 475.929 81.1115 476.049 81.6629C476.271 82.6799 476.664 84.2181 477.319 86.6225C477.517 87.3472 477.69 88.3355 477.704 88.8191L477.731 89.699L466.777 89.7637L455.825 89.8285L454.957 90.4537C454.48 90.7988 454.051 91.079 454.006 91.079C453.96 91.079 452.992 91.775 451.856 92.6247C450.719 93.4744 448.651 95.0202 447.26 96.0597C445.868 97.0992 438.89 102.371 431.75 107.775C424.611 113.179 418.374 117.87 417.89 118.2C417.407 118.529 416.96 118.871 416.9 118.958C416.839 119.047 416.097 119.591 415.25 120.166C412.949 121.733 412.82 121.899 412.294 123.973C412.032 125.008 411.723 126.052 411.609 126.292C411.494 126.532 411.401 126.952 411.401 127.225C411.401 127.499 411.263 128.094 411.097 128.547C410.931 129.001 410.623 130.049 410.413 130.878C410.205 131.707 409.904 132.836 409.744 133.389C409.584 133.941 409.389 134.759 409.31 135.206C409.231 135.654 409.075 136.085 408.964 136.163C408.852 136.241 408.761 136.592 408.761 136.943C408.761 137.294 408.621 137.938 408.45 138.373C408.28 138.809 408.091 139.447 408.032 139.792C407.974 140.137 407.817 140.758 407.686 141.172C407.554 141.587 407.138 143.113 406.762 144.562C405.954 147.676 405.648 148.817 404.938 151.342C404.162 154.108 402.681 153.865 419.932 153.791L435.006 153.728L435.323 152.723C435.678 151.601 436.177 149.522 436.491 147.854C436.605 147.247 436.787 146.626 436.894 146.472C437.001 146.32 437.141 145.799 437.204 145.315C437.269 144.833 437.534 143.646 437.794 142.679C438.054 141.713 438.359 140.47 438.471 139.917C438.583 139.364 438.878 138.122 439.125 137.156C440.087 133.385 440.278 132.606 440.445 131.756C440.54 131.274 440.72 130.539 440.846 130.125C440.971 129.71 441.243 128.636 441.45 127.74C441.897 125.799 442.331 124.014 442.735 122.467C442.897 121.845 443.197 120.602 443.4 119.704C443.982 117.132 444.453 115.577 444.712 115.377C444.843 115.276 453.34 115.19 463.592 115.189L482.234 115.184L482.594 116.126C482.792 116.644 483.032 117.463 483.128 117.947C483.226 118.429 483.664 120.124 484.104 121.714C485.198 125.665 485.534 126.962 485.732 127.99C485.826 128.473 486.019 129.115 486.161 129.418C486.304 129.719 486.42 130.25 486.42 130.596C486.42 130.941 486.51 131.289 486.621 131.366C486.732 131.444 486.891 131.988 486.976 132.574C487.06 133.16 487.212 133.757 487.314 133.902C487.414 134.045 487.595 134.61 487.714 135.157C487.833 135.703 488.081 136.716 488.266 137.406C488.45 138.097 488.72 139.17 488.864 139.792C489.007 140.413 489.259 141.278 489.423 141.713C489.587 142.149 489.72 142.792 489.72 143.141C489.72 143.492 489.81 143.843 489.921 143.922C490.032 143.999 490.191 144.543 490.276 145.129C490.36 145.715 490.507 146.308 490.599 146.445C490.693 146.584 490.836 147.093 490.917 147.575C490.999 148.059 491.151 148.681 491.257 148.957C491.539 149.704 492.36 152.887 492.36 153.238C492.36 153.809 493.351 153.846 508.64 153.846C524.501 153.846 524.649 153.837 524.286 152.826C524.166 152.493 523.857 151.373 523.598 150.338C523.341 149.302 523.052 148.229 522.955 147.952C522.86 147.676 522.609 146.772 522.398 145.944C522.187 145.115 521.89 143.985 521.738 143.432C521.586 142.881 521.242 141.581 520.971 140.546C520.702 139.509 520.398 138.436 520.298 138.159C520.196 137.883 519.947 136.98 519.741 136.151C519.536 135.322 519.239 134.192 519.08 133.639C518.921 133.088 518.5 131.562 518.145 130.25C516.367 123.677 516.048 122.52 515.765 121.646C515.597 121.124 515.458 120.446 515.454 120.139C515.45 119.83 515.3 119.359 515.124 119.091C514.945 118.824 514.8 118.387 514.8 118.12C514.8 117.62 514.219 115.384 513.892 114.628C513.789 114.392 513.612 113.769 513.499 113.247C513.13 111.556 512.113 107.799 511.802 106.985C511.636 106.551 511.5 106.057 511.5 105.89C511.5 105.598 510.959 103.561 510.601 102.505C510.508 102.228 510.217 101.155 509.956 100.118C509.694 99.0834 509.353 97.7832 509.194 97.2318C509.036 96.6789 508.732 95.549 508.52 94.7203C508.306 93.8917 507.998 92.8582 507.836 92.4228C507.673 91.9874 507.54 91.5008 507.54 91.3396C507.54 91.0383 506.973 88.8267 506.668 87.9408C506.573 87.6651 506.273 86.5909 506 85.5559C505.728 84.5194 505.279 82.8817 505.003 81.9145C504.727 80.9473 504.289 79.3097 504.029 78.2732C503.769 77.2381 503.463 76.1941 503.349 75.9545C503.234 75.715 503.141 75.2947 503.141 75.022C503.141 74.7478 503.003 74.1527 502.837 73.6992C502.671 73.2457 502.375 72.2529 502.18 71.4936C501.986 70.7343 501.539 69.0967 501.19 67.8537C500.839 66.6108 500.49 65.282 500.412 64.9024C500.248 64.1009 499.272 63.9547 498.3 64.589ZM295.46 84.7122C289.462 85.1235 286.952 85.3465 286.059 85.5484C285.482 85.6794 284.318 85.9145 283.47 86.0711C280.677 86.5864 279.962 86.737 278.85 87.0519C274.469 88.2888 274.34 88.3732 274.34 90.0153C274.34 90.63 274.188 91.9407 274.001 92.926C273.814 93.9128 273.506 95.5685 273.315 96.6036C273.125 97.6401 272.832 98.9131 272.665 99.4329C272.497 99.9542 272.36 100.575 272.358 100.814C272.358 101.054 272.209 101.572 272.028 101.968C271.848 102.363 271.7 102.854 271.7 103.061C271.7 103.439 271.269 104.691 270.697 105.977C270.522 106.368 270.38 106.826 270.38 106.994C270.38 107.379 267.822 112.908 267.394 113.447C267.221 113.665 267.08 113.928 267.08 114.03C267.08 114.788 262.635 120.562 260.745 122.259C259.935 122.988 259.22 123.649 259.16 123.731C258.913 124.059 255.68 126.153 254.76 126.581C254.216 126.833 253.523 127.178 253.22 127.347C252.681 127.648 251.117 128.154 248.93 128.736C245.09 129.759 238.73 129.42 234.828 127.985C233.659 127.556 230.745 126.239 230.34 125.958C230.158 125.831 229.861 125.653 229.68 125.563C228.348 124.901 223.739 120.897 222.936 119.704C222.798 119.497 222.18 118.706 221.563 117.947C220.947 117.186 220.443 116.424 220.442 116.252C220.44 116.079 220.356 115.937 220.251 115.937C220.03 115.937 218.46 113.301 218.46 112.929C218.46 112.789 218.368 112.674 218.256 112.674C218.142 112.674 217.98 112.419 217.895 112.109C217.811 111.797 217.668 111.487 217.58 111.418C217.491 111.348 217.157 110.67 216.838 109.911C215.836 107.535 215.877 107.564 214.021 107.892C209.467 108.7 195.723 108.088 189.641 106.806C186.012 106.042 185.096 105.815 184.301 105.485C182.538 104.753 182.461 105.625 183.921 109.786C184.017 110.062 184.32 111.023 184.593 111.921C184.865 112.817 185.172 113.659 185.274 113.79C185.377 113.922 185.46 114.193 185.46 114.392C185.46 114.783 188.727 122.367 189.425 123.597C189.66 124.011 189.953 124.576 190.076 124.852C190.405 125.591 190.777 126.245 191.456 127.273C191.788 127.776 192.06 128.302 192.06 128.439C192.06 128.577 192.208 128.755 192.39 128.835C192.571 128.913 192.72 129.151 192.72 129.364C192.72 129.575 192.794 129.75 192.885 129.75C192.976 129.751 193.298 130.168 193.601 130.678C195.775 134.34 204.821 143.952 207.461 145.406C207.982 145.692 208.707 146.191 209.031 146.484C209.582 146.985 213.786 149.513 215.051 150.105C215.292 150.218 215.955 150.543 216.524 150.826C217.091 151.11 217.691 151.342 217.854 151.342C218.018 151.342 218.246 151.444 218.361 151.568C218.625 151.852 222.41 153.281 223.484 153.502C223.928 153.592 224.39 153.752 224.51 153.855C224.728 154.04 225.971 154.332 229.326 154.991C230.281 155.177 231.168 155.45 231.296 155.596C231.621 155.967 252.492 155.967 252.601 155.596C252.644 155.45 253.419 155.215 254.325 155.075C255.23 154.935 256.316 154.724 256.74 154.606C257.625 154.362 259.282 153.934 260.659 153.594C261.969 153.272 266.573 151.53 268.4 150.667C268.823 150.468 269.369 150.213 269.61 150.103C270.908 149.514 276.168 146.385 277.281 145.541C277.99 145.004 278.614 144.562 278.668 144.562C278.722 144.562 279.196 144.196 279.721 143.747C280.247 143.298 280.954 142.705 281.293 142.429C284.953 139.455 289.837 133.953 292.656 129.624C293.517 128.303 294.806 126.168 295.237 125.353C295.528 124.802 295.829 124.293 295.905 124.223C295.98 124.154 296.111 123.928 296.194 123.722C296.278 123.514 296.603 122.836 296.916 122.215C297.462 121.132 298.741 118.257 300.101 115.059C300.452 114.23 300.74 113.378 300.74 113.164C300.74 112.95 300.827 112.667 300.932 112.536C301.284 112.102 303.619 103.779 304.029 101.5C305.281 94.5576 305.799 90.865 305.958 87.7811C306.106 84.881 306.476 85.1431 301.95 84.9352C300.135 84.8508 298.204 84.7484 297.66 84.7062C297.116 84.664 296.126 84.667 295.46 84.7122ZM346.115 128.43L346.17 153.728L360.776 153.793C371.382 153.84 375.464 153.779 375.68 153.573C375.927 153.341 375.98 150.944 375.98 140.252V127.214L375.452 126.661C374.67 125.843 374.466 125.679 372.9 124.603C372.113 124.062 371.11 123.333 370.671 122.981C370.231 122.63 369.687 122.202 369.462 122.033C368.217 121.1 362.143 116.096 358.704 113.165C356.522 111.306 354.194 109.358 353.533 108.835C352.872 108.313 351.488 107.201 350.46 106.366C348.224 104.549 346.347 103.132 346.179 103.132C346.113 103.132 346.083 114.517 346.115 128.43Z" fill="#EAF9FF"/>
<path fill-rule="evenodd" clip-rule="evenodd" d="M239.088 0.487563C239.027 0.693962 238.112 0.841606 236.264 0.944053C234.761 1.02691 233.314 1.22879 233.05 1.39301C232.785 1.55572 232.011 1.6898 231.33 1.6898C230.649 1.6898 229.887 1.81485 229.638 1.96701C229.388 2.11917 228.677 2.33612 228.056 2.44911C226.684 2.6977 225.069 3.15871 224.611 3.4329C224.425 3.54589 223.856 3.71614 223.348 3.81557C222.838 3.9135 222.366 4.09579 222.299 4.22234C222.23 4.34889 222.007 4.45285 221.802 4.45285C221.598 4.45435 221.177 4.60652 220.865 4.79183C220.555 4.97563 220.014 5.20914 219.663 5.31008C218.382 5.67769 213.258 8.49647 210.788 10.1914C209.653 10.9703 208.559 11.7205 208.357 11.8591C204.406 14.5484 197.484 21.7452 194.48 26.2875C194.177 26.744 193.674 27.4702 193.362 27.9011C192.758 28.7282 189.86 33.5416 189.86 33.7134C189.86 33.7691 189.437 34.6384 188.92 35.6433C188.404 36.6482 187.647 38.2617 187.241 39.2289C186.834 40.1946 186.414 41.1558 186.309 41.3622C186.203 41.5701 186.059 41.9091 185.988 42.1155C185.832 42.5765 185.62 43.1415 185.032 44.6767C184.783 45.3245 184.577 46.0025 184.573 46.1833C184.569 46.3625 184.421 46.7301 184.243 46.9983C184.065 47.265 183.92 47.6763 183.92 47.9098C183.92 48.1448 183.772 48.66 183.591 49.0548C183.41 49.451 183.262 49.9587 183.261 50.1847C183.261 50.4107 183.112 50.9199 182.931 51.3146C182.75 51.7108 182.602 52.3376 182.601 52.7097C182.601 53.0818 182.512 53.4479 182.406 53.5232C182.299 53.5986 182.14 54.1982 182.054 54.8566C181.967 55.5134 181.833 56.1643 181.753 56.3029C181.091 57.4614 179.81 67.4967 179.511 73.88C179.113 82.3092 179.995 96.6291 181.111 99.8683C181.182 100.075 181.342 100.81 181.466 101.5C181.934 104.102 182.202 105.141 182.373 105.021C182.536 104.905 182.42 104.123 181.587 99.7417C179.566 89.1174 179.31 76.97 180.829 63.8357C180.956 62.7314 181.154 61.5442 181.268 61.1992C181.381 60.8542 181.54 59.9503 181.621 59.191C181.703 58.4301 181.846 57.6964 181.94 57.5578C182.033 57.4207 182.178 56.7985 182.262 56.1778C182.345 55.5556 182.544 54.5959 182.704 54.043C182.864 53.4901 183.174 52.3602 183.393 51.5316C183.612 50.703 183.861 49.912 183.946 49.7749C184.032 49.6363 184.17 49.0985 184.255 48.5787C184.341 48.0589 184.498 47.5723 184.605 47.497C184.713 47.4217 184.8 47.1851 184.8 46.9727C184.8 46.6187 184.921 46.251 185.779 43.9987C187.829 38.6263 192.439 29.5101 193.722 28.2943C193.897 28.1286 194.04 27.8935 194.04 27.773C194.04 27.651 194.213 27.3481 194.425 27.0981C194.637 26.8465 195.206 26.0887 195.69 25.4107C196.174 24.7343 196.743 23.978 196.955 23.7324C197.167 23.4853 197.34 23.2337 197.34 23.1735C197.34 23.0168 200.863 19.0153 201 19.0153C201.062 19.0153 201.402 18.705 201.753 18.3253C202.104 17.9457 202.756 17.2948 203.202 16.8805C203.648 16.4662 204.167 15.9299 204.356 15.6888C204.543 15.4463 204.78 15.2489 204.879 15.2489C204.978 15.2489 205.178 15.1344 205.325 14.9928C206.243 14.1115 209.035 11.9028 209.77 11.478C210.012 11.3379 210.507 11.0004 210.87 10.7277C211.233 10.455 211.678 10.1552 211.86 10.0603C212.041 9.96538 212.239 9.82225 212.3 9.7424C212.507 9.47273 218.069 6.4611 218.362 6.4611C218.44 6.4611 218.815 6.30593 219.197 6.1176C219.919 5.76205 221.101 5.24681 222.42 4.71499C222.844 4.54324 223.636 4.28863 224.18 4.14852C224.725 4.0069 225.269 3.80653 225.39 3.70107C225.511 3.59712 226.078 3.4329 226.649 3.33949C227.222 3.24458 227.738 3.07735 227.799 2.96587C227.858 2.85589 228.571 2.68715 229.38 2.59224C230.191 2.49732 230.962 2.34064 231.092 2.24271C232.138 1.46532 249.702 0.794902 252.23 1.43519C252.835 1.58886 254.122 1.81786 255.09 1.94291C258.023 2.32407 263.174 3.71162 265.17 4.65925C265.51 4.82196 265.975 4.95453 266.202 4.95453C266.429 4.95453 266.67 5.05849 266.739 5.18655C266.809 5.3131 267.161 5.49238 267.524 5.58277C267.887 5.67317 268.456 5.89463 268.788 6.07391C269.119 6.25169 269.734 6.553 270.154 6.74283C272.58 7.8381 279.18 11.9691 280.03 12.9243C280.195 13.1096 280.838 13.6369 281.46 14.0964C282.081 14.5559 282.838 15.1841 283.14 15.493C283.442 15.8018 284.172 16.5235 284.762 17.096C285.352 17.6685 286.689 19.1087 287.732 20.2959C289.513 22.3222 289.958 22.8842 291.455 25.0085C291.782 25.474 292.372 26.2649 292.765 26.7666C293.159 27.2683 293.538 27.8754 293.605 28.118C293.674 28.3591 293.821 28.5564 293.935 28.5564C294.047 28.5564 294.14 28.6739 294.14 28.8186C294.14 29.0566 294.957 30.518 295.256 30.8163C295.325 30.8856 295.45 31.1116 295.534 31.3195C295.617 31.5259 295.881 32.0351 296.12 32.4494C296.358 32.8637 296.657 33.4287 296.782 33.7044C296.908 33.9801 297.346 34.884 297.755 35.7126C298.164 36.5412 298.711 37.7284 298.969 38.3491C299.229 38.9713 299.585 39.7999 299.76 40.1901C299.937 40.5818 300.08 41.0474 300.08 41.2266C300.08 41.4059 300.229 41.6937 300.41 41.8654C300.592 42.0372 300.74 42.3852 300.74 42.6398C300.74 43.0963 301.166 44.3633 301.759 45.6695C301.924 46.0371 302.06 46.5132 302.06 46.7286C302.06 46.9441 302.198 47.4925 302.368 47.9459C302.537 48.3994 302.844 49.448 303.047 50.2766C303.252 51.1052 303.519 52.1221 303.642 52.5364C303.766 52.9508 303.946 53.7417 304.042 54.2946C304.139 54.846 304.379 56.1462 304.577 57.1812C306.041 64.8556 306.793 76.3568 306.253 82.7928C306.12 84.3883 306.145 85.0437 306.352 85.3841C307.239 86.8335 306.818 67.2375 305.844 61.7009C305.312 58.6787 305.114 57.5051 304.932 56.3029C304.828 55.6129 304.634 54.73 304.502 54.3398C304.368 53.9511 304.26 53.3861 304.259 53.0848C304.257 52.7835 304.11 52.2125 303.929 51.8178C303.748 51.4216 303.6 50.8566 303.599 50.5613C303.597 50.2676 303.45 49.7026 303.269 49.3064C303.088 48.9101 302.937 48.3452 302.933 48.0514C302.929 47.7561 302.78 47.2951 302.603 47.0269C302.425 46.7588 302.28 46.3399 302.28 46.0944C302.28 45.656 301.879 44.4447 301.269 43.0375C301.099 42.6458 300.96 42.221 300.96 42.0929C300.96 41.7329 298.742 36.609 298.518 36.4508C298.41 36.374 298.32 36.1525 298.32 35.9582C298.32 35.3661 295.015 29.2901 293.542 27.1764C293.445 27.0378 292.83 26.1339 292.174 25.1666C289.751 21.5961 282.026 13.2783 280.654 12.7646C280.509 12.7103 280.029 12.3427 279.588 11.948C279.147 11.5533 278.71 11.2309 278.615 11.2309C278.521 11.2309 278.282 11.0637 278.084 10.8588C277.467 10.2215 273.596 7.91343 270.354 6.25018C268.373 5.23325 262.39 2.94477 261.714 2.94477C261.413 2.94477 261.113 2.84835 261.05 2.72933C260.985 2.61182 260.371 2.44911 259.685 2.36776C258.999 2.2864 258.333 2.1011 258.205 1.95496C258.077 1.80882 257.463 1.6898 256.84 1.6898C256.219 1.6898 255.223 1.52107 254.629 1.31617C253.981 1.0917 252.657 0.941039 251.311 0.939533C249.616 0.93652 248.992 0.844619 248.741 0.559878C248.303 0.0596976 239.233 -0.00809796 239.088 0.487563ZM3.3396 3.26718C3.17592 3.49166 3.17328 3.8924 3.32904 4.58543C3.45312 5.13382 3.69204 6.25922 3.861 7.08783C4.02996 7.91645 4.32828 9.32961 4.52232 10.2275C4.71636 11.1254 5.01072 12.5371 5.17704 13.3657C5.34336 14.1943 5.63772 15.606 5.83176 16.5039C6.02712 17.4018 6.2766 18.702 6.38748 19.392C6.49704 20.082 6.67656 20.8729 6.78612 21.1501C6.89436 21.4258 7.10292 22.3298 7.24812 23.1584C7.39332 23.987 7.65732 25.3429 7.8342 26.1715C8.01108 27.0001 8.2566 28.2988 8.37936 29.0596C8.50212 29.8189 8.69616 30.5481 8.811 30.6792C8.92584 30.8102 9.01956 31.22 9.01956 31.5921C9.01956 31.9628 9.1608 32.8155 9.3324 33.4874C9.71124 34.9684 10.0703 36.7506 10.3633 38.6007C10.4848 39.36 10.6762 40.0892 10.791 40.2203C10.9058 40.3513 11.0009 40.8606 11.0009 41.3502C11.0022 41.8398 11.15 42.5645 11.3309 42.9607C11.5117 43.3569 11.6596 44.0093 11.6596 44.413C11.6596 44.8153 11.8087 45.5505 11.9896 46.0462C12.1717 46.5418 12.3196 47.271 12.3196 47.6657C12.3196 48.0604 12.4555 48.8092 12.6218 49.3305C12.936 50.3113 13.3214 52.2171 13.6039 54.1696C13.6937 54.7918 13.8587 55.4697 13.9696 55.6746C14.0818 55.881 14.2454 56.559 14.3352 57.1812C14.425 57.8034 14.6414 58.9891 14.8157 59.8177C14.9912 60.6463 15.2513 61.8892 15.3952 62.5807C15.5377 63.2707 15.7912 64.4007 15.9588 65.0907C16.1251 65.7822 16.3086 66.6861 16.3654 67.1004C16.4221 67.5147 16.5845 68.3614 16.7257 68.9836C16.867 69.6043 17.0795 70.5505 17.1983 71.0853C17.3527 71.7798 17.4821 71.9802 17.651 71.7874C17.82 71.5945 17.783 71.2058 17.5243 70.4299C17.3237 69.8318 17.16 69.0319 17.16 68.6522C17.16 68.2725 17.0122 67.5569 16.83 67.0613C16.6492 66.5656 16.5 65.8274 16.5 65.4206C16.5 65.0138 16.3825 64.4353 16.2373 64.1325C16.0934 63.8312 15.9086 63.0764 15.8281 62.4542C15.7476 61.8335 15.5588 60.7593 15.4097 60.0693C15.2592 59.3793 14.9912 58.1364 14.8144 57.3077C14.6362 56.4791 14.3616 55.2362 14.2045 54.5447C14.0461 53.8547 13.7452 52.3858 13.5353 51.2815C13.3254 50.1757 13.0271 48.7068 12.8713 48.0167C12.7156 47.3267 12.4133 45.8578 12.1994 44.752C11.9856 43.6477 11.678 42.2602 11.5157 41.6681C11.3533 41.076 11.22 40.3634 11.22 40.0832C11.22 39.8029 11.0827 39.0436 10.9138 38.3973C10.7461 37.7495 10.296 35.6945 9.91452 33.8294C9.53172 31.9658 9.12384 30.0268 9.00636 29.5206C8.8902 29.0144 8.70276 28.1105 8.59188 27.5124C8.481 26.9128 8.23152 25.6879 8.0388 24.79C7.52268 22.384 6.6528 18.1566 6.07464 15.2489C5.92416 14.4896 5.742 13.6987 5.67072 13.4907C5.59812 13.2843 5.43972 12.5491 5.31696 11.8591C5.1942 11.1691 4.93416 9.86896 4.7388 8.97104C4.54344 8.07313 4.28472 6.73228 4.1646 5.98804C4.04316 5.2453 3.84912 4.43326 3.73296 4.18468C3.61548 3.9361 3.52044 3.66793 3.52044 3.58958C3.52044 3.51124 10.626 3.44797 19.3116 3.44797H35.1041L35.3628 4.51462C35.5054 5.10218 35.7258 6.31647 35.8538 7.21439C35.9819 8.1123 36.238 9.74994 36.4214 10.8543C37.0616 14.7096 37.4392 17.1457 37.6939 19.059C37.8352 20.1181 38.0239 21.0688 38.115 21.1727C38.2061 21.2752 38.2826 21.7633 38.2853 22.259C38.2879 22.7531 38.3935 23.6104 38.5189 24.1633C38.775 25.2872 39.3122 28.6543 39.6 30.9443C39.7043 31.7729 39.8825 32.7341 39.996 33.0776C40.1095 33.4226 40.2745 34.4953 40.363 35.4625C40.4514 36.4282 40.5992 37.3322 40.6916 37.4708C40.784 37.6094 40.9213 38.4335 40.9979 39.3028C41.0731 40.172 41.2355 41.0971 41.3582 41.3577C41.4797 41.6184 41.58 42.2737 41.58 42.8131C41.58 43.3524 41.7278 44.3483 41.9074 45.0262C42.0882 45.7042 42.24 46.7106 42.2479 47.2635C42.2545 47.8164 42.4024 48.7203 42.5766 49.2717C42.7508 49.8246 42.8947 50.6804 42.896 51.173C42.8987 51.6657 43.0399 52.6253 43.2102 53.3063C43.3805 53.9873 43.5838 55.185 43.663 55.9684C43.7527 56.8528 43.927 57.4433 44.1236 57.5292C44.5117 57.6995 44.5434 57.0094 44.1949 56.0061C44.0603 55.6159 43.8649 54.62 43.762 53.7914C43.4227 51.054 43.094 49.0382 42.7746 47.7441C42.6017 47.0405 42.4565 45.9678 42.4525 45.3577C42.4486 44.749 42.3034 43.9686 42.1304 43.6221C41.9575 43.2771 41.811 42.4861 41.8057 41.8654C41.8004 41.2432 41.6473 40.1796 41.4678 39.5031C41.287 38.8252 41.1404 37.7721 41.1404 37.1634C41.1404 36.5548 41.0203 35.8105 40.8725 35.5077C40.726 35.2064 40.5332 34.2814 40.4435 33.4528C40.2824 31.9763 39.9406 29.6743 39.2858 25.6698C38.7301 22.2725 38.247 19.2278 37.95 17.2572C37.7942 16.2222 37.6451 15.374 37.6174 15.374C37.5685 15.374 37.1197 12.3744 36.7422 9.50889C36.626 8.63207 36.432 7.55788 36.3106 7.12399C36.1904 6.6901 36.032 5.68522 35.9594 4.88975C35.8644 3.84118 35.7166 3.37716 35.4182 3.19486C34.753 2.78809 3.6366 2.8589 3.3396 3.26718ZM73.0277 3.63629C72.9062 4.01594 72.7505 4.49503 72.6805 4.70294C72.6106 4.90934 72.472 5.70179 72.3716 6.4611C72.1908 7.84112 71.9149 9.35371 71.4582 11.4825C71.3249 12.1032 71.1361 13.1774 71.0398 13.8674C70.781 15.7099 70.4088 17.7137 70.0524 19.163C69.8808 19.865 69.7396 20.784 69.7396 21.2044C69.7396 21.6232 69.5917 22.3735 69.4096 22.8691C69.2287 23.3648 69.0796 24.1768 69.0796 24.674C69.0796 25.1697 68.9806 25.7889 68.8591 26.0495C68.7364 26.3086 68.5423 27.1764 68.4248 27.9779C68.3087 28.7794 68.0632 30.2829 67.8797 31.3195C67.6962 32.3545 67.4362 33.9364 67.3015 34.8343C67.1669 35.7322 66.9794 36.6407 66.8857 36.8531C66.7907 37.0655 66.6442 37.8565 66.557 38.6112C66.4712 39.3645 66.2614 40.4658 66.0911 41.0579C65.9195 41.65 65.7796 42.5328 65.7796 43.0195C65.7796 43.5076 65.6806 44.1193 65.5591 44.3784C65.4364 44.639 65.2476 45.5068 65.138 46.3083C65.0285 47.1098 64.8688 48.0213 64.783 48.3346C64.6628 48.7715 64.7011 48.871 64.9466 48.7625C65.1288 48.6826 65.3862 47.955 65.5472 47.0646C65.7017 46.2074 65.9578 44.7716 66.1162 43.8737C66.2746 42.9758 66.5702 41.3381 66.7735 40.2323C67.4362 36.6316 67.7688 34.7303 67.9602 33.4528C68.0632 32.7628 68.2493 31.7458 68.3734 31.1929C68.4974 30.6415 68.7614 29.2856 68.9581 28.1798C69.1548 27.0755 69.4571 25.4363 69.6287 24.5399C69.8016 23.642 70.0445 22.2861 70.1699 21.5268C70.2966 20.766 70.5474 19.3543 70.7296 18.3871C70.9117 17.4214 71.1612 15.9103 71.2826 15.032C71.4054 14.1521 71.5744 13.3054 71.6588 13.1503C71.7433 12.9936 71.8806 12.3563 71.9624 11.7341C72.1987 9.95935 72.6079 7.70703 72.9485 6.31346C73.1201 5.60989 73.26 4.67883 73.26 4.24193V3.44797H89.0485H104.837L105.208 5.39295C105.69 7.92247 106.647 13.5359 106.929 15.5005C107.126 16.8624 107.502 19.065 107.914 21.2752C108.082 22.1731 108.265 23.2458 108.321 23.6601C108.421 24.4013 108.834 26.973 109.328 29.9379C109.466 30.7666 109.724 32.1948 109.899 33.1123C110.076 34.0298 110.22 35.009 110.22 35.2893C110.22 35.5695 110.357 36.4569 110.525 37.2629C110.693 38.0674 110.997 39.8557 111.203 41.2372C111.409 42.6187 111.685 44.2006 111.819 44.752C111.951 45.3049 112.135 46.3776 112.228 47.1384C112.321 47.8977 112.546 49.3666 112.727 50.4016C112.909 51.4382 113.193 53.1074 113.358 54.1138C113.531 55.1579 113.828 56.1266 114.052 56.3737C114.485 56.8498 114.374 55.3387 113.937 54.8084C113.829 54.6773 113.738 54.1696 113.735 53.6784C113.733 53.1888 113.631 52.3361 113.511 51.7832C113.389 51.2303 113.137 49.8186 112.948 48.645C112.761 47.4699 112.463 45.6635 112.286 44.627C112.109 43.592 111.863 42.0161 111.738 41.1257C111.613 40.2368 111.419 39.3118 111.305 39.0708C111.193 38.8312 111.1 38.1879 111.1 37.641C111.1 37.0956 110.961 36.0998 110.789 35.4279C110.452 34.1081 110.105 31.9598 109.783 29.2088C109.671 28.2551 109.476 27.3557 109.35 27.2126C109.223 27.0679 109.12 26.4352 109.12 25.8069C109.122 25.1787 108.981 24.1557 108.806 23.535C108.492 22.4096 108.207 20.6951 107.787 17.4138C107.666 16.4647 107.47 15.4839 107.353 15.2338C107.235 14.9838 107.14 14.3163 107.14 13.7514C107.14 13.1849 106.991 12.3156 106.81 11.82C106.628 11.3243 106.48 10.4173 106.48 9.80267C106.48 9.1895 106.379 8.47086 106.255 8.20721C106.131 7.94206 105.942 6.92814 105.834 5.95339C105.727 4.97864 105.48 3.90295 105.285 3.56247L104.929 2.94477H89.0894H73.2494L73.0277 3.63629ZM141.405 3.25965C141.208 3.4314 140.938 4.19372 140.803 4.95453C140.571 6.26675 140.36 7.46749 139.578 11.9224C139.391 12.9921 139.148 14.5725 139.037 15.4357C138.927 16.2975 138.735 17.2225 138.609 17.4907C138.483 17.7588 138.376 18.4097 138.37 18.9355C138.365 19.4628 138.219 20.3456 138.044 20.8985C137.869 21.4514 137.725 22.2575 137.724 22.6898C137.721 23.1237 137.58 24.0277 137.409 24.6996C137.123 25.822 137.004 26.518 136.404 30.5888C136.289 31.3601 136.093 32.3002 135.968 32.6769C135.843 33.052 135.74 33.7526 135.74 34.2317C135.74 34.7092 135.592 35.5077 135.41 36.0034C135.229 36.499 135.08 37.3457 135.08 37.8866C135.08 38.4259 134.932 39.2741 134.75 39.7698C134.569 40.2655 134.42 41.0941 134.42 41.6123C134.42 42.1306 134.272 43.036 134.09 43.6221C133.909 44.2097 133.76 45.0337 133.76 45.4526C133.76 45.8714 133.62 46.7904 133.447 47.4925C133.055 49.0924 132.7 51.0721 132.438 53.0999C132.329 53.9617 132.135 54.8867 132.009 55.1549C131.883 55.423 131.78 56.0874 131.78 56.6328C131.78 57.1767 131.632 58.0279 131.45 58.5235C131.269 59.0192 131.118 59.8523 131.117 60.3751C131.114 60.8979 130.97 61.7762 130.796 62.3291C130.622 62.882 130.475 63.8478 130.47 64.476C130.465 65.1042 130.366 65.7264 130.25 65.8575C130.135 65.9901 129.954 66.9181 129.85 67.923C129.74 68.9626 129.741 69.6526 129.851 69.5275C130.114 69.2277 130.675 66.7584 130.677 65.8861C130.679 65.4944 130.823 64.4775 130.997 63.6263C131.171 62.7751 131.467 61.2022 131.653 60.1311C132.503 55.2648 132.697 54.1907 133.001 52.6615C133.177 51.7636 133.324 50.7482 133.325 50.4016C133.327 50.0566 133.469 49.3229 133.643 48.77C133.818 48.2171 133.967 47.3704 133.973 46.8868C133.981 46.4032 134.129 45.5565 134.303 45.0036C134.478 44.4507 134.625 43.5679 134.631 43.0406C134.636 42.5148 134.743 41.8639 134.868 41.5958C134.995 41.3276 135.186 40.4026 135.295 39.5408C135.403 38.6775 135.602 37.4075 135.738 36.7175C135.876 36.0275 136.136 34.6143 136.316 33.5793C136.499 32.5428 136.789 30.9986 136.963 30.1474C137.137 29.2961 137.28 28.1617 137.28 27.6239C137.28 27.0875 137.387 26.5256 137.519 26.3764C137.65 26.2273 137.812 25.3851 137.878 24.5053C137.944 23.6269 138.077 22.7938 138.172 22.6537C138.267 22.5136 138.417 21.6669 138.502 20.7705C138.587 19.8741 138.744 19.0168 138.848 18.8647C138.954 18.7125 139.103 17.8643 139.181 16.9815C139.257 16.0971 139.4 15.2579 139.496 15.1178C139.593 14.9762 139.735 14.241 139.813 13.4847C139.891 12.7284 140.045 11.8275 140.156 11.4825C140.268 11.1375 140.456 10.1763 140.575 9.34768C141.074 5.85998 141.297 4.54625 141.478 4.01293L141.67 3.44797H156.65H171.629L171.497 4.01293C171.424 4.32328 171.263 5.02986 171.139 5.58127C171.015 6.13418 170.778 7.15111 170.611 7.84112C170.199 9.55107 169.192 14.0617 168.845 15.7506C168.688 16.5114 168.407 17.7528 168.218 18.5136C168.029 19.2729 167.662 20.9106 167.404 22.1535C167.144 23.3964 166.794 24.8397 166.626 25.361C166.457 25.8808 166.32 26.5436 166.32 26.8329C166.32 27.1222 166.16 27.9402 165.966 28.6483C165.772 29.3579 165.474 30.4457 165.305 31.0679C165.136 31.6886 164.999 32.4238 165 32.6995C165.001 32.9767 164.864 33.7104 164.695 34.3326C164.526 34.9533 164.228 36.0425 164.034 36.7506C163.84 37.4602 163.68 38.3431 163.68 38.7137C163.68 39.0843 163.563 39.6342 163.42 39.9355C163.276 40.2368 163.085 40.9359 162.994 41.4888C162.756 42.9321 161.927 46.5373 161.349 48.645C161.177 49.2657 161.039 49.9858 161.039 50.2435C161.04 50.5011 160.88 51.292 160.686 52.0001C160.492 52.7097 160.194 53.7974 160.025 54.4197C159.856 55.0404 159.719 55.8479 159.719 56.211C159.72 56.5756 159.572 57.1963 159.391 57.5925C159.21 57.9887 159.063 58.6727 159.061 59.1126C159.06 59.554 158.966 59.9804 158.853 60.0602C158.739 60.1401 158.583 60.7412 158.508 61.3936C158.432 62.0459 158.277 62.8067 158.164 63.0824C158.05 63.3581 157.864 64.0933 157.751 64.714C157.419 66.5249 156.614 70.0096 156.069 71.9968C155.897 72.6175 155.759 73.3813 155.759 73.6947C155.76 74.0065 155.665 74.4585 155.549 74.6996C155.433 74.9391 155.235 75.6713 155.109 76.3282C154.522 79.385 154.402 79.9394 154.22 80.4079C154.113 80.6836 153.916 81.4746 153.781 82.1661C153.478 83.7179 153.013 85.8467 152.673 87.2282C152.489 87.9769 152.482 88.4033 152.651 88.7347C152.856 89.1355 152.888 89.0963 152.893 88.4304C152.897 88.0086 152.992 87.5566 153.103 87.4255C153.215 87.2945 153.406 86.6225 153.528 85.9325C153.787 84.4606 154.254 82.2701 154.757 80.1563C155.34 77.7082 156.363 73.0559 156.689 71.3685C156.823 70.6785 157.001 70.0563 157.085 69.987C157.17 69.9192 157.311 69.3091 157.398 68.6326C157.485 67.9562 157.642 67.221 157.747 67.001C157.852 66.7795 157.997 66.0639 158.071 65.4116C158.145 64.7577 158.298 64.1581 158.413 64.0783C158.527 63.9969 158.62 63.5962 158.62 63.1849C158.62 62.7751 158.768 62.0323 158.95 61.5367C159.131 61.041 159.28 60.339 159.282 59.9759C159.282 59.6128 159.431 58.9921 159.612 58.5974C159.793 58.2011 159.939 57.6362 159.939 57.3409C159.938 57.0471 160.078 56.2968 160.249 55.6746C160.651 54.2208 161.025 52.5485 161.234 51.2815C161.325 50.7286 161.517 50.0295 161.659 49.7282C161.803 49.4269 161.92 48.7987 161.92 48.3316C161.92 47.8661 162.066 47.265 162.243 46.9983C162.421 46.7301 162.569 46.1863 162.573 45.79C162.576 45.3953 162.723 44.5471 162.899 43.9068C163.277 42.5238 163.742 40.5894 164.232 38.3491C164.428 37.4527 164.732 36.2083 164.906 35.5876C165.079 34.9654 165.222 34.2166 165.22 33.9228C165.22 33.629 165.368 32.9827 165.55 32.4871C165.731 31.9914 165.88 31.2502 165.88 30.8404C165.88 30.4291 165.973 30.0268 166.088 29.947C166.201 29.8671 166.354 29.266 166.428 28.6137C166.502 27.9613 166.665 27.2171 166.789 26.9595C166.913 26.7033 167.1 25.9681 167.203 25.3278C167.433 23.9192 167.816 22.1716 168.119 21.1501C168.242 20.7358 168.42 20.0006 168.515 19.517C168.903 17.5253 169.588 14.4956 170.079 12.5989C170.188 12.177 170.371 11.3303 170.487 10.7156C170.602 10.1025 170.859 8.92133 171.06 8.09271C171.892 4.63514 172.074 3.37565 171.774 3.15871C171.275 2.79713 141.822 2.89506 141.405 3.25965ZM310.585 3.21596C310.027 3.58657 309.986 30.86 310.542 31.7654L310.885 32.3228H328.362H345.839L345.895 67.7904L345.952 103.258L345.951 67.4771L345.95 31.6961L328.405 31.6313L310.86 31.5665V17.5073V3.44797H361.351H411.844L411.787 17.4455L411.73 31.4445L394.02 31.5078C377.681 31.565 376.288 31.6027 376.035 31.9944C375.817 32.3304 375.76 42.1667 375.76 79.1891C375.76 116.07 375.819 126.104 376.035 126.647C376.257 127.202 376.332 118.125 376.42 79.8927L376.53 32.4494L394.302 32.3228C409.781 32.2144 412.103 32.1496 412.285 31.8211C412.752 30.976 412.55 3.49618 412.075 3.20541C411.486 2.84534 311.127 2.85739 310.585 3.21596ZM444.196 3.60616C443.945 3.97075 443.74 4.49202 443.74 4.76621C443.74 5.27694 443.162 7.50666 442.832 8.272C442.729 8.51003 442.554 9.13074 442.442 9.65352C442.248 10.5605 442.063 11.2384 441.512 13.0523C441.376 13.5013 441.215 14.2636 441.153 14.7472C441.093 15.2293 440.906 15.8485 440.741 16.1212C440.575 16.3939 440.44 16.9227 440.44 17.2993C440.44 17.6745 440.349 18.0451 440.24 18.1234C440.129 18.2003 439.971 18.7246 439.887 19.288C439.803 19.8515 439.597 20.6138 439.429 20.9814C439.26 21.3505 439.122 21.8175 439.122 22.0194C439.12 22.2228 438.982 22.8435 438.813 23.4009C438.644 23.9584 438.335 25.0913 438.125 25.9199C437.917 26.7485 437.666 27.6103 437.568 27.8348C437.47 28.0608 437.32 28.6709 437.234 29.1937C437.148 29.715 436.944 30.4351 436.78 30.7937C436.616 31.1522 436.482 31.6373 436.482 31.8724C436.48 32.1074 436.392 32.5594 436.285 32.8757C436.178 33.1936 435.869 34.301 435.599 35.336C435.328 36.3725 434.821 38.215 434.473 39.4308C434.126 40.6466 433.84 41.8549 433.84 42.1155C433.84 42.3762 433.747 42.6549 433.633 42.7347C433.518 42.8146 433.359 43.3871 433.278 44.0048C433.196 44.624 433.042 45.1287 432.935 45.1287C432.828 45.1287 432.737 45.4963 432.732 45.9452C432.728 46.3942 432.583 47.0435 432.41 47.3885C432.237 47.735 432.091 48.2427 432.086 48.5184C432.081 48.7956 431.929 49.344 431.748 49.7403C431.567 50.1365 431.42 50.7015 431.418 50.9952C431.418 51.2905 431.269 51.8555 431.088 52.2517C430.907 52.6464 430.76 53.1903 430.76 53.46C430.76 53.7296 430.654 54.1771 430.523 54.4558C430.295 54.9424 429.884 56.4671 429.418 58.5627C429.296 59.1156 429.102 59.6746 428.987 59.8056C428.873 59.9367 428.78 60.3329 428.778 60.684C428.778 61.0365 428.629 61.6482 428.448 62.0444C428.267 62.4391 428.12 62.983 428.12 63.2527C428.12 63.5223 428.003 63.9894 427.861 64.2922C427.72 64.5935 427.531 65.2353 427.442 65.7189C427.355 66.2025 427.174 66.9648 427.041 67.4138C426.909 67.8628 426.691 68.5965 426.558 69.0454C426.426 69.4944 426.24 70.2944 426.145 70.8232C426.05 71.3535 425.862 71.9124 425.726 72.0661C425.59 72.2213 425.48 72.619 425.48 72.9504C425.48 73.2819 425.341 73.9086 425.171 74.344C424.999 74.7794 424.812 75.4182 424.752 75.7632C424.649 76.3613 424.541 76.7605 423.939 78.7763C423.794 79.2584 423.626 79.9379 423.568 80.2829C423.509 80.6279 423.32 81.2667 423.15 81.7021C422.979 82.136 422.84 82.6407 422.84 82.823C422.84 83.0053 422.702 83.6094 422.533 84.1653C422.364 84.7227 422.055 85.8572 421.847 86.6858C421.637 87.5144 421.329 88.563 421.163 89.0165C420.997 89.4699 420.86 90.1132 420.86 90.4447C420.86 90.7776 420.77 91.1136 420.659 91.192C420.548 91.2688 420.388 91.8081 420.303 92.3897C420.215 92.9697 420.065 93.619 419.966 93.8315C419.699 94.4024 418.88 97.628 418.88 98.1026C418.88 98.3271 418.787 98.6193 418.672 98.7504C418.559 98.8815 418.369 99.4404 418.253 99.9933C418.043 100.977 417.871 101.611 417.335 103.383C417.19 103.867 417.02 104.6 416.958 105.015C416.896 105.429 416.769 105.881 416.678 106.02C416.585 106.158 416.44 106.75 416.356 107.338C416.271 107.925 416.112 108.404 416.001 108.404C415.89 108.404 415.8 108.612 415.8 108.865C415.8 109.337 415.037 112.401 414.696 113.301C414.591 113.578 414.439 114.199 414.357 114.682C414.275 115.166 414.134 115.674 414.043 115.812C413.952 115.951 413.808 116.501 413.724 117.036C413.639 117.57 413.491 118.193 413.396 118.417C413.049 119.232 412.47 121.512 412.579 121.635C412.806 121.896 413.131 121.432 413.274 120.642C413.417 119.845 413.949 117.807 414.271 116.817C414.472 116.201 415.177 113.572 415.684 111.544C415.891 110.716 416.191 109.586 416.348 109.033C416.505 108.48 416.805 107.35 417.014 106.521C417.223 105.693 417.469 104.841 417.56 104.631C417.649 104.418 417.792 103.853 417.875 103.376C417.958 102.896 418.11 102.279 418.213 102.002C418.317 101.726 418.618 100.653 418.885 99.6167C419.15 98.5817 419.456 97.5376 419.565 97.2981C419.672 97.057 419.76 96.6231 419.76 96.3309C419.76 96.0386 419.893 95.445 420.056 95.0096C420.218 94.5742 420.526 93.5407 420.739 92.7121C420.952 91.8835 421.25 90.7535 421.402 90.2006C421.554 89.6477 421.898 88.3491 422.169 87.3125C422.438 86.2775 422.742 85.2033 422.842 84.9276C422.944 84.6519 423.073 84.1427 423.131 83.7977C423.188 83.4527 423.339 82.8305 423.464 82.4162C423.589 82.0019 423.86 80.985 424.066 80.1563C424.27 79.3277 424.561 78.2551 424.71 77.7714C424.859 77.2878 425.155 76.2152 425.367 75.3866C426.177 72.2228 426.422 71.3429 426.716 70.5444C426.883 70.091 427.023 69.413 427.027 69.0379C427.031 68.6627 427.18 68.1354 427.357 67.8673C427.535 67.6006 427.684 67.0914 427.688 66.7373C427.692 66.3848 427.837 65.8138 428.01 65.4673C428.183 65.1223 428.328 64.5513 428.332 64.2003C428.336 63.8478 428.434 63.4515 428.547 63.3205C428.662 63.1894 428.855 62.6304 428.979 62.0775C429.445 59.9819 429.854 58.4588 430.084 57.9706C430.213 57.6934 430.32 57.1887 430.32 56.8497C430.32 56.5123 430.468 55.9112 430.649 55.5149C430.83 55.1202 430.977 54.5552 430.979 54.26C430.98 53.9647 431.128 53.3997 431.309 53.005C431.49 52.6088 431.637 52.1011 431.639 51.8751C431.64 51.6491 431.788 51.1399 431.969 50.7451C432.15 50.3489 432.297 49.784 432.299 49.4887C432.3 49.1949 432.448 48.6299 432.629 48.2337C432.81 47.8375 432.957 47.2725 432.959 46.9787C432.96 46.6834 433.108 46.1185 433.289 45.7222C433.47 45.3275 433.617 44.8183 433.619 44.5923C433.62 44.3663 433.768 43.8586 433.949 43.4624C434.13 43.0677 434.277 42.4394 434.279 42.0688C434.28 41.6967 434.374 41.3261 434.487 41.2462C434.601 41.1664 434.762 40.5924 434.842 39.9732C434.924 39.3525 435.069 38.7905 435.166 38.7212C435.263 38.6534 435.409 38.1472 435.49 37.5958C435.571 37.0459 435.728 36.5307 435.839 36.4523C435.95 36.3755 436.04 36.1103 436.04 35.8663C436.04 35.4233 436.519 33.5281 437.473 30.1895C437.75 29.2223 438.144 27.7534 438.348 26.9248C438.553 26.0962 438.851 24.9663 439.011 24.4134C439.171 23.862 439.518 22.5618 439.782 21.5268C440.046 20.4903 440.484 18.8526 440.755 17.8854C441.027 16.9182 441.47 15.2805 441.742 14.244C442.013 13.209 442.325 12.1017 442.438 11.7838C442.548 11.4674 442.641 11.0155 442.641 10.7804C442.642 10.5454 442.79 10.0287 442.971 9.63393C443.152 9.2377 443.304 8.67274 443.307 8.37746C443.311 8.08367 443.457 7.55939 443.63 7.21439C443.803 6.86938 443.948 6.36167 443.952 6.08597C443.957 5.81177 444.134 5.1067 444.345 4.51763L444.73 3.44947L464.108 3.44797H483.486L483.727 4.01293C483.861 4.32328 484.181 5.42458 484.44 6.4611C484.699 7.49611 484.99 8.5703 485.088 8.846C485.25 9.30701 485.591 10.574 486.541 14.244C486.738 15.0033 486.974 15.8515 487.066 16.1272C487.38 17.0779 487.92 19.1419 488.066 19.9539C488.148 20.4014 488.305 20.8322 488.417 20.9106C488.528 20.9889 488.62 21.34 488.62 21.691C488.62 22.042 488.751 22.6853 488.912 23.1207C489.342 24.2853 489.94 26.4382 489.942 26.8329C489.942 27.0212 490.076 27.4687 490.24 27.8272C490.404 28.1858 490.608 28.9059 490.694 29.4272C490.78 29.95 490.937 30.5602 491.043 30.7846C491.15 31.0091 491.295 31.6178 491.367 32.1345C491.44 32.6528 491.594 33.0761 491.711 33.0761C491.825 33.0761 491.92 33.388 491.922 33.7676C491.922 34.1473 492.071 34.7816 492.252 35.1763C492.433 35.5725 492.58 36.1209 492.58 36.3951C492.58 36.6678 492.711 37.2493 492.872 37.6832C493.254 38.7167 493.82 40.7717 494.006 41.7991C494.088 42.2466 494.245 42.6775 494.357 42.7558C494.468 42.8342 494.56 43.2093 494.56 43.5889C494.56 43.9686 494.706 44.4989 494.883 44.7671C495.061 45.0353 495.209 45.6002 495.213 46.0221C495.217 46.4454 495.366 47.0104 495.543 47.2785C495.721 47.5467 495.869 47.9761 495.873 48.2337C495.88 48.7459 496.426 50.8009 496.901 52.1056C497.065 52.559 497.2 53.1481 497.2 53.4148C497.2 53.6814 497.336 54.272 497.504 54.7255C497.67 55.179 498.122 56.7353 498.507 58.1861C498.891 59.6354 499.311 61.1615 499.438 61.5759C499.566 61.9902 499.72 62.6395 499.78 63.0191C499.84 63.3988 500.027 63.7107 500.196 63.7107C500.363 63.7107 500.5 63.8417 500.5 64.0029C500.5 64.1641 500.557 64.2319 500.626 64.1521C500.696 64.0722 500.597 63.664 500.407 63.2436C500.215 62.8233 500.06 62.293 500.06 62.0655C500.06 61.838 499.926 61.2956 499.764 60.8602C499.602 60.4248 499.293 59.3913 499.077 58.5627C498.192 55.1428 498.015 54.507 497.724 53.7206C497.557 53.2671 497.417 52.6449 497.412 52.3391C497.408 52.0333 497.263 51.5014 497.09 51.1549C496.917 50.8099 496.769 50.245 496.761 49.9C496.753 49.555 496.601 49.0533 496.423 48.7851C496.245 48.5169 496.1 48.0408 496.1 47.726C496.1 47.4126 495.965 46.7844 495.8 46.3309C495.326 45.0262 494.781 42.9713 494.773 42.459C494.769 42.2014 494.621 41.7705 494.443 41.5024C494.265 41.2357 494.117 40.6707 494.113 40.2474C494.109 39.8255 493.961 39.2606 493.783 38.9924C493.605 38.7242 493.46 38.1939 493.46 37.8143C493.46 37.4346 493.37 37.0595 493.259 36.9826C493.148 36.9043 492.99 36.38 492.907 35.8166C492.823 35.2531 492.617 34.4923 492.448 34.1232C492.281 33.7541 492.142 33.2991 492.141 33.1108C492.14 32.7161 491.543 30.5632 491.113 29.3971C490.952 28.9632 490.82 28.3817 490.82 28.109C490.82 27.8348 490.672 27.2864 490.491 26.8902C490.31 26.4954 490.162 25.9727 490.161 25.7286C490.161 25.4845 490.072 25.0898 489.964 24.8503C489.785 24.451 489.493 23.3859 488.502 19.517C488.308 18.7577 488.069 17.9637 487.972 17.7513C487.875 17.5404 487.728 16.9754 487.645 16.4963C487.562 16.0173 487.41 15.3996 487.307 15.1239C487.022 14.3585 486.42 12.0535 486.42 11.725C486.42 11.5638 486.287 11.0772 486.124 10.6418C485.962 10.2064 485.668 9.22867 485.471 8.46936C484.525 4.80388 484.126 3.5474 483.814 3.25965C483.549 3.01408 479.267 2.94477 464.064 2.94477H444.653L444.196 3.60616ZM239.8 27.8318C239.255 27.9523 238.206 28.1512 237.468 28.2747C236.73 28.3982 235.92 28.6242 235.668 28.7794C235.415 28.9331 234.973 29.0596 234.687 29.0596C234.399 29.0596 233.971 29.2253 233.738 29.4272C233.503 29.6306 233.112 29.8039 232.87 29.8129C232.628 29.8204 232.238 29.9937 232.003 30.1971C231.768 30.4005 231.45 30.5662 231.296 30.5662C230.732 30.5662 227.148 33.1951 225.307 34.9593C223.221 36.9585 219.12 42.3551 219.12 43.1008C219.12 43.25 219.028 43.372 218.915 43.372C218.802 43.372 218.64 43.6251 218.555 43.937C218.471 44.2473 218.331 44.5577 218.245 44.627C218.079 44.7595 217.797 45.3396 216.943 47.3072C216.654 47.9731 216.134 49.1708 215.788 49.9662C215.442 50.7632 215.157 51.6099 215.153 51.8495C215.149 52.089 215 52.5048 214.823 52.773C214.645 53.0412 214.5 53.4509 214.5 53.686C214.5 53.9195 214.352 54.4347 214.171 54.8309C213.99 55.2257 213.843 55.7967 213.841 56.0995C213.84 56.4023 213.753 56.7111 213.646 56.7865C213.538 56.8633 213.382 57.4509 213.297 58.0942C213.213 58.7375 213.057 59.4456 212.952 59.667C212.664 60.2712 211.96 64.8632 211.428 69.6104C211.159 72.0133 211.156 85.348 211.424 88.1924C211.746 91.6063 212.647 97.4924 212.942 98.1191C213.044 98.3316 213.196 98.9809 213.282 99.5624C213.367 100.142 213.528 100.682 213.639 100.76C213.75 100.838 213.84 101.188 213.84 101.539C213.84 102.131 214.067 102.866 214.839 104.765C215.007 105.179 215.206 105.819 215.283 106.19C215.358 106.559 215.609 107.056 215.84 107.296C216.368 107.841 216.363 107.552 215.82 106.271C215.586 105.718 215.391 105.092 215.387 104.878C215.383 104.664 215.297 104.38 215.197 104.249C214.887 103.847 213.773 99.9662 213.374 97.9037C212.773 94.7911 212.49 93.0586 212.3 91.3306C212.185 90.2955 211.984 88.6564 211.852 87.6892C211.333 83.8821 211.791 68.1249 212.52 64.714C212.623 64.2304 212.808 63.2135 212.931 62.4542C213.396 59.5601 213.642 58.2945 213.832 57.8094C213.94 57.5337 214.247 56.4595 214.511 55.4245C214.776 54.388 215.081 53.4329 215.186 53.3018C215.293 53.1707 215.38 52.9101 215.38 52.7233C215.38 52.4159 215.668 51.5979 216.605 49.2341C216.778 48.7987 216.92 48.3768 216.92 48.297C216.92 48.2171 217.316 47.4126 217.8 46.5102C218.284 45.6077 218.68 44.8198 218.68 44.7611C218.68 44.5833 220.011 42.3505 221.08 40.7355C222.79 38.1533 226.948 33.73 228.36 32.9918C228.541 32.8968 229.185 32.478 229.79 32.0607C230.967 31.2487 231.227 31.107 232.76 30.4426C233.305 30.2061 234.076 29.8551 234.473 29.6622C234.87 29.4679 235.427 29.3097 235.711 29.3097C235.994 29.3097 236.61 29.1214 237.079 28.8894C238.326 28.2732 247.864 28.2792 249.088 28.8969C249.538 29.1244 250.153 29.3097 250.455 29.3097C250.758 29.3097 251.379 29.492 251.838 29.715C252.296 29.9364 252.967 30.2634 253.33 30.4381C254.805 31.1507 257.011 32.4675 257.226 32.7628C257.351 32.9345 257.552 33.0761 257.672 33.0761C257.962 33.0761 260.914 35.7141 262.317 37.2267C263.484 38.4832 266.578 43.0134 267.299 44.5215C267.559 45.0624 267.96 45.8443 268.192 46.2586C268.425 46.6729 268.677 47.1821 268.751 47.3885C268.826 47.5964 269.164 48.4431 269.502 49.2717C269.84 50.1003 270.286 51.2875 270.492 51.9082C270.699 52.5304 271.005 53.3379 271.174 53.7055C271.342 54.0716 271.48 54.6517 271.48 54.9922C271.48 55.3341 271.619 55.7454 271.788 55.9051C271.957 56.0648 272.146 56.6162 272.208 57.1285C272.319 58.055 272.564 59.203 273.153 61.5412C273.322 62.2131 273.46 63.1321 273.46 63.5826C273.46 64.0316 273.608 64.8813 273.79 65.4673C273.971 66.0549 274.122 67.2842 274.124 68.1987C274.126 69.1132 274.275 70.6529 274.454 71.6201C274.823 73.6073 274.92 83.3412 274.582 84.3582C274.113 85.7698 274.037 88.4831 274.481 87.995C274.976 87.4526 275.228 72.4051 274.788 69.6104C274.658 68.7818 274.456 67.1667 274.338 66.0202C274.221 64.8752 274.024 63.7242 273.903 63.4636C273.78 63.2029 273.68 62.5837 273.68 62.0866C273.68 61.5894 273.532 60.7774 273.35 60.2817C273.169 59.786 273.017 59.084 273.012 58.7209C273.008 58.3578 272.862 57.7778 272.69 57.4328C272.517 57.0878 272.371 56.5786 272.366 56.3029C272.361 56.0272 272.209 55.4773 272.028 55.081C271.847 54.6863 271.7 54.2102 271.7 54.0234C271.7 53.8366 271.541 53.2566 271.346 52.7338C271.15 52.211 270.865 51.4442 270.712 51.0299C270.12 49.4254 267.883 44.4266 267.464 43.7607C263.226 37.0625 259.577 33.1575 255.53 30.9925C255.046 30.7349 254.388 30.3628 254.066 30.1669C253.745 29.9726 253.299 29.8084 253.076 29.8039C252.853 29.7993 252.478 29.6306 252.243 29.4272C252.008 29.2253 251.558 29.0596 251.242 29.0596C250.927 29.0596 250.572 28.9496 250.454 28.8155C250.337 28.6815 249.599 28.46 248.815 28.3259C248.032 28.1903 246.796 27.9613 246.07 27.8182C244.533 27.5124 241.225 27.5199 239.8 27.8318ZM462.469 30.1067C462.236 30.7048 461.877 32.0968 461.671 33.2027C461.464 34.307 461.157 35.7412 460.988 36.3876C460.819 37.0354 460.68 37.8158 460.68 38.1231C460.68 38.4305 460.537 39.2576 460.365 39.9596C460.19 40.6617 459.885 42.1411 459.686 43.2454C459.487 44.3513 459.183 45.7629 459.01 46.3851C458.839 47.0058 458.699 47.7305 458.699 47.9941C458.7 48.2593 458.557 49.0503 458.385 49.7523C458.089 50.9485 457.904 51.7711 457.037 55.7379C456.848 56.6012 456.589 57.6467 456.461 58.061C456.335 58.4753 456.183 59.1533 456.126 59.5676C456.069 59.9819 455.883 60.6764 455.712 61.1118C455.54 61.5472 455.4 62.2297 455.4 62.6304C455.4 63.0312 455.302 63.4711 455.182 63.6082C455.062 63.7438 454.869 64.36 454.753 64.9762C454.401 66.8609 454.044 68.3162 453.725 69.1795C453.557 69.633 453.42 70.2702 453.42 70.5957C453.42 70.9196 453.272 71.5086 453.091 71.9049C452.911 72.3011 452.763 72.8344 452.761 73.0921C452.76 73.3497 452.6 74.1406 452.406 74.8502C452.212 75.5598 451.914 76.6475 451.745 77.2698C451.576 77.8905 451.439 78.6468 451.439 78.9496C451.44 79.2524 451.346 79.5658 451.233 79.6456C451.119 79.7255 450.958 80.3266 450.875 80.9789C450.792 81.6313 450.637 82.2912 450.532 82.4433C450.425 82.597 450.245 83.2177 450.131 83.8248C449.793 85.6222 449.415 87.1333 449.084 88.0101C448.446 89.702 448.66 89.8255 452.17 89.8059C453.886 89.7969 455.466 89.7095 455.681 89.6131C455.895 89.5151 454.592 89.4383 452.785 89.4413C449.314 89.4473 449.08 89.3931 449.43 88.6564C449.636 88.221 449.756 87.7464 450.413 84.7604C450.554 84.1156 450.744 83.5039 450.835 83.4C450.925 83.296 451 82.8636 451.002 82.4373C451.002 82.0124 451.151 81.3405 451.332 80.9443C451.513 80.5481 451.66 79.959 451.66 79.6351C451.66 79.3097 451.798 78.6724 451.964 78.2189C452.284 77.3556 452.64 75.9003 452.994 74.0156C453.11 73.3994 453.303 72.7832 453.421 72.6476C453.541 72.5105 453.639 72.167 453.639 71.8838C453.638 71.6005 453.776 70.8608 453.945 70.2386C454.114 69.6164 454.411 68.5287 454.607 67.8191C454.801 67.111 454.963 66.2628 454.967 65.9359C454.971 65.6089 455.119 65.1223 455.297 64.8541C455.475 64.5875 455.62 64.1445 455.62 63.8719C455.62 63.3882 456.088 61.3197 456.537 59.8177C456.661 59.4034 456.852 58.5612 456.963 57.945C457.074 57.3288 457.263 56.7142 457.381 56.5771C457.501 56.44 457.6 56.0076 457.6 55.6174C457.6 55.2257 457.748 54.4995 457.93 54.0038C458.111 53.5082 458.263 52.7489 458.268 52.318C458.272 51.8856 458.418 51.2498 458.59 50.9048C458.763 50.5598 458.909 49.9226 458.913 49.4917C458.917 49.0593 459.068 48.3 459.25 47.8043C459.431 47.3087 459.58 46.4695 459.58 45.9407C459.58 45.4119 459.686 44.8575 459.815 44.7098C459.945 44.5622 460.136 43.8345 460.242 43.0903C460.475 41.4406 460.875 39.4082 461.791 35.2109C461.942 34.5209 462.108 33.5597 462.16 33.0761C462.211 32.5925 462.395 31.8422 462.568 31.4068C462.739 30.9714 462.88 30.4276 462.88 30.1986C462.88 29.9696 462.979 29.8521 463.1 29.9379C463.221 30.0238 463.324 30.5104 463.328 31.0197C463.332 31.5304 463.477 32.2294 463.65 32.5744C463.823 32.9194 463.972 33.5974 463.98 34.081C463.988 34.5646 464.137 35.2426 464.31 35.5876C464.483 35.9326 464.628 36.5894 464.632 37.0474C464.636 37.5054 464.758 38.1276 464.903 38.429C465.047 38.7303 465.233 39.4851 465.317 40.1073C465.4 40.728 465.572 41.5762 465.697 41.9905C465.949 42.8251 466.327 44.4703 466.62 46.0085C466.908 47.5211 467.305 49.1617 467.64 50.2194C467.805 50.7391 467.94 51.4803 467.94 51.863C467.94 52.2472 468.028 52.669 468.137 52.8001C468.245 52.9312 468.438 53.5474 468.566 54.1681C469.042 56.4987 469.322 57.5774 469.616 58.2252C469.784 58.5913 469.92 59.1714 469.92 59.5149C469.92 59.8569 470.068 60.461 470.249 60.8572C470.43 61.2519 470.577 61.8169 470.579 62.1122C470.58 62.4075 470.728 62.9724 470.909 63.3672C471.09 63.7634 471.237 64.3781 471.239 64.7351C471.24 65.0922 471.314 65.4688 471.405 65.5728C471.559 65.749 471.678 66.2146 472.37 69.3603C472.522 70.0503 472.707 70.6725 472.78 70.7403C472.853 70.8096 473.038 71.4318 473.19 72.1218C473.881 75.2675 474 75.7331 474.155 75.9093C474.246 76.0133 474.321 76.3899 474.324 76.7455C474.326 77.2592 474.372 77.3165 474.543 77.0182C474.757 76.6475 474.643 75.5206 474.318 74.7658C474.227 74.5549 474.038 73.874 473.9 73.2517C473.662 72.1806 473.488 71.4936 472.668 68.4157C472.477 67.6925 472.213 66.5912 472.084 65.9705C471.955 65.3483 471.773 64.7276 471.68 64.589C471.586 64.4504 471.441 63.8583 471.356 63.2722C471.272 62.6862 471.123 62.1499 471.026 62.0821C470.93 62.0143 470.785 61.4508 470.703 60.8316C470.621 60.2109 470.461 59.6384 470.348 59.5586C470.233 59.4772 470.14 59.1247 470.14 58.7736C470.14 58.4241 469.999 57.7808 469.829 57.3454C469.657 56.91 469.47 56.2155 469.413 55.8012C469.356 55.3869 469.209 54.7089 469.084 54.2946C468.959 53.8803 468.711 52.9191 468.533 52.1598C468.353 51.4005 468.05 50.129 467.858 49.3335C466.797 44.9418 466.414 43.2424 466.2 41.9905C466.107 41.4376 465.907 40.4779 465.758 39.8557C465.609 39.235 465.353 38.105 465.19 37.3457C464.582 34.5119 464.166 32.6648 463.863 31.4445C463.691 30.7545 463.525 29.9726 463.49 29.7074C463.378 28.8186 462.896 29.0069 462.469 30.1067ZM87.5833 43.0707C87.2111 43.8646 87.2573 44.7671 87.652 44.3935C87.8988 44.1584 87.9846 44.1916 88.0664 44.5501C88.1232 44.8002 88.1786 44.6089 88.1905 44.1253C88.2222 42.9155 87.9094 42.3747 87.5833 43.0707Z" fill="white" fill-opacity="0.65"/>
</svg>
