<svg width="125" height="30" viewBox="0 0 125 30" fill="none" xmlns="http://www.w3.org/2000/svg">
<g clip-path="url(#clip0_17_227)">
<path fill-rule="evenodd" clip-rule="evenodd" d="M55.7851 0.234861C55.7441 0.258551 55.4916 0.292801 55.2241 0.311067C54.9569 0.329334 54.7263 0.361872 54.7116 0.383564C54.6969 0.40497 54.521 0.437222 54.3207 0.455489C54.1201 0.47347 53.9444 0.505437 53.9301 0.526844C53.9157 0.547965 53.7932 0.579931 53.6576 0.597913C53.5222 0.615609 53.3882 0.646719 53.3594 0.666413C53.3307 0.686392 53.2019 0.724353 53.0729 0.751182C52.9441 0.777726 52.7566 0.825962 52.6563 0.858499C52.3441 0.959252 52.0641 1.05686 51.8932 1.12422C51.8029 1.1599 51.7141 1.1893 51.6957 1.1893C51.6319 1.1893 50.3172 1.75557 50.2604 1.80751C50.2241 1.84091 50.0463 1.94138 49.9219 1.99874C49.8647 2.02529 49.7476 2.08922 49.6616 2.14088C49.5757 2.19254 49.4701 2.24963 49.4272 2.26761C49.356 2.29786 48.7591 2.69031 48.6091 2.80562C48.5744 2.83245 48.5269 2.85414 48.5035 2.85414C48.4801 2.85414 48.4241 2.89153 48.3797 2.93749C48.3351 2.98315 48.2122 3.08476 48.1066 3.16325C48.001 3.24174 47.8466 3.36504 47.7635 3.43697C47.6804 3.50889 47.6001 3.56769 47.5854 3.56769C47.5529 3.56769 46.7188 4.32576 46.7188 4.35544C46.7188 4.36686 46.6779 4.41452 46.6276 4.46133C46.5776 4.50786 46.4429 4.65114 46.3282 4.77929C46.2135 4.90773 46.0788 5.05129 46.0288 5.09896C45.9785 5.14634 45.9376 5.2037 45.9376 5.22682C45.9376 5.24966 45.9038 5.29418 45.8622 5.32558C45.5585 5.55591 44.4673 7.28298 43.9819 8.30078C43.7788 8.72748 43.7501 8.79712 43.7501 8.86419C43.7501 8.90444 43.7294 8.94925 43.7038 8.96352C43.6785 8.97779 43.6413 9.06998 43.621 9.16845C43.601 9.26692 43.5682 9.36881 43.5479 9.39507C43.5279 9.42104 43.4688 9.57089 43.4169 9.72787C43.3651 9.88485 43.2916 10.0989 43.2538 10.2037C43.216 10.3084 43.1688 10.4902 43.1491 10.6081C43.1294 10.7257 43.0951 10.8436 43.0729 10.8695C43.0507 10.8958 43.0169 11.0348 42.9976 11.1789C42.9782 11.3228 42.9407 11.494 42.9138 11.5594C42.7507 11.957 42.5876 13.7263 42.5894 15.0795C42.5916 16.8082 42.6985 17.6785 43.1241 19.4321C43.156 19.5631 43.1929 19.7181 43.2066 19.7772C43.2219 19.8439 43.2694 19.8842 43.3332 19.8842C43.3894 19.8842 43.5238 19.9136 43.6319 19.9493C43.8201 20.0118 44.0369 20.0549 44.896 20.1996C46.8854 20.5349 51.6235 20.5695 51.0476 20.2441C51.0219 20.2298 50.986 20.159 50.9676 20.0868C50.9491 20.0146 50.9013 19.8913 50.8616 19.8128C50.6788 19.4532 50.6251 19.3139 50.6251 19.2018C50.6251 19.1352 50.6038 19.069 50.5776 19.0542C50.5513 19.0393 50.5132 18.9372 50.4929 18.8273C50.4726 18.7171 50.4366 18.5941 50.4126 18.5539C50.3426 18.4351 50.1294 17.32 50.0532 16.6732C49.9897 16.1344 49.9904 13.6081 50.0541 13.1529C50.1801 12.2535 50.3466 11.3836 50.4147 11.2691C50.4397 11.2272 50.4766 11.093 50.4966 10.9711C50.5166 10.8493 50.5535 10.738 50.5791 10.7234C50.6044 10.7091 50.6251 10.6506 50.6254 10.5933C50.6257 10.5359 50.6607 10.4277 50.7035 10.3529C50.7463 10.2779 50.7813 10.1803 50.7813 10.136C50.7813 10.0915 50.8157 10.0139 50.8579 9.96305C50.8997 9.91225 50.9351 9.83347 50.936 9.78809C50.9369 9.74271 51.0044 9.5823 51.0863 9.43132C51.1682 9.28062 51.2913 9.05371 51.3597 8.92756C51.5619 8.5548 51.6285 8.44491 51.6679 8.4198C51.6882 8.40667 51.7213 8.34787 51.7413 8.28907C51.7613 8.22999 51.7997 8.18204 51.8266 8.18204C51.8532 8.18204 51.8751 8.15892 51.8751 8.13067C51.8751 7.98939 52.846 6.96702 53.3397 6.58827C53.7757 6.25404 54.6241 5.75599 54.7576 5.75599C54.7941 5.75599 54.8694 5.72459 54.9251 5.68606C54.9807 5.64753 55.0729 5.61471 55.1304 5.61328C55.1876 5.61157 55.2801 5.57874 55.3357 5.54021C55.391 5.50197 55.4922 5.47057 55.5604 5.47057C55.6282 5.47057 55.7329 5.4466 55.7926 5.41748C55.8522 5.38809 56.0441 5.34556 56.2188 5.32244C56.3935 5.29932 56.6538 5.2605 56.7969 5.23567C57.1494 5.17488 57.8738 5.17459 58.2554 5.23539C58.4272 5.2625 58.7197 5.30588 58.9051 5.33157C59.0907 5.35697 59.2654 5.39893 59.2932 5.42433C59.321 5.44974 59.4051 5.47057 59.4798 5.47057C59.5544 5.47057 59.661 5.50197 59.7166 5.54021C59.7723 5.57874 59.861 5.61071 59.9138 5.61157C59.9666 5.61242 60.0723 5.64353 60.1482 5.68035C60.2244 5.71746 60.3804 5.78796 60.4947 5.83676C61.4529 6.24691 62.3169 6.98671 63.3201 8.25568C63.4194 8.38184 63.9488 9.32885 64.0891 9.63282C64.1254 9.71131 64.1929 9.85659 64.2391 9.95563C64.2854 10.0547 64.3229 10.1646 64.3229 10.1999C64.3229 10.2353 64.3579 10.3255 64.4007 10.4003C64.4435 10.4754 64.4794 10.5796 64.4807 10.6318C64.4819 10.684 64.5163 10.7805 64.5572 10.8458C64.5982 10.9112 64.6326 11.0211 64.6335 11.0899C64.6348 11.1587 64.6707 11.2917 64.7135 11.3856C64.7566 11.4795 64.7916 11.6333 64.7916 11.7275C64.7916 11.8217 64.8154 11.939 64.8444 11.9884C64.8732 12.0378 64.9197 12.2558 64.9476 12.4727C64.9757 12.6899 65.021 12.9745 65.0482 13.1055C65.1107 13.4043 65.1176 16.2303 65.0563 16.4712C64.9985 16.6983 65.0104 16.7026 65.4166 16.601C65.9366 16.4709 66.2538 16.4018 66.5104 16.3621C67.0438 16.2802 67.4382 16.2183 67.7085 16.1743C68.5251 16.041 70.6251 15.9885 71.8491 16.0707C72.5357 16.1167 72.4457 16.1755 72.5023 15.6432C72.6316 14.4227 72.4548 12.2604 72.1063 10.7982C72.0594 10.6021 72.0026 10.3558 71.9798 10.2513C71.9569 10.1466 71.9144 9.99673 71.8851 9.91824C71.856 9.83975 71.7926 9.64709 71.7441 9.49011C71.696 9.33313 71.6235 9.13448 71.5835 9.04857C71.5432 8.96266 71.5104 8.85877 71.5104 8.81796C71.5104 8.77714 71.4782 8.68695 71.4391 8.61731C71.2988 8.36985 71.1979 8.12981 71.1979 8.04333C71.1979 7.99509 71.1629 7.92916 71.1198 7.89663C71.0769 7.86409 71.0416 7.80957 71.0416 7.77561C71.0416 7.74164 71.0079 7.65345 70.966 7.57924C70.9244 7.50532 70.8404 7.34834 70.7788 7.23046C70.7176 7.11287 70.5882 6.88796 70.4913 6.73098C70.3944 6.574 70.2907 6.40275 70.261 6.35051C70.2313 6.29828 70.1607 6.19125 70.1041 6.11276C70.0476 6.03427 69.9851 5.9378 69.9654 5.8987C69.9457 5.85931 69.916 5.8165 69.8997 5.80337C69.8288 5.74686 69.6354 5.47 69.6354 5.4249C69.6354 5.3975 69.6135 5.37524 69.5869 5.37524C69.5601 5.37524 69.5251 5.33785 69.5088 5.29218C69.4929 5.24623 69.4032 5.13121 69.3101 5.03616C69.2169 4.94112 69.0772 4.79128 68.9997 4.70308C68.6454 4.30064 68.5401 4.19418 68.1185 3.81029C67.8716 3.58538 67.5551 3.31252 67.4154 3.20407C67.2757 3.09561 67.1029 2.95889 67.0313 2.90038C66.9597 2.84187 66.7807 2.72285 66.6335 2.6358C66.4863 2.54875 66.3341 2.44885 66.2951 2.41374C66.0938 2.23279 64.5313 1.45017 63.9569 1.24267C63.8576 1.20671 63.7119 1.14963 63.6335 1.11595C63.5551 1.08198 63.4204 1.04003 63.3344 1.0229C63.2485 1.00578 63.1651 0.97181 63.1485 0.947835C63.1322 0.923575 63.0751 0.903881 63.0213 0.903881C62.9676 0.903881 62.8576 0.878764 62.7769 0.847939C62.2841 0.660705 61.0735 0.402972 60.3385 0.329049C60.0807 0.303076 59.8019 0.261405 59.7188 0.236003C59.5266 0.177777 55.8857 0.17635 55.7851 0.234861ZM0.833496 0.645292C0.833496 0.660134 0.855996 0.710938 0.883809 0.758032C0.911309 0.805126 0.957246 0.958967 0.985996 1.09968C1.01443 1.24067 1.07568 1.4947 1.12193 1.66481C1.16818 1.83491 1.22975 2.08123 1.25881 2.21195C1.28787 2.34267 1.32537 2.48196 1.34256 2.52106C1.35943 2.56045 1.40256 2.71029 1.43818 2.85414C1.57506 3.405 1.781 4.20588 1.90318 4.6617C1.94881 4.83181 2.00787 5.06385 2.03412 5.17745C2.06037 5.29076 2.10475 5.46201 2.13225 5.55791C2.16006 5.65381 2.25662 6.02114 2.34725 6.3742C2.43756 6.72755 2.54412 7.11686 2.58381 7.23959C2.62381 7.36204 2.65631 7.50589 2.65631 7.55898C2.65631 7.61206 2.68787 7.74707 2.72631 7.85924C2.76475 7.9714 2.83756 8.23427 2.88818 8.44349C2.93881 8.65298 3.01037 8.93127 3.04725 9.06199C3.08412 9.19271 3.15475 9.47099 3.20443 9.68049C3.25412 9.8897 3.32537 10.168 3.36287 10.2987C3.40006 10.4297 3.46506 10.6652 3.50725 10.8222C3.54912 10.9791 3.61256 11.2146 3.64818 11.3453C3.6835 11.4761 3.72818 11.6796 3.74725 11.7971C3.76631 11.915 3.81006 12.058 3.84412 12.1151C3.8785 12.1725 3.90631 12.2821 3.90631 12.3591C3.90631 12.4362 3.94131 12.5761 3.98443 12.67C4.02756 12.7639 4.06318 12.9003 4.06412 12.9731C4.06506 13.0459 4.10818 13.2168 4.15975 13.353L4.2535 13.6007L4.53568 13.4611C4.89912 13.281 7.626 12.0437 8.086 11.8502C8.27943 11.7686 8.59568 11.6359 8.78912 11.5551C8.98256 11.4741 9.28131 11.3488 9.45318 11.2765C9.62506 11.2043 9.91193 11.0939 10.091 11.0311C10.2929 10.9603 10.4069 10.8949 10.3922 10.8584C10.3791 10.8259 10.3535 10.6869 10.3354 10.549C10.3169 10.4114 10.2691 10.1931 10.2291 10.0641C10.1891 9.93508 10.156 9.75327 10.1554 9.65994C10.1551 9.56661 10.121 9.40449 10.0797 9.29974C10.0385 9.19528 10.0035 9.02403 10.0019 8.91928C10.0001 8.81453 9.96412 8.62387 9.92131 8.49543C9.87881 8.36699 9.84381 8.17833 9.84381 8.07615C9.84381 7.97397 9.82006 7.84982 9.79131 7.80044C9.76225 7.75106 9.72381 7.57582 9.706 7.41113C9.68787 7.24644 9.65537 7.09032 9.6335 7.06406C9.61162 7.0378 9.57662 6.86655 9.55568 6.6836C9.53475 6.50036 9.49568 6.29714 9.46881 6.23178C9.44193 6.16671 9.39975 5.98461 9.37506 5.82763C9.30693 5.39379 9.17975 4.75588 9.11912 4.54296C9.08943 4.43821 9.06443 4.27581 9.06381 4.18219C9.06318 4.08829 9.04506 3.99582 9.0235 3.97641C9.00193 3.95671 8.95725 3.77661 8.92381 3.57597C8.8635 3.21348 8.77412 2.75196 8.62256 2.02158C8.57912 1.81237 8.5185 1.50212 8.48818 1.33201C8.45787 1.1619 8.40568 0.931852 8.37193 0.820539L8.31068 0.618463H4.57193C2.51568 0.618463 0.833496 0.63045 0.833496 0.645292ZM17.3438 0.768878C17.3438 0.851649 17.3107 1.02804 17.2701 1.16133C17.1894 1.42534 17.0926 1.85204 17.0366 2.18826C17.0172 2.30614 16.9847 2.42687 16.9647 2.45656C16.9447 2.48595 16.9047 2.64636 16.8757 2.81304C16.8469 2.97944 16.7879 3.26572 16.7447 3.44867C16.7016 3.63191 16.6422 3.89934 16.6122 4.04348C16.5826 4.18733 16.5251 4.44421 16.4841 4.61432C16.4435 4.78414 16.3719 5.09468 16.3254 5.30389C16.2788 5.51338 16.2163 5.77026 16.1869 5.87472C16.1576 5.97947 16.1135 6.17213 16.0891 6.30285C16.0426 6.55145 15.9563 6.94533 15.8076 7.58723C15.7591 7.79673 15.6976 8.08043 15.6713 8.21829C15.6451 8.35586 15.5885 8.59048 15.546 8.73946C15.5035 8.88874 15.4688 9.05828 15.4688 9.1165V9.22211L15.7682 9.1362C16.3441 8.97094 16.6507 8.89559 16.7447 8.89559C16.7972 8.89559 16.9591 8.86476 17.1047 8.82709C17.2507 8.78941 17.5572 8.72691 17.7866 8.68809C18.0157 8.64927 18.3438 8.59362 18.5157 8.56479C18.9394 8.49343 20.2982 8.4061 20.5079 8.43664C20.661 8.4589 20.6772 8.45005 20.6772 8.34245C20.6772 8.2768 20.7032 8.1789 20.7347 8.12496C20.8079 7.99995 20.8835 8.08928 20.8847 8.3022L20.8854 8.44663L21.2632 8.45747C21.7879 8.4726 22.5457 8.62815 23.1272 8.83993C23.6938 9.04629 23.8794 9.11879 24.2447 9.27577C24.4741 9.37424 24.6966 9.46842 24.7397 9.48498C24.7826 9.50182 24.9585 9.58659 25.1304 9.67335C25.3022 9.76012 25.5835 9.90112 25.7554 9.98646C26.2182 10.2168 26.6804 10.4708 26.7841 10.5519C26.9397 10.6735 26.9391 10.6646 26.6873 9.5138C26.6444 9.31772 26.5913 9.03944 26.5691 8.89559C26.5472 8.75145 26.5035 8.54823 26.4722 8.44349C26.4407 8.33902 26.3754 8.03933 26.3266 7.77761C26.2779 7.51588 26.2057 7.17709 26.166 7.02467C26.1263 6.87197 26.0938 6.70386 26.0938 6.65077C26.0938 6.59769 26.0597 6.41217 26.0179 6.23835C25.9763 6.06453 25.9154 5.79395 25.8826 5.63697C25.7657 5.07527 25.6679 4.58806 25.6441 4.44763C25.631 4.36914 25.5876 4.16592 25.5479 3.99582C25.4504 3.57711 25.3613 3.15983 25.3147 2.90181C25.2479 2.52962 25.0213 1.46615 24.9072 0.986938L24.8194 0.618463H21.0816H17.3438V0.768878ZM33.4938 0.725495C33.451 0.826533 33.3982 1.07542 33.2801 1.73616C33.2519 1.89314 33.2076 2.07524 33.181 2.1406C33.1548 2.20596 33.1182 2.37664 33.0998 2.51992C33.0813 2.6632 33.0476 2.80248 33.0247 2.82931C33.0019 2.85586 32.9682 3.01483 32.9501 3.18237C32.9316 3.34963 32.8963 3.51032 32.8713 3.53915C32.8466 3.56797 32.8094 3.73038 32.7894 3.9002C32.7691 4.07002 32.7338 4.23043 32.7113 4.25697C32.6888 4.28352 32.6572 4.44135 32.6416 4.60775C32.626 4.77444 32.5876 4.93398 32.5566 4.96224C32.5254 4.9905 32.5001 5.09696 32.5001 5.19857C32.5001 5.30046 32.4663 5.51538 32.4251 5.67664C32.3838 5.8379 32.3151 6.13046 32.2719 6.32683C32.2291 6.52291 32.1676 6.79063 32.1351 6.92135C32.1029 7.05207 32.0557 7.29268 32.0301 7.45622C32.0044 7.61948 31.9591 7.79473 31.9291 7.84554C31.8994 7.89634 31.8741 8.01964 31.8729 8.11925C31.8716 8.21915 31.8366 8.3864 31.7954 8.49115C31.7541 8.5959 31.7191 8.7563 31.7173 8.84792C31.7157 8.93954 31.6804 9.09995 31.6391 9.2047C31.5979 9.30944 31.5641 9.44844 31.5638 9.5138C31.5635 9.57945 31.5288 9.77182 31.4869 9.94193C31.4151 10.2316 31.3691 10.4351 31.1679 11.357C31.1238 11.56 31.0538 11.8579 31.0126 12.0192C30.9713 12.1805 30.9376 12.37 30.9376 12.4405C30.9376 12.5107 30.9007 12.6982 30.8557 12.8569C30.7885 13.0938 30.7863 13.1517 30.8426 13.1806C30.8807 13.2 30.9701 13.2633 31.0416 13.3213C31.1516 13.41 32.1954 14.1459 32.7941 14.5563C32.8894 14.6216 33.3719 14.9553 33.8666 15.2978C34.7344 15.8989 35.1904 16.198 35.7682 16.5459C35.9188 16.6364 36.0438 16.7343 36.0463 16.7631C36.0519 16.8314 36.2788 16.055 36.4066 15.5316C36.4385 15.4006 36.4851 15.2507 36.5104 15.1985C36.5535 15.1097 36.5819 15.0047 36.721 14.4256C36.7507 14.3011 36.7976 14.1624 36.8251 14.117C36.8526 14.0714 36.8751 13.9857 36.8747 13.9267C36.8747 13.8673 36.9076 13.7226 36.9482 13.605C37.0773 13.2285 37.2679 12.5683 37.3463 12.2253C37.3732 12.1077 37.4172 11.9684 37.4441 11.9162C37.471 11.8639 37.5076 11.7198 37.5257 11.5962C37.5435 11.4726 37.5804 11.3587 37.6073 11.3436C37.6341 11.3285 37.6563 11.2477 37.6566 11.1641C37.6569 11.0807 37.6919 10.9512 37.7347 10.8761C37.7776 10.801 37.8126 10.6834 37.8122 10.6144C37.8122 10.5456 37.8447 10.3926 37.8848 10.275C37.9248 10.1571 37.9954 9.95106 38.0413 9.81663C38.0872 9.68249 38.1251 9.53264 38.1247 9.48384C38.1247 9.43503 38.1576 9.2986 38.1982 9.18101C38.3351 8.78171 38.5313 8.0987 38.5876 7.82527C38.6091 7.72052 38.6544 7.58809 38.6885 7.531C38.7223 7.47392 38.7501 7.36974 38.7501 7.29953C38.7501 7.22932 38.7879 7.06206 38.8338 6.92763C38.8797 6.79348 38.9504 6.58713 38.9904 6.46953C39.0304 6.35166 39.0629 6.21266 39.0626 6.16014C39.0622 6.10791 39.0947 5.96863 39.1348 5.85103C39.1748 5.73316 39.2454 5.52708 39.2913 5.39265C39.3372 5.2585 39.3751 5.10352 39.3751 5.04872C39.3751 4.99392 39.4076 4.86834 39.4476 4.76987C39.4873 4.67111 39.5701 4.39768 39.6316 4.16221C39.6929 3.92674 39.7798 3.61649 39.8244 3.47264C39.8691 3.32851 39.9357 3.09332 39.9729 2.94919C40.0551 2.62923 40.2935 1.77469 40.391 1.45074C40.4304 1.32002 40.4866 1.12736 40.516 1.02261C40.5454 0.918152 40.5835 0.784291 40.6007 0.725495L40.6319 0.618463H37.0857H33.5394L33.4938 0.725495ZM73.5938 3.28198V5.94551L77.7476 5.95778L81.901 5.97005L81.9144 12.7256L81.9276 19.4815L82.2007 19.6362C82.351 19.7212 82.6851 19.9287 82.9429 20.0977C83.2007 20.2664 83.5398 20.4853 83.6963 20.5843C83.8529 20.6831 84.4038 21.0521 84.9204 21.4043C85.7348 21.9595 87.1726 22.9076 87.4673 23.0843C87.5207 23.1163 87.6494 23.1973 87.7535 23.2638C87.8576 23.3306 88.0951 23.4685 88.2813 23.5701C88.4676 23.672 88.6316 23.7676 88.646 23.783C88.706 23.8472 88.9585 23.9742 88.9588 23.9405C88.9588 23.9203 88.9588 19.8996 88.9585 15.0058C88.9579 7.94201 88.9713 6.09107 89.0232 6.02685C89.0835 5.95236 89.4063 5.94522 93.2813 5.93438L97.4741 5.92239L97.4876 3.27028L97.501 0.618463H85.5473H73.5938V3.28198ZM105.195 0.82111C105.145 0.932708 105.104 1.06628 105.102 1.11823C105.101 1.17046 105.067 1.26665 105.026 1.33201C104.985 1.39737 104.951 1.49669 104.95 1.55235C104.949 1.60829 104.913 1.71532 104.87 1.79039C104.827 1.86517 104.792 1.96307 104.792 2.00759C104.792 2.05212 104.77 2.13774 104.744 2.19768C104.717 2.2579 104.643 2.46769 104.579 2.66377C104.515 2.86014 104.41 3.17039 104.345 3.35362C104.281 3.53686 104.178 3.84711 104.115 4.04348C104.053 4.23956 103.97 4.48588 103.933 4.59034C103.895 4.69509 103.824 4.90915 103.776 5.06613C103.727 5.22311 103.634 5.5014 103.569 5.68463C103.343 6.31712 103.229 6.67618 103.229 6.76009C103.229 6.80633 103.208 6.85656 103.182 6.87112C103.155 6.88596 103.118 6.98357 103.099 7.08775C103.08 7.19221 103.045 7.28811 103.022 7.30096C102.999 7.31409 102.965 7.42055 102.946 7.53814C102.927 7.65545 102.889 7.76419 102.862 7.77932C102.835 7.79445 102.813 7.86466 102.812 7.93516C102.812 8.00537 102.777 8.12439 102.734 8.19917C102.691 8.27423 102.656 8.37042 102.656 8.41323C102.656 8.45604 102.621 8.55252 102.578 8.6273C102.535 8.70236 102.5 8.80939 102.5 8.86533C102.499 8.92099 102.464 9.02802 102.422 9.10309C102.379 9.17815 102.344 9.28518 102.344 9.34084C102.343 9.39678 102.308 9.50381 102.265 9.57888C102.223 9.65366 102.188 9.75013 102.187 9.79294C102.187 9.83576 102.152 9.93194 102.109 10.007C102.066 10.0818 102.031 10.1888 102.031 10.2448C102.031 10.3007 101.996 10.4077 101.953 10.4825C101.91 10.5576 101.875 10.6715 101.875 10.7354C101.875 10.7996 101.85 10.8952 101.819 10.9477C101.765 11.0402 101.668 11.3288 101.558 11.7258C101.528 11.8305 101.483 11.9364 101.455 11.9613C101.429 11.9861 101.405 12.0612 101.404 12.1279C101.404 12.1945 101.369 12.3026 101.328 12.368C101.287 12.4336 101.253 12.5418 101.252 12.6086C101.251 12.6757 101.216 12.7721 101.174 12.8227C101.132 12.8735 101.096 12.9734 101.095 13.0444C101.094 13.1155 101.061 13.2439 101.022 13.3298C100.952 13.4811 100.894 13.6478 100.703 14.2472C100.652 14.4042 100.582 14.6074 100.547 14.699C100.512 14.7906 100.443 14.9938 100.394 15.1508C100.346 15.3078 100.282 15.5004 100.252 15.5789C100.222 15.6574 100.187 15.7753 100.173 15.8407C100.159 15.906 100.129 16.0025 100.105 16.0547C100.081 16.107 100.009 16.3105 99.9454 16.5065C99.8813 16.7029 99.7998 16.9489 99.7638 17.0537C99.7279 17.1584 99.6573 17.3725 99.6069 17.5295C99.5563 17.6865 99.4835 17.8823 99.4451 17.9647C99.4066 18.0472 99.3751 18.1597 99.3751 18.2151C99.3751 18.2704 99.3541 18.3526 99.3288 18.3983C99.3032 18.4437 99.2307 18.6415 99.1679 18.8376C99.1048 19.0339 99.0335 19.2371 99.0088 19.2894C98.9844 19.3419 98.9485 19.4589 98.9288 19.5497C98.9091 19.6402 98.8754 19.7472 98.8541 19.7874C98.8326 19.8274 98.7745 19.9886 98.7251 20.1456C98.6754 20.3026 98.6044 20.5167 98.5673 20.6214C98.5301 20.7262 98.4591 20.9402 98.4101 21.0972C98.2857 21.4954 98.1219 21.9829 98.0751 22.0962C98.0532 22.1484 97.9941 22.3197 97.9438 22.4766C97.8935 22.6336 97.8329 22.8209 97.8091 22.8928C97.7688 23.0152 97.8226 23.0769 97.8866 22.9821C97.9023 22.9593 98.0851 22.8485 98.2935 22.7364C98.5016 22.6239 98.6835 22.5186 98.6979 22.5018C98.7123 22.4852 98.8179 22.4204 98.9323 22.3582C99.047 22.2957 100.489 21.428 102.135 20.4299C106.251 17.9359 107.301 17.3074 107.604 17.1579C107.937 16.9935 107.905 16.9823 107.097 16.9823C106.212 16.9823 106.165 16.9618 106.317 16.6387C106.396 16.4726 106.485 16.1863 106.565 15.8458C106.592 15.7308 106.635 15.6132 106.66 15.5841C106.685 15.5552 106.722 15.4302 106.741 15.3067C106.761 15.1831 106.799 15.0692 106.826 15.0541C106.853 15.0389 106.875 14.9796 106.875 14.9222C106.875 14.8648 106.907 14.7215 106.947 14.604C106.987 14.4861 107.058 14.28 107.104 14.1456C107.15 14.0111 107.188 13.8613 107.188 13.8125C107.188 13.7637 107.223 13.6626 107.266 13.5876C107.309 13.5125 107.344 13.4009 107.344 13.3395C107.344 13.2779 107.376 13.1572 107.416 13.0713C107.492 12.9077 107.576 12.632 107.659 12.2749C107.687 12.1582 107.733 12.0415 107.761 12.0158C107.789 11.9898 107.813 11.9065 107.813 11.8305C107.813 11.7546 107.846 11.6253 107.886 11.5428C107.927 11.4604 107.971 11.3288 107.984 11.2503C107.998 11.1718 108.034 11.0434 108.064 10.9649C108.115 10.8319 108.169 10.6475 108.367 9.91824C108.409 9.76126 108.478 9.52379 108.519 9.39079C108.56 9.25778 108.594 9.10794 108.594 9.05771C108.594 9.00776 108.627 8.87047 108.667 8.75288C108.708 8.635 108.78 8.36757 108.827 8.15807C108.874 7.94886 108.947 7.66858 108.988 7.53557C109.029 7.40257 109.063 7.24587 109.063 7.18765C109.063 7.12942 109.095 6.98157 109.135 6.85884C109.175 6.7364 109.248 6.46468 109.297 6.25547C109.443 5.63069 109.677 5.27078 109.728 5.5933C109.736 5.64353 109.775 5.79167 109.816 5.92239C109.885 6.14359 109.934 6.3194 110.126 7.02838C110.167 7.1788 110.229 7.39828 110.265 7.51588C110.3 7.63376 110.347 7.81557 110.369 7.92031C110.42 8.1575 110.511 8.47945 110.762 9.31144C110.807 9.46214 110.879 9.70304 110.922 9.84689C110.964 9.99074 111.023 10.1728 111.052 10.2513C111.082 10.3298 111.117 10.4583 111.13 10.5367C111.144 10.6152 111.188 10.7468 111.229 10.8293C111.269 10.9118 111.302 11.0337 111.302 11.0999C111.302 11.1664 111.324 11.2332 111.351 11.2486C111.378 11.2637 111.416 11.3722 111.435 11.4898C111.455 11.6071 111.489 11.7138 111.512 11.7267C111.535 11.7395 111.57 11.8411 111.59 11.9521C111.61 12.0632 111.644 12.1753 111.667 12.2016C111.689 12.2278 111.732 12.3454 111.762 12.4633C111.814 12.6597 111.857 12.7993 112.062 13.4146C112.101 13.5325 112.16 13.7249 112.192 13.8427C112.225 13.9606 112.271 14.0916 112.294 14.1342C112.318 14.1767 112.353 14.2897 112.372 14.385C112.399 14.5143 112.424 14.5466 112.472 14.5106C112.615 14.4016 114.831 13.3732 115.547 13.083C116.761 12.5906 117.915 12.1845 118.214 12.1434C118.398 12.118 118.408 11.9832 118.248 11.6927C118.209 11.6219 118.177 11.5303 118.177 11.4886C118.177 11.4058 117.894 10.5827 117.78 10.333C117.741 10.247 117.709 10.1352 117.709 10.0846C117.709 10.0341 117.676 9.92252 117.638 9.83661C117.525 9.58944 117.396 9.20013 117.394 9.10309C117.393 9.05428 117.358 8.97294 117.316 8.92213C117.274 8.87133 117.239 8.7643 117.238 8.68409C117.237 8.60418 117.202 8.49714 117.16 8.44634C117.118 8.39554 117.084 8.29507 117.084 8.22314C117.084 8.15122 117.062 8.08015 117.035 8.06531C117.009 8.05047 116.972 7.96884 116.952 7.88407C116.908 7.68941 116.774 7.3001 116.684 7.1043C116.646 7.0221 116.615 6.91193 116.615 6.86027C116.615 6.80833 116.58 6.70443 116.537 6.62937C116.494 6.55459 116.459 6.43443 116.459 6.3625C116.459 6.29058 116.436 6.2315 116.409 6.2315C116.381 6.2315 116.345 6.15129 116.328 6.05311C116.31 5.95521 116.276 5.8399 116.251 5.79737C116.226 5.75485 116.189 5.63925 116.168 5.54021C116.148 5.44146 116.099 5.30503 116.061 5.2371C116.022 5.16917 115.99 5.0844 115.99 5.04872C115.99 4.97394 115.848 4.56608 115.746 4.34545C115.708 4.26297 115.677 4.14109 115.677 4.07459C115.677 4.00809 115.655 3.94159 115.629 3.92674C115.603 3.9119 115.565 3.83027 115.546 3.7455C115.511 3.59166 115.384 3.20064 115.309 3.02054C115.288 2.96831 115.232 2.80762 115.185 2.66377C114.96 1.96849 114.879 1.72845 114.841 1.64112C114.818 1.58888 114.749 1.38538 114.688 1.1893C114.626 0.992931 114.55 0.784291 114.519 0.725495L114.462 0.618463H109.874L105.287 0.618748L105.195 0.82111Z" fill="#FAFAFA"/>
<path fill-rule="evenodd" clip-rule="evenodd" d="M19.4272 8.46643C19.155 8.48412 18.7682 8.52494 18.5679 8.55747C17.7525 8.68905 17.3566 8.76212 17.1047 8.82719C16.9591 8.86487 16.7935 8.89569 16.7366 8.89569C16.6797 8.89569 16.5294 8.92538 16.4025 8.96163C16.2757 8.99787 16.0257 9.06523 15.8472 9.11147C15.4463 9.21536 15.3938 9.26902 15.3132 9.65662C15.2188 10.1096 15.126 10.5346 15.0269 10.965C14.9788 11.1742 14.9079 11.4844 14.8697 11.6545C14.8313 11.8247 14.7625 12.1298 14.7169 12.3324C14.6713 12.5351 14.5972 12.867 14.5525 13.0696C14.5079 13.2726 14.4369 13.5883 14.395 13.7715C14.2541 14.3877 14.1635 14.8161 14.1094 15.1244C14.0797 15.2931 14.0338 15.4683 14.0069 15.5137C13.9804 15.5594 13.9585 15.6664 13.9585 15.7512C13.9585 15.8362 13.9257 16.0252 13.8857 16.1707C13.81 16.4447 13.75 16.719 13.6135 17.4106C13.5697 17.6329 13.4997 17.9754 13.4579 18.1718C13.416 18.3679 13.3594 18.6676 13.3319 18.8377C13.3047 19.0078 13.2585 19.209 13.2297 19.2849C13.2007 19.3606 13.1772 19.4998 13.1772 19.5943C13.1772 19.6888 13.1525 19.8406 13.1225 19.932C13.0925 20.0236 13.0482 20.2374 13.0235 20.4075C12.9163 21.1493 12.7238 22.0677 12.6544 22.1702C12.585 22.273 12.5 22.1659 12.5 21.9758C12.5 21.8734 12.4663 21.6339 12.4254 21.4435C12.3844 21.2532 12.3132 20.8833 12.2672 20.6215C12.221 20.3598 12.1491 19.9531 12.1066 19.7176C12.0644 19.4821 11.9944 19.0863 11.9507 18.8377C11.9072 18.5891 11.8472 18.268 11.8175 18.1241C11.7875 17.9803 11.7441 17.7234 11.7207 17.5533C11.6969 17.3832 11.6625 17.2102 11.6441 17.1688C11.6254 17.1274 11.5885 16.9453 11.5619 16.7644C11.5066 16.3874 11.3932 15.7574 11.3057 15.3413C11.2319 14.9902 11.1247 14.4397 11.0144 13.8428C10.9685 13.5942 10.9054 13.2946 10.8741 13.177C10.8429 13.0591 10.8007 12.845 10.78 12.7012C10.7397 12.4183 10.6644 12.0518 10.5447 11.5527C10.5029 11.3788 10.4688 11.1702 10.4688 11.0888C10.4688 10.8528 10.4138 10.8685 8.67192 11.606C8.44286 11.7031 8.07974 11.8552 7.86567 11.9445C7.54036 12.0798 4.84442 13.3097 4.35724 13.5449C4.24442 13.5994 4.21599 13.6405 4.23817 13.7178C4.35255 14.116 4.55692 14.9206 4.63849 15.2936C4.67286 15.4506 4.72192 15.6219 4.74755 15.6744C4.77349 15.7266 4.81661 15.8765 4.84349 16.0072C4.93786 16.467 5.01317 16.7692 5.05661 16.8634C5.08099 16.9159 5.12349 17.0658 5.15161 17.1965C5.17974 17.3272 5.23692 17.5627 5.27911 17.7197C5.4188 18.2417 5.52974 18.6684 5.59411 18.9327C5.62942 19.0766 5.67317 19.2264 5.6913 19.2658C5.70974 19.3049 5.74786 19.4442 5.7763 19.5749C5.84974 19.9145 5.99786 20.5005 6.22692 21.3588C6.26505 21.5026 6.33536 21.7703 6.38317 21.9536C6.43067 22.1365 6.50349 22.4148 6.54536 22.5718C6.58692 22.7288 6.6438 22.9725 6.67161 23.1132C6.69942 23.2539 6.74505 23.4078 6.77255 23.4549C6.80036 23.5023 6.82286 23.5884 6.82286 23.6467C6.82286 23.7052 6.85724 23.8616 6.8988 23.9949C6.97255 24.2301 7.11786 24.7749 7.44474 26.0445C7.53224 26.3847 7.63067 26.7592 7.66317 26.877C7.69536 26.9946 7.74161 27.1767 7.76505 27.2812C7.7888 27.3859 7.84192 27.6 7.88317 27.757C7.92411 27.914 7.98567 28.1494 8.01974 28.2802C8.0538 28.4112 8.12192 28.6466 8.1713 28.8036L8.2613 29.089L12.0469 29.101C16.2729 29.1147 16.0416 29.1327 16.0416 28.7913C16.0416 28.7191 16.0666 28.5853 16.0969 28.4939C16.1275 28.4026 16.1729 28.2208 16.1975 28.0901C16.2225 27.9591 16.2663 27.7664 16.295 27.6619C16.3238 27.5572 16.3738 27.3751 16.4063 27.2575C16.4388 27.1396 16.485 26.9321 16.5091 26.7963C16.5332 26.6604 16.5657 26.53 16.5816 26.5066C16.5975 26.4832 16.6335 26.3482 16.6616 26.2066C16.7091 25.9674 16.8013 25.5792 17.0057 24.7601C17.0513 24.5769 17.1013 24.3522 17.1166 24.2606C17.1316 24.169 17.166 24.0403 17.1932 23.9746C17.22 23.909 17.2638 23.7483 17.2907 23.6178C17.3872 23.1475 17.5991 22.261 17.8954 21.0856C17.9397 20.9087 18.0088 20.6144 18.0488 20.4312C18.0888 20.2482 18.1579 19.9591 18.2022 19.789C18.2469 19.6189 18.3079 19.362 18.3375 19.2181C18.3675 19.0743 18.4125 18.8925 18.4375 18.814C18.4622 18.7355 18.5104 18.5534 18.5438 18.4095C18.5772 18.2657 18.6385 18.0088 18.6794 17.8387C18.7207 17.6686 18.7872 17.3903 18.8272 17.2202C18.8672 17.0501 18.9375 16.7612 18.9835 16.578C19.0294 16.3951 19.0907 16.1273 19.1194 15.9835C19.1485 15.8396 19.1944 15.7015 19.2216 15.6767C19.2488 15.6518 19.271 15.5525 19.271 15.456C19.271 15.3598 19.3044 15.1766 19.345 15.0493C19.4194 14.8181 19.4904 14.4973 19.5863 13.963C19.6144 13.8066 19.6588 13.6139 19.685 13.5349C19.7113 13.4555 19.76 13.2517 19.7929 13.0816C19.8257 12.9115 19.8863 12.6013 19.9275 12.3921C19.9691 12.1826 20.0238 11.8723 20.0494 11.7022C20.075 11.5321 20.1213 11.3329 20.1522 11.259C20.1832 11.1853 20.2085 11.0575 20.2085 10.9747C20.2085 10.8919 20.2422 10.6633 20.2838 10.4664C20.3254 10.2697 20.3969 9.89466 20.4429 9.63293C20.4891 9.3712 20.5513 9.02356 20.5816 8.86002C20.6707 8.37595 20.6963 8.38451 19.4272 8.46643ZM20.9166 8.49611C20.9035 8.52722 20.9241 8.75299 20.9622 8.99787C21.0004 9.24248 21.0704 9.73168 21.1175 10.0847C21.165 10.4381 21.2279 10.8662 21.2575 11.0363C21.3719 11.6899 21.4679 12.3102 21.505 12.6324C21.5266 12.8171 21.5619 12.9946 21.5838 13.0268C21.6057 13.0594 21.6438 13.24 21.6685 13.4287C21.7257 13.8657 21.8044 14.2718 22.1394 15.8645C22.1997 16.1525 22.2679 16.5087 22.2904 16.6565C22.3129 16.8043 22.3466 16.9479 22.3654 16.9759C22.3841 17.0036 22.421 17.1608 22.4475 17.3255C22.5172 17.7605 22.6035 18.1746 22.6579 18.3382C22.6841 18.4167 22.73 18.6199 22.7597 18.79C22.7897 18.9601 22.8475 19.2492 22.8882 19.4322C22.9919 19.8988 23.1057 20.4286 23.1741 20.7642C23.2063 20.9212 23.266 21.1887 23.3066 21.3588C23.3472 21.5289 23.3913 21.7324 23.4044 21.8109C23.4179 21.8894 23.4679 22.1248 23.5157 22.334C23.5969 22.6902 23.6669 23.0247 23.8035 23.7135C23.8347 23.8704 23.8819 24.0637 23.9085 24.1427C23.935 24.2221 23.9797 24.4147 24.0079 24.5709C24.0363 24.7273 24.0954 25.021 24.1397 25.2239C24.2179 25.581 24.2885 25.9063 24.4547 26.6747C24.4988 26.8776 24.555 27.1505 24.58 27.2812C24.6047 27.4122 24.6769 27.7439 24.7404 28.0187C24.8035 28.2933 24.8772 28.6349 24.9041 28.7779C24.931 28.9209 24.9654 29.0494 24.9807 29.0633C24.996 29.0773 26.705 29.0947 28.7782 29.1019L32.5475 29.1144L32.6088 29.01C32.6654 28.9132 32.7022 28.7865 32.8638 28.1374C32.8963 28.0067 32.9432 27.8569 32.9682 27.8046C32.9932 27.7521 33.0285 27.6083 33.0463 27.4847C33.0644 27.3608 33.101 27.2472 33.1282 27.2321C33.155 27.2167 33.1772 27.1545 33.1772 27.0937C33.1772 27.0329 33.2135 26.8682 33.2582 26.7278C33.4569 26.1021 33.5691 25.7088 33.6497 25.3546C33.6763 25.237 33.7141 25.1086 33.7332 25.0692C33.7769 24.9799 33.8941 24.5486 33.9582 24.2409C33.985 24.1122 34.0313 23.9849 34.0607 23.9578C34.0904 23.9307 34.1147 23.8559 34.1147 23.7914C34.1147 23.7272 34.1513 23.5548 34.1966 23.4086C34.3394 22.944 34.4194 22.6731 34.4791 22.4531C34.5107 22.3352 34.5722 22.1211 34.6154 21.9773C34.6588 21.8334 34.7119 21.6299 34.7338 21.5254C34.7554 21.4207 34.7994 21.26 34.8313 21.1687C34.8632 21.0771 34.9272 20.863 34.9741 20.6929C35.055 20.3978 35.0847 20.2924 35.2797 19.6106C35.3263 19.447 35.4025 19.1796 35.4488 19.0161C35.495 18.8525 35.5654 18.6239 35.605 18.508C35.6447 18.3921 35.6772 18.2463 35.6772 18.1838C35.6772 18.1213 35.7013 18.0291 35.7307 17.9788C35.76 17.9286 35.8057 17.7965 35.8322 17.6849C35.8585 17.5733 35.9157 17.3426 35.9591 17.1728C36.0716 16.7324 36.07 16.7279 35.7682 16.546C35.1904 16.1981 34.7344 15.899 33.8666 15.2979C33.3719 14.9554 32.8894 14.6218 32.7941 14.5564C32.1757 14.1325 31.1469 13.4064 31.0157 13.3017C30.9297 13.2332 30.8469 13.177 30.8316 13.177C30.7972 13.177 30.6229 13.8774 30.6244 14.0092C30.6247 14.0618 30.5922 14.2436 30.5516 14.4137C30.511 14.5838 30.4397 14.9263 30.3935 15.1749C30.3469 15.4235 30.2872 15.7229 30.2607 15.8408C30.201 16.1036 30.061 16.8529 29.9954 17.2616C29.9685 17.428 29.9363 17.5795 29.9238 17.5981C29.9113 17.6164 29.8775 17.7908 29.8488 17.9848C29.82 18.1792 29.7585 18.5414 29.7119 18.79C29.6657 19.0386 29.5954 19.4348 29.556 19.6702C29.5166 19.9057 29.4466 20.3124 29.4004 20.5739C29.3541 20.8356 29.2847 21.2814 29.246 21.5648C29.1807 22.0443 29.1472 22.1656 29.0929 22.116C29.0544 22.0809 28.861 21.1136 28.775 20.5265C28.7291 20.2125 28.6579 19.7736 28.6166 19.5512C28.5754 19.3289 28.5416 19.0651 28.5416 18.9652C28.5416 18.8656 28.5194 18.7458 28.4919 18.699C28.4647 18.6521 28.4172 18.4235 28.3869 18.1906C28.3566 17.9577 28.2975 17.5747 28.2557 17.3392C28.2138 17.1037 28.1469 16.7064 28.1069 16.4567C28.0672 16.2067 28.02 15.9606 28.0029 15.9096C27.9854 15.8588 27.945 15.6672 27.9129 15.484C27.8475 15.1098 27.7469 14.5749 27.6347 14.0092C27.4835 13.2455 27.391 12.7663 27.341 12.4883C27.3129 12.3318 27.2685 12.1392 27.2425 12.0601C27.2163 11.9811 27.1429 11.6488 27.0794 11.3217C26.9329 10.5685 26.946 10.5817 25.7554 9.98713C25.5835 9.90151 25.3022 9.76023 25.1304 9.67346C24.9585 9.58669 24.7825 9.50192 24.7397 9.48508C24.6966 9.46853 24.4741 9.37434 24.2447 9.27587C23.8794 9.11889 23.6938 9.0464 23.1272 8.84004C22.3394 8.55319 20.9816 8.34198 20.9166 8.49611ZM117.969 12.2017C117.897 12.2391 117.808 12.2705 117.772 12.2713C117.69 12.2733 116.513 12.6918 115.963 12.9141C115.878 12.9489 115.69 13.0248 115.547 13.0831C114.823 13.3762 112.579 14.4185 112.482 14.5064C112.437 14.547 112.529 15.0376 112.606 15.172C112.63 15.2129 112.673 15.3319 112.701 15.4363C112.753 15.629 112.847 15.9204 113.002 16.3759C113.048 16.5132 113.089 16.7005 113.093 16.7921L113.099 16.9588L110.506 16.971L107.913 16.9833L107.708 17.1018C107.595 17.1671 107.493 17.2202 107.483 17.2202C107.472 17.2202 107.243 17.3521 106.973 17.513C106.704 17.674 106.215 17.9669 105.885 18.1638C105.556 18.3607 103.904 19.3594 102.213 20.3832C100.523 21.407 99.0469 22.2958 98.9322 22.3583C98.8179 22.4205 98.7122 22.4853 98.6979 22.5019C98.6835 22.5187 98.5079 22.6217 98.3072 22.7308C97.7625 23.0276 97.7319 23.059 97.6075 23.452C97.5454 23.6481 97.4722 23.8459 97.4454 23.8913C97.4182 23.9367 97.396 24.0163 97.396 24.068C97.396 24.1199 97.3635 24.2326 97.3241 24.3185C97.2847 24.4045 97.2119 24.6031 97.1622 24.7601C97.1129 24.9171 97.0416 25.1311 97.0038 25.2359C96.966 25.3403 96.9197 25.4953 96.901 25.5801C96.8822 25.6649 96.8454 25.7465 96.8191 25.7613C96.7925 25.7762 96.771 25.8427 96.771 25.9092C96.771 25.9757 96.7379 26.0976 96.6975 26.18C96.6572 26.2625 96.6125 26.3835 96.5985 26.4489C96.5847 26.5143 96.5475 26.6319 96.5166 26.7104C96.4854 26.7888 96.3869 27.078 96.2979 27.3525C96.1066 27.9425 96.0341 28.1586 95.866 28.6369C95.6822 29.161 95.3316 29.115 99.4157 29.101L102.984 29.089L103.059 28.8987C103.143 28.686 103.262 28.2921 103.336 27.9762C103.363 27.8612 103.406 27.7436 103.431 27.7145C103.457 27.6856 103.49 27.5869 103.505 27.4953C103.52 27.4039 103.583 27.179 103.644 26.9958C103.706 26.8128 103.778 26.5773 103.805 26.4726C103.831 26.3679 103.901 26.1324 103.959 25.9494C104.187 25.235 104.233 25.0875 104.272 24.9265C104.294 24.8352 104.337 24.6959 104.367 24.6174C104.397 24.5389 104.461 24.3354 104.51 24.1656C104.616 23.7979 104.718 23.4597 104.814 23.1666C104.853 23.0487 104.923 22.8133 104.972 22.6431C105.109 22.1559 105.221 21.8614 105.282 21.8234C105.313 21.8043 107.325 21.788 109.752 21.7877L114.165 21.7869L114.25 21.9653C114.297 22.0635 114.354 22.2187 114.377 22.3103C114.4 22.4017 114.504 22.7228 114.608 23.0239C114.867 23.7725 114.947 24.0183 114.993 24.2129C115.016 24.3046 115.061 24.4262 115.095 24.4835C115.129 24.5406 115.156 24.6411 115.156 24.7067C115.156 24.7721 115.178 24.838 115.204 24.8526C115.23 24.8674 115.268 24.9704 115.288 25.0815C115.308 25.1925 115.344 25.3055 115.368 25.3329C115.392 25.36 115.434 25.4671 115.463 25.5707C115.491 25.6743 115.549 25.8661 115.593 25.9968C115.637 26.1278 115.701 26.331 115.735 26.4489C115.769 26.5665 115.828 26.7303 115.867 26.8128C115.906 26.8953 115.938 27.0172 115.938 27.0834C115.938 27.1499 115.959 27.2164 115.985 27.2312C116.011 27.2458 116.049 27.3488 116.069 27.4599C116.089 27.5709 116.124 27.6833 116.146 27.7093C116.168 27.7356 116.202 27.832 116.221 27.9234C116.24 28.015 116.276 28.1329 116.301 28.1851C116.368 28.3267 116.563 28.9298 116.563 28.9963C116.563 29.1044 116.797 29.1113 120.417 29.1113C124.172 29.1113 124.207 29.1096 124.121 28.9181C124.092 28.855 124.019 28.6429 123.958 28.4468C123.897 28.2505 123.828 28.0473 123.806 27.9947C123.783 27.9425 123.724 27.7712 123.674 27.6143C123.624 27.4573 123.553 27.2432 123.518 27.1385C123.482 27.034 123.4 26.7877 123.336 26.5916C123.272 26.3953 123.2 26.192 123.177 26.1395C123.153 26.0873 123.093 25.916 123.045 25.7591C122.996 25.6021 122.926 25.388 122.888 25.2833C122.851 25.1788 122.751 24.8897 122.667 24.6411C122.246 23.3958 122.17 23.1766 122.103 23.011C122.064 22.9123 122.031 22.7839 122.03 22.7256C122.029 22.6671 121.993 22.5778 121.952 22.527C121.909 22.4765 121.875 22.3937 121.875 22.3432C121.875 22.2484 121.738 21.8249 121.66 21.6816C121.636 21.6368 121.594 21.5189 121.567 21.4198C121.48 21.0996 121.239 20.3878 121.165 20.2336C121.126 20.1514 121.094 20.0578 121.094 20.0261C121.094 19.9708 120.966 19.5849 120.881 19.3848C120.859 19.3323 120.79 19.1291 120.728 18.9327C120.666 18.7366 120.585 18.4903 120.548 18.3858C120.51 18.2811 120.438 18.067 120.388 17.9101C120.338 17.7531 120.265 17.5573 120.226 17.4748C120.188 17.3923 120.156 17.3001 120.156 17.2696C120.156 17.2125 120.022 16.7935 119.95 16.6257C119.927 16.5734 119.856 16.3699 119.792 16.1739C119.727 15.9775 119.621 15.6672 119.556 15.484C119.49 15.3008 119.387 14.9905 119.325 14.7941C119.263 14.5981 119.191 14.4003 119.164 14.3549C119.137 14.3095 119.115 14.2299 119.115 14.1782C119.115 14.1263 119.082 14.0135 119.043 13.9276C119.003 13.8417 118.933 13.6536 118.887 13.5098C118.841 13.3659 118.736 13.0557 118.653 12.8202C118.57 12.5847 118.487 12.333 118.469 12.2611C118.43 12.1092 118.199 12.0815 117.969 12.2017ZM69.9479 16.014C68.5279 16.0919 67.9338 16.1342 67.7222 16.1724C67.5857 16.1973 67.31 16.2418 67.1094 16.2715C66.4482 16.3691 66.2788 16.3976 66.0157 16.4573C64.9785 16.6916 64.9479 16.7076 64.9479 17.0187C64.9479 17.1351 64.9119 17.3835 64.8675 17.5701C64.8235 17.7571 64.7504 18.0707 64.7054 18.2668C64.6604 18.4632 64.591 18.7044 64.5513 18.8028C64.5116 18.9016 64.4791 19.0192 64.4788 19.0646C64.4788 19.11 64.4435 19.2081 64.4007 19.2832C64.3579 19.358 64.3229 19.451 64.3229 19.4901C64.3229 19.5618 64.221 19.799 64.0854 20.0427C64.0441 20.1166 64.0104 20.2034 64.0104 20.2354C64.0104 20.3081 63.4047 21.3556 63.3035 21.4578C63.2625 21.4992 63.2291 21.5489 63.2291 21.5683C63.2291 21.7118 62.1769 22.8058 61.7294 23.1272C61.5375 23.2654 61.3685 23.3907 61.3541 23.4061C61.2957 23.4683 60.5304 23.865 60.3125 23.9461C60.1838 23.9937 60.0197 24.0591 59.9479 24.0911C59.8204 24.1482 59.45 24.2441 58.9322 24.3542C58.0232 24.548 56.5175 24.4838 55.5938 24.2121C55.3169 24.1307 54.6272 23.8813 54.5313 23.8279C54.4882 23.8039 54.4179 23.7703 54.375 23.7531C54.0597 23.6278 52.9685 22.8692 52.7785 22.6431C52.7457 22.604 52.5994 22.4542 52.4535 22.3103C52.3075 22.1662 52.1882 22.0218 52.1879 21.9893C52.1875 21.9564 52.1675 21.9296 52.1429 21.9296C52.0904 21.9296 51.7188 21.4301 51.7188 21.3596C51.7188 21.3331 51.6969 21.3114 51.6704 21.3114C51.6435 21.3114 51.605 21.2631 51.5851 21.2044C51.5651 21.1453 51.5313 21.0865 51.5104 21.0733C51.4894 21.0602 51.4104 20.9318 51.3347 20.7879C51.0975 20.3378 51.1072 20.3432 50.6679 20.4055C49.5897 20.5584 46.336 20.4426 44.896 20.1997C44.0369 20.055 43.82 20.0119 43.6319 19.9494C43.2144 19.8107 43.1963 19.9759 43.5419 20.7642C43.5647 20.8165 43.6363 20.9986 43.701 21.1687C43.7654 21.3385 43.8382 21.498 43.8622 21.5229C43.8866 21.5477 43.9063 21.5991 43.9063 21.6368C43.9063 21.711 44.6797 23.1478 44.845 23.3807C44.9007 23.4592 44.97 23.5662 44.9991 23.6184C45.0769 23.7586 45.1651 23.8824 45.3257 24.0771C45.4044 24.1724 45.4688 24.272 45.4688 24.298C45.4688 24.3243 45.5038 24.3579 45.5469 24.3731C45.5897 24.3879 45.625 24.433 45.625 24.4732C45.625 24.5132 45.6425 24.5463 45.6641 24.5463C45.6857 24.5466 45.7619 24.6257 45.8335 24.7221C46.3482 25.416 48.4897 27.2369 49.1147 27.5124C49.2382 27.5666 49.4097 27.6611 49.4866 27.7167C49.6169 27.8115 50.6122 28.2904 50.9116 28.4026C50.9688 28.424 51.1257 28.4857 51.2604 28.5393C51.3947 28.593 51.5366 28.6369 51.5754 28.6369C51.6141 28.6369 51.6682 28.6563 51.6954 28.6797C51.7579 28.7337 52.6538 29.0043 52.9082 29.0462C53.0132 29.0633 53.1225 29.0936 53.151 29.113C53.2025 29.1481 53.4969 29.2035 54.2913 29.3282C54.5172 29.3636 54.7272 29.4153 54.7575 29.4429C54.8344 29.5132 59.7757 29.5132 59.8013 29.4429C59.8116 29.4153 59.995 29.3707 60.2094 29.3442C60.4238 29.3176 60.681 29.2777 60.7813 29.2554C60.9907 29.2092 61.3832 29.1281 61.7091 29.0636C62.0191 29.0025 63.1091 28.6726 63.5416 28.5091C63.6419 28.4714 63.771 28.4231 63.8282 28.4023C64.1354 28.2907 65.3807 27.6979 65.6441 27.5381C65.8119 27.4362 65.9597 27.3525 65.9725 27.3525C65.9854 27.3525 66.0975 27.2832 66.2219 27.1981C66.3463 27.1131 66.5138 27.0006 66.5941 26.9484C67.4604 26.385 68.6166 25.3426 69.2841 24.5226C69.4879 24.2723 69.7932 23.8679 69.8951 23.7135C69.9641 23.609 70.0354 23.5125 70.0532 23.4994C70.071 23.4863 70.1019 23.4435 70.1216 23.4044C70.1416 23.365 70.2185 23.2365 70.2925 23.1189C70.4219 22.9137 70.7247 22.3691 71.0466 21.7632C71.1297 21.6062 71.1979 21.4447 71.1979 21.4041C71.1979 21.3636 71.2185 21.31 71.2435 21.2851C71.3266 21.2029 71.8794 19.6263 71.9766 19.1944C72.2729 17.8792 72.3957 17.1797 72.4332 16.5954C72.4682 16.046 72.556 16.0957 71.4844 16.0563C71.0547 16.0403 70.5975 16.0209 70.4688 16.0129C70.34 16.0049 70.1057 16.0055 69.9479 16.014ZM81.94 24.2963L81.9532 29.089L85.411 29.1013C87.9219 29.1101 88.8882 29.0987 88.9394 29.0596C88.9979 29.0157 89.0104 28.5616 89.0104 26.536V24.066L88.8854 23.9612C88.7004 23.8062 88.6519 23.7751 88.2813 23.5713C88.095 23.4689 87.8575 23.3307 87.7535 23.2639C87.6494 23.1974 87.5207 23.1164 87.4672 23.0844C87.1725 22.9077 85.7347 21.9596 84.9204 21.4044C84.4038 21.0522 83.8529 20.6832 83.6963 20.5841C83.5397 20.4851 83.2122 20.2745 82.9688 20.1163C82.4394 19.7721 81.995 19.5035 81.9554 19.5035C81.9397 19.5035 81.9325 21.6604 81.94 24.2963Z" fill="#33A1C4"/>
<path fill-rule="evenodd" clip-rule="evenodd" d="M56.6022 0.0576552C56.5878 0.0967575 56.3712 0.124728 55.9337 0.144137C55.5778 0.159835 55.2353 0.198081 55.1728 0.229192C55.11 0.260017 54.9269 0.285419 54.7656 0.285419C54.6044 0.285419 54.424 0.309109 54.365 0.337936C54.3059 0.366763 54.1375 0.407863 53.9906 0.42927C53.6656 0.476364 53.2834 0.563702 53.175 0.615648C53.1309 0.637054 52.9962 0.669306 52.8759 0.688144C52.7553 0.706696 52.6434 0.741232 52.6275 0.765207C52.6112 0.789182 52.5584 0.808876 52.51 0.808876C52.4615 0.809161 52.3619 0.837988 52.2881 0.873095C52.2147 0.907916 52.0865 0.952156 52.0034 0.971279C51.7003 1.04092 50.4872 1.57494 49.9025 1.89603C49.6337 2.04359 49.3747 2.18573 49.3269 2.21199C48.3915 2.72146 46.7528 4.0849 46.0415 4.94544C45.97 5.03192 45.8509 5.16949 45.7769 5.25112C45.634 5.40782 44.9478 6.31973 44.9478 6.35227C44.9478 6.36283 44.8478 6.52751 44.7253 6.71789C44.6031 6.90826 44.424 7.21394 44.3278 7.39718C44.2315 7.58014 44.1322 7.76223 44.1072 7.80133C44.0822 7.84072 44.0481 7.90494 44.0312 7.94404C43.9944 8.03138 43.944 8.13841 43.805 8.42925C43.7459 8.55198 43.6972 8.68042 43.6962 8.71467C43.6953 8.74864 43.6603 8.81828 43.6181 8.86908C43.5759 8.9196 43.5415 8.99752 43.5415 9.04176C43.5415 9.08629 43.5065 9.1839 43.4637 9.25868C43.4209 9.33374 43.3859 9.42993 43.3856 9.47274C43.3856 9.51556 43.3503 9.61203 43.3075 9.68681C43.2647 9.76187 43.2297 9.88061 43.2294 9.9511C43.2294 10.0216 43.2084 10.091 43.1831 10.1052C43.1578 10.1195 43.1203 10.2331 43.1 10.3578C43.0794 10.4823 43.0475 10.6056 43.0287 10.6318C42.8719 10.8513 42.5687 12.7525 42.4978 13.9618C42.4037 15.5587 42.6125 18.2716 42.8765 18.8853C42.8934 18.9244 42.9312 19.0636 42.9606 19.1944C43.0715 19.6873 43.135 19.8842 43.1753 19.8614C43.214 19.8394 43.1865 19.6913 42.9894 18.8613C42.5109 16.8485 42.4503 14.5472 42.81 12.0589C42.84 11.8497 42.8869 11.6248 42.9137 11.5594C42.9406 11.4941 42.9781 11.3228 42.9975 11.179C43.0169 11.0348 43.0506 10.8958 43.0728 10.8696C43.095 10.8436 43.1294 10.7257 43.149 10.6081C43.1687 10.4903 43.2159 10.3084 43.2537 10.2037C43.2915 10.099 43.365 9.88489 43.4169 9.72791C43.4687 9.57093 43.5278 9.42108 43.5478 9.39511C43.5681 9.36885 43.6009 9.26696 43.6209 9.16849C43.6412 9.07002 43.6784 8.97783 43.7037 8.96356C43.7294 8.94929 43.75 8.90448 43.75 8.86423C43.75 8.79716 43.7787 8.72752 43.9819 8.30082C44.4672 7.28302 45.5584 5.55595 45.8622 5.32562C45.9037 5.29422 45.9375 5.2497 45.9375 5.22686C45.9375 5.20374 45.9784 5.14637 46.0287 5.099C46.0787 5.05133 46.2134 4.90777 46.3281 4.77933C46.4428 4.65117 46.5775 4.50789 46.6275 4.46137C46.6778 4.41456 46.7187 4.3669 46.7187 4.35548C46.7187 4.3258 47.5528 3.56773 47.5853 3.56773C47.6 3.56773 47.6803 3.50893 47.7634 3.43701C47.8465 3.36508 48.0009 3.24178 48.1065 3.16329C48.2122 3.0848 48.335 2.98319 48.3797 2.93752C48.424 2.89157 48.48 2.85418 48.5034 2.85418C48.5269 2.85418 48.5744 2.83249 48.609 2.80566C48.8265 2.63869 49.4875 2.22027 49.6615 2.13978C49.7187 2.11324 49.8359 2.0493 49.9219 1.99764C50.0078 1.94598 50.1131 1.88918 50.1562 1.8712C50.199 1.85322 50.2459 1.82611 50.2603 1.81098C50.3094 1.75989 51.6262 1.18934 51.6956 1.18934C51.714 1.18934 51.8028 1.15994 51.8931 1.12426C52.064 1.0569 52.344 0.959291 52.6562 0.858538C52.7565 0.826001 52.944 0.777765 53.0728 0.751221C53.2019 0.724392 53.3306 0.686431 53.3594 0.666452C53.3881 0.646758 53.5222 0.615648 53.6575 0.597952C53.7931 0.57997 53.9153 0.548289 53.9297 0.527168C53.9437 0.506333 54.1125 0.474366 54.304 0.456384C54.4959 0.438403 54.6784 0.40872 54.7094 0.390167C54.9569 0.242892 59.115 0.115881 59.7134 0.237183C59.8569 0.266296 60.1615 0.309679 60.3906 0.333369C61.085 0.40558 62.3044 0.66845 62.7769 0.847978C62.8575 0.878803 62.9675 0.90392 63.0212 0.90392C63.075 0.90392 63.1322 0.923614 63.1484 0.947874C63.165 0.97185 63.2484 1.00581 63.3344 1.02294C63.4203 1.04006 63.555 1.08202 63.6334 1.11599C63.7119 1.14966 63.8575 1.20675 63.9569 1.24271C64.5312 1.45021 66.0937 2.23283 66.295 2.41378C66.334 2.44889 66.4862 2.54878 66.6334 2.63584C66.7806 2.72289 66.9597 2.84191 67.0312 2.90042C67.1028 2.95893 67.2756 3.09565 67.4153 3.2041C67.555 3.31256 67.8715 3.58542 68.1184 3.81033C68.54 4.19422 68.6453 4.30068 68.9997 4.70312C69.0772 4.79132 69.2169 4.94116 69.31 5.0362C69.4031 5.13125 69.4928 5.24627 69.5087 5.29222C69.525 5.33789 69.56 5.37528 69.5869 5.37528C69.6134 5.37528 69.6353 5.39754 69.6353 5.42494C69.6353 5.47004 69.8287 5.74689 69.8997 5.80341C69.9159 5.81654 69.9456 5.85935 69.9653 5.89874C69.985 5.93784 70.0475 6.03431 70.104 6.1128C70.1606 6.19129 70.2312 6.29832 70.2609 6.35055C70.2906 6.40279 70.3944 6.57404 70.4912 6.73102C70.5881 6.888 70.7175 7.11291 70.7787 7.2305C70.8403 7.34838 70.9244 7.50536 70.9659 7.57928C71.0078 7.65349 71.0415 7.74168 71.0415 7.77565C71.0415 7.80961 71.0769 7.86413 71.1197 7.89666C71.1628 7.9292 71.1978 7.99513 71.1978 8.04337C71.1978 8.12985 71.2987 8.36989 71.439 8.61734C71.4781 8.68699 71.5103 8.77718 71.5103 8.81799C71.5103 8.85881 71.5431 8.9627 71.5834 9.04861C71.6234 9.13452 71.6959 9.33317 71.744 9.49015C71.7925 9.64713 71.8559 9.83979 71.885 9.91828C71.9144 9.99677 71.9569 10.1466 71.9797 10.2514C72.0025 10.3558 72.0594 10.6021 72.1062 10.7982C72.4528 12.2521 72.6309 14.431 72.5031 15.6503C72.4715 15.9526 72.4775 16.0767 72.5266 16.1413C72.7365 16.4158 72.6369 12.7034 72.4062 11.6545C72.2803 11.0819 72.2334 10.8596 72.1903 10.6318C72.1656 10.5011 72.1197 10.3338 72.0884 10.2599C72.0569 10.1863 72.0312 10.0793 72.0309 10.0222C72.0306 9.96509 71.9956 9.85692 71.9528 9.78214C71.91 9.70707 71.875 9.60004 71.8747 9.5441C71.8744 9.48844 71.8394 9.38141 71.7965 9.30634C71.7537 9.23128 71.7181 9.12425 71.7172 9.06859C71.7162 9.01265 71.6809 8.92531 71.639 8.87451C71.5969 8.8237 71.5625 8.74436 71.5625 8.69783C71.5625 8.61478 71.4675 8.3853 71.3231 8.11872C71.2828 8.04451 71.25 7.96402 71.25 7.93976C71.25 7.87155 70.725 6.90084 70.6719 6.87087C70.6462 6.85632 70.625 6.81436 70.625 6.77754C70.625 6.66537 69.8425 5.51428 69.4937 5.11384C69.4709 5.08758 69.3253 4.91633 69.17 4.73309C68.5962 4.05665 66.7675 2.48085 66.4428 2.38353C66.4084 2.37325 66.2947 2.30361 66.1903 2.22883C66.0859 2.15405 65.9825 2.09297 65.96 2.09297C65.9378 2.09297 65.8812 2.06129 65.8344 2.02247C65.6881 1.90174 64.7719 1.46448 64.0044 1.14938C63.5353 0.956722 62.1187 0.523172 61.9587 0.523172C61.8875 0.523172 61.8165 0.504905 61.8015 0.482357C61.7862 0.460095 61.6409 0.42927 61.4784 0.413857C61.3159 0.398444 61.1584 0.363338 61.1281 0.335652C61.0978 0.307967 60.9525 0.285419 60.805 0.285419C60.6578 0.285419 60.4222 0.253452 60.2815 0.214635C60.1281 0.172108 59.8147 0.143566 59.4959 0.143281C59.0947 0.14271 58.9469 0.125299 58.8875 0.0713553C58.7837 -0.0234035 56.6365 -0.0362473 56.6022 0.0576552ZM0.790608 0.584252C0.751858 0.626779 0.751233 0.7027 0.788108 0.833993C0.817483 0.937885 0.874045 1.15109 0.914045 1.30807C0.954045 1.46505 1.02467 1.73277 1.07061 1.90288C1.11655 2.07299 1.18623 2.34043 1.22561 2.49741C1.26498 2.65439 1.33467 2.92183 1.38061 3.09194C1.42686 3.26204 1.48592 3.50836 1.51217 3.63908C1.53811 3.7698 1.58061 3.91965 1.60655 3.97216C1.63217 4.0244 1.68155 4.19565 1.71592 4.35263C1.7503 4.50961 1.8128 4.76648 1.85467 4.92346C1.89655 5.08044 1.95467 5.32647 1.98373 5.47061C2.0128 5.61446 2.05873 5.7526 2.08592 5.77743C2.11311 5.80227 2.1353 5.8799 2.1353 5.9504C2.1353 6.02061 2.16873 6.18216 2.20936 6.30945C2.29905 6.59002 2.38405 6.92767 2.45342 7.27816C2.48217 7.42201 2.52748 7.56016 2.55467 7.58499C2.58186 7.60982 2.60436 7.70629 2.60436 7.79905C2.60467 7.89181 2.63967 8.0291 2.68248 8.10416C2.7253 8.17923 2.7603 8.30281 2.7603 8.37931C2.7603 8.45551 2.79561 8.5948 2.83842 8.6887C2.88155 8.7826 2.91655 8.92074 2.91655 8.99552C2.91655 9.0703 2.94873 9.21216 2.98811 9.31091C3.06248 9.49672 3.15373 9.85777 3.22061 10.2277C3.24186 10.3456 3.28092 10.474 3.30717 10.5128C3.33373 10.5519 3.37248 10.6803 3.39373 10.7982C3.41498 10.9161 3.46623 11.1407 3.50748 11.2977C3.54905 11.4547 3.61061 11.6902 3.64467 11.8212C3.67842 11.9519 3.73842 12.1659 3.77811 12.2967C3.81748 12.4277 3.86092 12.5989 3.87436 12.6774C3.8878 12.7559 3.92623 12.9163 3.95967 13.0342C3.99311 13.1518 4.04342 13.331 4.07155 13.4323C4.10811 13.5639 4.13873 13.6019 4.17873 13.5654C4.21873 13.5288 4.20998 13.4552 4.14873 13.3082C4.10123 13.1949 4.06248 13.0433 4.06248 12.9714C4.06248 12.8995 4.02748 12.7639 3.98436 12.67C3.94155 12.5761 3.90623 12.4362 3.90623 12.3592C3.90623 12.2821 3.87842 12.1725 3.84405 12.1151C3.80998 12.0581 3.76623 11.9151 3.74717 11.7972C3.72811 11.6796 3.68342 11.4761 3.64811 11.3454C3.61248 11.2146 3.54905 10.9792 3.50717 10.8222C3.46498 10.6652 3.39998 10.4297 3.3628 10.2987C3.3253 10.168 3.25405 9.88974 3.20436 9.68053C3.15467 9.47103 3.08405 9.19275 3.04717 9.06203C3.0103 8.9313 2.93873 8.65302 2.88811 8.44353C2.83748 8.23431 2.76467 7.97144 2.72623 7.85927C2.6878 7.7471 2.65623 7.6121 2.65623 7.55901C2.65623 7.50593 2.62373 7.36208 2.58373 7.23963C2.54405 7.1169 2.43748 6.72759 2.34717 6.37424C2.25655 6.02118 2.15998 5.65385 2.13217 5.55795C2.10467 5.46205 2.0603 5.2908 2.03405 5.17749C2.0078 5.06389 1.94873 4.83184 1.90311 4.66174C1.78092 4.20592 1.57498 3.40504 1.43811 2.85418C1.40248 2.71033 1.35936 2.56049 1.34248 2.5211C1.3253 2.482 1.2878 2.34271 1.25873 2.21199C1.22967 2.08127 1.16811 1.83495 1.12186 1.66484C1.07561 1.49474 1.01436 1.24071 0.98592 1.09972C0.95717 0.959006 0.911233 0.805165 0.883733 0.758071C0.85592 0.710977 0.83342 0.660173 0.83342 0.645331C0.83342 0.630489 2.51561 0.618502 4.57186 0.618502H8.31061L8.37186 0.820578C8.40561 0.931891 8.4578 1.16194 8.48811 1.33205C8.51842 1.50216 8.57904 1.81241 8.62248 2.02162C8.77404 2.752 8.86342 3.21352 8.92373 3.576C8.95717 3.77665 9.00186 3.95675 9.02342 3.97645C9.04498 3.99585 9.06311 4.08833 9.06373 4.18223C9.06436 4.27585 9.08936 4.43825 9.11905 4.543C9.17967 4.75592 9.30686 5.39383 9.37498 5.82767C9.39967 5.98465 9.44186 6.16674 9.46873 6.23182C9.49561 6.29718 9.53467 6.5004 9.55561 6.68364C9.57654 6.86659 9.61155 7.03784 9.63342 7.0641C9.6553 7.09036 9.6878 7.24648 9.70592 7.41117C9.72373 7.57585 9.76217 7.7511 9.79123 7.80048C9.81998 7.84986 9.84373 7.97401 9.84373 8.07619C9.84373 8.17837 9.87873 8.36703 9.92123 8.49547C9.96405 8.62391 9.99998 8.81457 10.0019 8.91932C10.0034 9.02407 10.0384 9.19532 10.0797 9.29978C10.1209 9.40453 10.155 9.56665 10.1553 9.65998C10.1559 9.75331 10.1894 9.93512 10.2297 10.0641C10.27 10.1931 10.3181 10.42 10.3369 10.5685C10.3581 10.736 10.3994 10.8479 10.4459 10.8642C10.5378 10.8964 10.5453 10.7657 10.4628 10.5756C10.4309 10.5017 10.3847 10.313 10.3603 10.156C10.28 9.63743 10.2022 9.25554 10.1265 9.01037C10.0856 8.87708 10.0512 8.67386 10.0503 8.55826C10.0494 8.44295 10.015 8.29511 9.97404 8.22946C9.93311 8.1641 9.89842 8.01426 9.89717 7.89666C9.89592 7.77879 9.85967 7.57728 9.81717 7.44913C9.77436 7.32069 9.73967 7.12118 9.73967 7.00587C9.73967 6.89056 9.71123 6.74957 9.67623 6.6922C9.64155 6.63512 9.59592 6.45987 9.57467 6.30289C9.53655 6.02318 9.45561 5.58706 9.30061 4.82842C9.16905 4.1848 9.05467 3.60797 8.98436 3.23464C8.94748 3.03856 8.91217 2.87787 8.90561 2.87787C8.89404 2.87787 8.7878 2.3096 8.69842 1.76674C8.67092 1.60063 8.62498 1.39712 8.59623 1.31492C8.5678 1.23272 8.5303 1.04235 8.51311 0.891647C8.49061 0.692996 8.45561 0.605087 8.38498 0.570552C8.22748 0.493489 0.86092 0.506903 0.790608 0.584252ZM17.2887 0.654179C17.26 0.726104 17.2231 0.816867 17.2065 0.856255C17.19 0.895357 17.1572 1.04549 17.1334 1.18934C17.0906 1.45078 17.0253 1.73734 16.9172 2.14064C16.8856 2.25823 16.8409 2.46173 16.8181 2.59245C16.7569 2.94152 16.6687 3.32113 16.5844 3.5957C16.5437 3.7287 16.5103 3.90281 16.5103 3.98244C16.5103 4.06179 16.4753 4.20392 16.4322 4.29783C16.3894 4.39173 16.354 4.54557 16.354 4.63976C16.354 4.73366 16.3306 4.85097 16.3019 4.90034C16.2728 4.94944 16.2269 5.11384 16.199 5.26568C16.1715 5.41752 16.1134 5.70237 16.07 5.89874C16.0265 6.09482 15.965 6.39451 15.9331 6.56462C15.9012 6.73473 15.8569 6.90683 15.8347 6.94708C15.8122 6.98732 15.7775 7.13717 15.7569 7.28016C15.7365 7.42287 15.6869 7.63151 15.6465 7.74368C15.6059 7.85585 15.5728 8.0231 15.5728 8.11529C15.5728 8.20777 15.5494 8.32365 15.5206 8.37274C15.4915 8.42212 15.4469 8.58652 15.4209 8.73836C15.395 8.8902 15.3572 9.06288 15.3369 9.12225C15.3084 9.20502 15.3175 9.22386 15.3756 9.20331C15.4187 9.18818 15.4797 9.05032 15.5178 8.88164C15.5544 8.71924 15.615 8.44724 15.6525 8.27713C15.69 8.10702 15.76 7.79677 15.8081 7.58727C15.965 6.90512 16.0437 6.54492 16.089 6.30289C16.1134 6.17217 16.1575 5.97951 16.1869 5.87476C16.2162 5.7703 16.2787 5.51342 16.3253 5.30393C16.3719 5.09471 16.4434 4.78418 16.484 4.61436C16.525 4.44425 16.5825 4.18737 16.6122 4.04352C16.6422 3.89938 16.7015 3.63195 16.7447 3.44871C16.7878 3.26575 16.8469 2.97948 16.8756 2.81308C16.9047 2.6464 16.9447 2.48599 16.9647 2.45659C16.9847 2.42691 17.0172 2.30618 17.0365 2.1883C17.0925 1.85208 17.1894 1.42538 17.27 1.16137C17.3106 1.02808 17.3437 0.851688 17.3437 0.768917V0.618502H21.0815H24.8194L24.9072 0.986977C25.0212 1.46619 25.2478 2.52966 25.3147 2.90185C25.3612 3.15986 25.4503 3.57715 25.5478 3.99585C25.5875 4.16596 25.6309 4.36918 25.644 4.44767C25.6678 4.5881 25.7656 5.07531 25.8825 5.63701C25.9153 5.79399 25.9762 6.06457 26.0178 6.23838C26.0597 6.4122 26.0937 6.59773 26.0937 6.65081C26.0937 6.7039 26.1262 6.87201 26.1659 7.02471C26.2056 7.17712 26.2778 7.51592 26.3265 7.77764C26.3753 8.03937 26.4406 8.33906 26.4722 8.44353C26.5034 8.54827 26.5472 8.75149 26.569 8.89563C26.5912 9.03948 26.6444 9.31776 26.6872 9.51384C26.7303 9.71021 26.7975 10.0265 26.8365 10.2171C26.8775 10.4149 26.9478 10.5984 27.0009 10.6452C27.1034 10.7354 27.0772 10.4492 26.9737 10.3487C26.9481 10.3239 26.9265 10.2277 26.9259 10.1346C26.9253 10.0419 26.9012 9.88032 26.8728 9.77557C26.844 9.67082 26.7844 9.40339 26.7397 9.18105C26.6953 8.95842 26.6247 8.6162 26.5828 8.41984C26.5409 8.22375 26.4828 7.92521 26.4531 7.75652C26.4234 7.58813 26.3775 7.41288 26.3506 7.36721C26.324 7.32183 26.3022 7.19996 26.3022 7.09635C26.3022 6.99303 26.269 6.80437 26.2284 6.67707C26.1487 6.42705 26.0665 6.02004 25.9903 5.49887C25.9637 5.3182 25.9175 5.1478 25.8878 5.12069C25.8578 5.09329 25.8334 4.97341 25.8334 4.85439C25.8337 4.73537 25.8003 4.54157 25.759 4.42398C25.6847 4.21077 25.6172 3.88597 25.5178 3.26433C25.489 3.08451 25.4428 2.89871 25.415 2.85133C25.3872 2.80395 25.3647 2.67751 25.3647 2.57048C25.3647 2.46316 25.3294 2.29847 25.2865 2.20457C25.2434 2.11067 25.2084 1.93885 25.2084 1.8224C25.2084 1.70623 25.1844 1.57009 25.155 1.52014C25.1256 1.4699 25.0809 1.27782 25.0553 1.09315C25.03 0.908487 24.9715 0.704698 24.9253 0.640194L24.8412 0.523172H21.0912H17.3412L17.2887 0.654179ZM33.4765 0.582825C33.43 0.615362 33.3659 0.759784 33.334 0.90392C33.279 1.15252 33.229 1.38 33.044 2.22398C32.9997 2.42663 32.9422 2.72603 32.9159 2.88957C32.89 3.05283 32.8444 3.22808 32.8147 3.27888C32.7847 3.32969 32.7594 3.45299 32.7581 3.5526C32.7569 3.6525 32.7222 3.81975 32.6809 3.9245C32.6394 4.02925 32.6053 4.18195 32.605 4.26386C32.6044 4.34606 32.5709 4.51731 32.5306 4.64461C32.4628 4.85725 32.4347 4.98911 32.2925 5.76031C32.2653 5.90644 32.219 6.08454 32.1894 6.1559C32.1597 6.22697 32.1353 6.35969 32.1353 6.45045C32.1353 6.54093 32.1003 6.6922 32.0572 6.7861C32.0144 6.88 31.979 7.04041 31.979 7.14287C31.979 7.24505 31.944 7.40574 31.9009 7.49965C31.8581 7.59355 31.8228 7.75053 31.8228 7.84871C31.8228 7.9469 31.7878 8.11843 31.7447 8.22946C31.7019 8.34077 31.6665 8.4969 31.6665 8.57624C31.6665 8.65559 31.6334 8.8297 31.5925 8.9627C31.4997 9.26581 31.4156 9.64085 31.3537 10.025C31.3278 10.1883 31.2819 10.3635 31.2522 10.4143C31.2222 10.4651 31.1978 10.591 31.1978 10.6943C31.1978 10.7974 31.1628 10.9586 31.1197 11.0525C31.0769 11.1464 31.0412 11.3043 31.0409 11.4033C31.0403 11.5024 31.0062 11.6687 30.965 11.7735C30.9237 11.8782 30.889 12.0612 30.8878 12.1802C30.8865 12.2992 30.8631 12.4171 30.8356 12.4419C30.8084 12.4671 30.7656 12.6429 30.7409 12.8333C30.715 13.0302 30.7153 13.1609 30.7412 13.1372C30.8034 13.0804 30.9362 12.6126 30.9369 12.4474C30.9372 12.3732 30.9712 12.1805 31.0125 12.0192C31.0537 11.858 31.1237 11.56 31.1678 11.3571C31.369 10.4352 31.415 10.2317 31.4869 9.94197C31.5287 9.77186 31.5634 9.57949 31.5637 9.51384C31.564 9.44848 31.5978 9.30948 31.639 9.20473C31.6803 9.09999 31.7156 8.93958 31.7172 8.84796C31.719 8.75634 31.754 8.59594 31.7953 8.49119C31.8365 8.38644 31.8715 8.21919 31.8728 8.11929C31.874 8.01968 31.8994 7.89638 31.929 7.84557C31.959 7.79477 32.0044 7.61952 32.03 7.45626C32.0556 7.29272 32.1028 7.05211 32.135 6.92139C32.1675 6.79067 32.229 6.52295 32.2719 6.32686C32.315 6.1305 32.3837 5.83794 32.425 5.67668C32.4662 5.51542 32.5 5.3005 32.5 5.19861C32.5 5.097 32.5253 4.99054 32.5565 4.96228C32.5875 4.93402 32.6259 4.77448 32.6415 4.60779C32.6572 4.44139 32.6887 4.28356 32.7112 4.25701C32.7337 4.23047 32.769 4.07006 32.7894 3.90024C32.8094 3.73042 32.8465 3.56801 32.8712 3.53919C32.8962 3.51036 32.9315 3.34967 32.95 3.18241C32.9681 3.01487 33.0019 2.85589 33.0247 2.82935C33.0475 2.80252 33.0812 2.66324 33.0997 2.51996C33.1181 2.37668 33.1547 2.206 33.1809 2.14064C33.2075 2.07528 33.2519 1.89318 33.28 1.7362C33.3981 1.07546 33.4509 0.826572 33.4937 0.725534L33.5394 0.618502H37.0856H40.6319L40.6006 0.725534C40.5834 0.78433 40.5453 0.918191 40.5159 1.02265C40.4865 1.1274 40.4303 1.32006 40.3909 1.45078C40.2934 1.77473 40.055 2.62927 39.9728 2.94923C39.9356 3.09336 39.869 3.32855 39.8244 3.47268C39.7797 3.61653 39.6928 3.92678 39.6315 4.16225C39.57 4.39772 39.4872 4.67115 39.4475 4.76991C39.4075 4.86838 39.375 4.99396 39.375 5.04876C39.375 5.10356 39.3372 5.25854 39.2912 5.39269C39.2453 5.52712 39.1747 5.73319 39.1347 5.85107C39.0947 5.96866 39.0622 6.10795 39.0625 6.16018C39.0628 6.2127 39.0303 6.3517 38.9903 6.46957C38.9503 6.58717 38.8797 6.79352 38.8337 6.92767C38.7878 7.0621 38.75 7.22936 38.75 7.29957C38.75 7.36978 38.7222 7.47396 38.6884 7.53104C38.6544 7.58813 38.609 7.72056 38.5875 7.82531C38.5312 8.09874 38.335 8.78175 38.1981 9.18105C38.1575 9.29864 38.1247 9.43507 38.1247 9.48387C38.125 9.53268 38.0872 9.68253 38.0412 9.81667C37.9953 9.9511 37.9247 10.1572 37.8847 10.2751C37.8447 10.3926 37.8122 10.5456 37.8122 10.6144C37.8125 10.6835 37.7775 10.8011 37.7347 10.8761C37.6919 10.9512 37.6569 11.0808 37.6565 11.1641C37.6562 11.2478 37.634 11.3285 37.6072 11.3437C37.5803 11.3588 37.5434 11.4727 37.5256 11.5963C37.5075 11.7198 37.4709 11.864 37.444 11.9162C37.4172 11.9684 37.3731 12.1077 37.3462 12.2253C37.2678 12.5684 37.0772 13.2286 36.9481 13.605C36.9075 13.7226 36.8747 13.8673 36.8747 13.9267C36.875 13.9858 36.8525 14.0714 36.825 14.1171C36.7975 14.1624 36.7506 14.3012 36.7209 14.4256C36.5819 15.0047 36.5534 15.1098 36.5103 15.1985C36.485 15.2507 36.4384 15.4006 36.4065 15.5316C36.3347 15.8256 36.2247 16.2289 36.144 16.4906C36.1006 16.6325 36.099 16.7132 36.139 16.776C36.1875 16.8519 36.195 16.8445 36.1962 16.7184C36.1972 16.6385 36.2197 16.5528 36.2459 16.528C36.2725 16.5032 36.3178 16.3759 36.3465 16.2451C36.4078 15.9663 36.5184 15.5513 36.6375 15.1509C36.7756 14.687 37.0178 13.8057 37.095 13.486C37.1265 13.3553 37.1687 13.2374 37.1887 13.2243C37.2087 13.2114 37.2422 13.0958 37.2628 12.9677C37.2834 12.8395 37.3206 12.7003 37.3453 12.6586C37.3703 12.6166 37.4047 12.4811 37.4222 12.3575C37.4397 12.2336 37.4759 12.12 37.5031 12.1049C37.53 12.0895 37.5522 12.0135 37.5522 11.9356C37.5522 11.858 37.5872 11.7173 37.6303 11.6234C37.6731 11.5295 37.7084 11.3965 37.7087 11.3277C37.7087 11.2589 37.744 11.1413 37.7869 11.0665C37.8297 10.9915 37.8644 10.8844 37.8644 10.8285C37.864 10.7728 37.8972 10.6307 37.9378 10.5128C38.0328 10.2374 38.1215 9.92056 38.1709 9.68053C38.1925 9.57578 38.2378 9.44335 38.2715 9.38626C38.3056 9.32918 38.3334 9.21016 38.3334 9.12168C38.3334 9.03348 38.3678 8.9196 38.4097 8.86908C38.4519 8.81828 38.4869 8.71524 38.4878 8.64018C38.4887 8.5654 38.5234 8.40471 38.565 8.28341C38.6547 8.02139 38.7647 7.65491 38.8806 7.2305C38.9272 7.06067 38.999 6.82492 39.0403 6.70733C39.0812 6.58945 39.115 6.4476 39.1147 6.39194C39.1147 6.33628 39.1497 6.21384 39.1928 6.11994C39.2356 6.02603 39.2709 5.88561 39.2709 5.80797C39.2709 5.73006 39.2928 5.65385 39.32 5.63872C39.3469 5.62359 39.3831 5.50971 39.4006 5.38613C39.4181 5.26254 39.4565 5.12154 39.4859 5.07274C39.5153 5.02422 39.5597 4.88493 39.584 4.76363C39.6384 4.49676 39.729 4.16568 39.8009 3.97216C39.83 3.89367 39.8722 3.75439 39.8947 3.66277C39.9865 3.28545 40.1487 2.71147 40.265 2.35213C40.2906 2.27221 40.334 2.11181 40.3615 1.99536C40.3887 1.87919 40.4497 1.65543 40.4972 1.49845C40.694 0.843411 40.7372 0.604802 40.6662 0.563702C40.5481 0.495201 33.5753 0.513753 33.4765 0.582825ZM73.5287 0.574547C73.3965 0.64476 73.3869 5.81168 73.5184 5.98322L73.5997 6.08883H77.7372H81.8747L81.8881 12.8081L81.9015 19.5275L81.9012 12.7488L81.9009 5.97009L77.7475 5.95782L73.5937 5.94555V3.28202V0.618502H85.5472H97.5009L97.4875 3.27032L97.474 5.92243L93.2812 5.93441C89.4131 5.94526 89.0834 5.9524 89.0234 6.0266C88.9719 6.09025 88.9584 7.95375 88.9584 14.9676C88.9584 21.9546 88.9722 23.8555 89.0234 23.9586C89.0759 24.0636 89.0937 22.344 89.1147 15.1009L89.1406 6.1128L93.3481 6.08883C97.0125 6.06828 97.5622 6.056 97.6053 5.99378C97.7159 5.83366 97.6681 0.627635 97.5556 0.57255C97.4162 0.504335 73.6569 0.506618 73.5287 0.574547ZM105.16 0.648471C105.101 0.717542 105.052 0.816297 105.052 0.868243C105.052 0.964999 104.915 1.38742 104.837 1.53241C104.813 1.57751 104.771 1.6951 104.745 1.79414C104.699 1.96596 104.655 2.0944 104.525 2.43804C104.492 2.5231 104.454 2.66752 104.44 2.75914C104.425 2.85047 104.381 2.96778 104.342 3.01944C104.303 3.0711 104.271 3.17128 104.271 3.24264C104.271 3.31371 104.249 3.38392 104.223 3.39876C104.197 3.41332 104.16 3.51264 104.14 3.61939C104.12 3.72613 104.071 3.87056 104.032 3.9402C103.992 4.01013 103.959 4.09861 103.959 4.13685C103.958 4.17538 103.926 4.29297 103.886 4.39858C103.846 4.50418 103.772 4.71882 103.723 4.8758C103.673 5.03278 103.614 5.19604 103.591 5.23856C103.568 5.28138 103.532 5.39697 103.512 5.49601C103.492 5.59477 103.443 5.7312 103.404 5.79913C103.366 5.86706 103.334 5.95896 103.334 6.00349C103.333 6.04801 103.312 6.13364 103.287 6.19357C103.262 6.2538 103.189 6.46358 103.125 6.65966C103.061 6.85603 102.941 7.2051 102.858 7.43543C102.776 7.66576 102.708 7.89467 102.708 7.94404C102.708 7.99342 102.686 8.04622 102.659 8.06135C102.632 8.07648 102.594 8.18494 102.575 8.30196C102.556 8.41926 102.519 8.51488 102.494 8.51488C102.469 8.51488 102.447 8.58452 102.446 8.66958C102.445 8.75463 102.411 8.87765 102.37 8.94301C102.329 9.00865 102.294 9.10484 102.293 9.15707C102.292 9.20959 102.256 9.31348 102.213 9.38855C102.17 9.46361 102.135 9.57064 102.135 9.6263C102.135 9.68224 102.1 9.78927 102.057 9.86434C102.014 9.93912 101.979 10.0422 101.979 10.0932C101.979 10.1443 101.954 10.2291 101.923 10.2819C101.869 10.3741 101.772 10.6629 101.662 11.06C101.632 11.1647 101.587 11.2706 101.559 11.2954C101.532 11.3203 101.51 11.3953 101.51 11.4618C101.51 11.5286 101.475 11.6445 101.432 11.7196C101.389 11.7943 101.354 11.8974 101.354 11.9485C101.354 11.9995 101.327 12.088 101.293 12.1454C101.259 12.2025 101.215 12.3241 101.194 12.4157C101.173 12.5073 101.13 12.6517 101.099 12.7368C101.067 12.8218 101.016 12.9608 100.984 13.0459C100.953 13.1309 100.909 13.2825 100.887 13.3827C100.864 13.4832 100.82 13.589 100.787 13.6182C100.755 13.6476 100.729 13.7229 100.729 13.7857C100.729 13.8485 100.696 13.9672 100.656 14.0497C100.615 14.1322 100.571 14.2532 100.557 14.3186C100.532 14.4319 100.507 14.5075 100.364 14.8894C100.33 14.9807 100.29 15.1095 100.277 15.1748C100.262 15.2402 100.218 15.3612 100.177 15.4437C100.137 15.5259 100.104 15.6215 100.104 15.656C100.104 15.6906 100.072 15.805 100.032 15.9103C99.9915 16.016 99.9184 16.2309 99.869 16.3879C99.8194 16.5448 99.7465 16.7435 99.7072 16.8294C99.6678 16.9153 99.6353 17.0372 99.6353 17.1C99.6353 17.163 99.614 17.2267 99.5878 17.2415C99.5615 17.2561 99.5237 17.3583 99.5034 17.4684C99.4828 17.5783 99.4472 17.7013 99.4237 17.7416C99.3606 17.8498 99.1665 18.4608 99.1665 18.5508C99.1665 18.5933 99.1447 18.6486 99.1175 18.6735C99.0906 18.6983 99.0456 18.8042 99.0181 18.909C98.9684 19.0953 98.9278 19.2155 98.8009 19.5511C98.7665 19.6428 98.7262 19.7818 98.7115 19.8602C98.6969 19.9387 98.6669 20.0244 98.6453 20.0506C98.6234 20.0769 98.589 20.1891 98.569 20.3004C98.549 20.4117 98.5112 20.5024 98.485 20.5024C98.4587 20.5024 98.4375 20.5418 98.4375 20.5898C98.4375 20.6791 98.2569 21.2597 98.1762 21.43C98.1512 21.4826 98.1153 21.6002 98.0959 21.6918C98.0765 21.7834 98.0431 21.8796 98.0215 21.9058C98 21.9321 97.9659 22.0363 97.9459 22.1376C97.9259 22.2389 97.8909 22.3568 97.8684 22.3993C97.7862 22.5537 97.649 22.9856 97.675 23.009C97.7287 23.0584 97.8056 22.9705 97.8394 22.8209C97.8734 22.6699 97.9994 22.2837 98.0756 22.0962C98.1231 21.9795 98.29 21.4814 98.41 21.0973C98.459 20.9403 98.53 20.7262 98.5672 20.6215C98.6044 20.5167 98.6753 20.3026 98.725 20.1457C98.7744 19.9887 98.8325 19.8274 98.854 19.7875C98.8753 19.7472 98.909 19.6402 98.9287 19.5497C98.9484 19.459 98.9844 19.3419 99.0087 19.2894C99.0334 19.2372 99.1047 19.034 99.1678 18.8376C99.2306 18.6415 99.3031 18.4437 99.3287 18.3983C99.354 18.3527 99.375 18.2705 99.375 18.2151C99.375 18.1597 99.4065 18.0473 99.445 17.9648C99.4834 17.8823 99.5562 17.6865 99.6069 17.5295C99.6572 17.3725 99.7278 17.1585 99.7637 17.0537C99.7997 16.949 99.8812 16.703 99.9453 16.5066C100.009 16.3105 100.081 16.107 100.105 16.0548C100.129 16.0025 100.159 15.9061 100.173 15.8407C100.187 15.7753 100.222 15.6575 100.252 15.579C100.282 15.5005 100.346 15.3078 100.394 15.1509C100.443 14.9939 100.512 14.7907 100.547 14.699C100.582 14.6074 100.652 14.4042 100.702 14.2472C100.894 13.6478 100.952 13.4812 101.022 13.3299C101.061 13.244 101.094 13.1155 101.095 13.0445C101.096 12.9734 101.132 12.8735 101.173 12.8227C101.216 12.7722 101.251 12.6757 101.252 12.6086C101.253 12.5418 101.287 12.4337 101.328 12.368C101.369 12.3027 101.403 12.1945 101.404 12.128C101.405 12.0612 101.428 11.9861 101.455 11.9613C101.482 11.9365 101.528 11.8306 101.557 11.7258C101.668 11.3288 101.765 11.0403 101.819 10.9478C101.85 10.8953 101.875 10.7997 101.875 10.7354C101.875 10.6715 101.91 10.5576 101.953 10.4826C101.996 10.4078 102.031 10.3007 102.031 10.2448C102.031 10.1889 102.066 10.0818 102.109 10.007C102.152 9.93198 102.187 9.8358 102.187 9.79298C102.187 9.75017 102.222 9.6537 102.265 9.57892C102.308 9.50385 102.343 9.39682 102.343 9.34088C102.344 9.28522 102.379 9.17819 102.422 9.10313C102.464 9.02806 102.499 8.92103 102.5 8.86537C102.5 8.80943 102.535 8.7024 102.578 8.62733C102.621 8.55256 102.656 8.45608 102.656 8.41327C102.656 8.37046 102.691 8.27427 102.734 8.19921C102.777 8.12443 102.812 8.00541 102.812 7.9352C102.812 7.8647 102.835 7.79448 102.862 7.77936C102.888 7.76423 102.927 7.65549 102.946 7.53818C102.965 7.42059 102.999 7.31413 103.022 7.301C103.045 7.28815 103.08 7.19225 103.099 7.08779C103.118 6.98361 103.155 6.886 103.182 6.87116C103.208 6.8566 103.229 6.80637 103.229 6.76013C103.229 6.67622 103.342 6.31716 103.568 5.68467C103.634 5.50144 103.727 5.22315 103.776 5.06617C103.824 4.90919 103.895 4.69513 103.932 4.59038C103.97 4.48592 104.052 4.2396 104.115 4.04352C104.177 3.84715 104.281 3.5369 104.345 3.35366C104.41 3.17043 104.515 2.86018 104.579 2.66381C104.643 2.46773 104.717 2.25794 104.744 2.19772C104.77 2.13778 104.792 2.05216 104.792 2.00763C104.792 1.96311 104.827 1.86521 104.87 1.79043C104.913 1.71536 104.949 1.60833 104.95 1.55239C104.951 1.49673 104.985 1.39741 105.026 1.33205C105.067 1.26669 105.101 1.1705 105.102 1.11827C105.103 1.06632 105.145 0.932747 105.195 0.821149L105.287 0.618787L109.874 0.618502H114.462L114.519 0.725534C114.55 0.78433 114.626 0.99297 114.687 1.18934C114.749 1.38542 114.818 1.58892 114.841 1.64116C114.879 1.72849 114.96 1.96853 115.185 2.66381C115.232 2.80766 115.287 2.96835 115.309 3.02058C115.383 3.20068 115.511 3.5917 115.546 3.74554C115.565 3.83031 115.602 3.91194 115.629 3.92678C115.655 3.94163 115.677 4.00813 115.677 4.07463C115.677 4.14113 115.708 4.26301 115.746 4.34549C115.848 4.56612 115.99 4.97398 115.99 5.04876C115.99 5.08444 116.022 5.16921 116.061 5.23714C116.099 5.30507 116.148 5.4415 116.168 5.54025C116.188 5.63929 116.226 5.75489 116.251 5.79741C116.276 5.83994 116.31 5.95525 116.327 6.05315C116.345 6.15133 116.381 6.23153 116.409 6.23153C116.436 6.23153 116.458 6.29062 116.459 6.36254C116.459 6.43447 116.494 6.55463 116.537 6.62941C116.58 6.70447 116.615 6.80836 116.615 6.86031C116.615 6.91197 116.646 7.02214 116.684 7.10434C116.774 7.30014 116.908 7.68945 116.952 7.88411C116.972 7.96887 117.009 8.0505 117.035 8.06535C117.062 8.08019 117.083 8.15126 117.083 8.22318C117.083 8.29511 117.118 8.39557 117.16 8.44638C117.202 8.49718 117.237 8.60422 117.238 8.68413C117.239 8.76434 117.274 8.87137 117.316 8.92217C117.358 8.97298 117.393 9.05432 117.394 9.10313C117.396 9.20017 117.525 9.58948 117.637 9.83665C117.676 9.92256 117.708 10.0342 117.708 10.0847C117.708 10.1352 117.741 10.2471 117.78 10.333C117.82 10.4189 117.927 10.7137 118.018 10.9886C118.109 11.2632 118.208 11.5523 118.238 11.6308C118.268 11.7093 118.305 11.8323 118.319 11.9042C118.333 11.9761 118.377 12.0352 118.417 12.0352C118.457 12.0352 118.49 12.0601 118.49 12.0906C118.49 12.1211 118.503 12.134 118.519 12.1189C118.536 12.1037 118.512 12.0264 118.467 11.9467C118.422 11.8671 118.385 11.7666 118.385 11.7236C118.385 11.6805 118.354 11.5777 118.315 11.4952C118.277 11.4127 118.204 11.2169 118.153 11.06C117.943 10.4121 117.901 10.2916 117.832 10.1426C117.793 10.0567 117.76 9.93883 117.758 9.88089C117.757 9.82295 117.723 9.7222 117.682 9.65655C117.641 9.59119 117.606 9.48416 117.604 9.4188C117.602 9.35344 117.567 9.25839 117.524 9.20759C117.482 9.15678 117.448 9.06659 117.448 9.00694C117.448 8.94757 117.416 8.82855 117.377 8.74264C117.265 8.49547 117.136 8.10616 117.134 8.00912C117.133 7.96031 117.098 7.87868 117.056 7.82788C117.013 7.77736 116.978 7.67033 116.977 7.59013C116.977 7.51021 116.942 7.40318 116.899 7.35237C116.857 7.30157 116.823 7.2011 116.823 7.12917C116.823 7.05725 116.802 6.98618 116.775 6.97162C116.749 6.95678 116.712 6.85746 116.692 6.75071C116.672 6.64396 116.623 6.49983 116.583 6.4299C116.544 6.35997 116.511 6.27378 116.511 6.2381C116.51 6.16332 116.369 5.75546 116.267 5.53454C116.229 5.45234 116.198 5.34217 116.198 5.29051C116.198 5.23856 116.163 5.13467 116.12 5.05961C116.077 4.98483 116.042 4.88579 116.042 4.83955C116.042 4.79331 116.021 4.71853 115.995 4.67315C115.953 4.59752 115.884 4.39573 115.649 3.66277C115.603 3.51892 115.547 3.36851 115.524 3.32826C115.501 3.2883 115.466 3.18127 115.446 3.09051C115.427 2.99975 115.391 2.88272 115.366 2.83049C115.299 2.6855 115.156 2.24881 115.156 2.18659C115.156 2.15605 115.125 2.06386 115.086 1.98137C115.048 1.89889 114.978 1.71365 114.932 1.5698C114.707 0.875378 114.613 0.637339 114.539 0.582825C114.477 0.536301 113.463 0.523172 109.864 0.523172H105.268L105.16 0.648471ZM56.7709 5.23799C56.6419 5.26083 56.3934 5.2985 56.2187 5.32191C56.044 5.34531 55.8522 5.38812 55.7925 5.41752C55.7328 5.44664 55.6281 5.47061 55.5603 5.47061C55.4922 5.47061 55.3909 5.50201 55.3356 5.54025C55.28 5.57878 55.1875 5.61161 55.1303 5.61332C55.0728 5.61475 54.9806 5.64757 54.925 5.6861C54.8694 5.72463 54.794 5.75603 54.7575 5.75603C54.624 5.75603 53.7756 6.25408 53.3397 6.58831C52.8459 6.96706 51.875 7.98942 51.875 8.13071C51.875 8.15896 51.8531 8.18208 51.8265 8.18208C51.7997 8.18208 51.7612 8.23003 51.7412 8.28911C51.7212 8.34791 51.6881 8.40671 51.6678 8.41984C51.6284 8.44495 51.5619 8.55484 51.3597 8.92759C51.2912 9.05375 51.1681 9.28066 51.0862 9.43136C51.0044 9.58234 50.9369 9.74275 50.9359 9.78813C50.935 9.83351 50.8997 9.91229 50.8578 9.96309C50.8156 10.0139 50.7812 10.0915 50.7812 10.1361C50.7812 10.1803 50.7462 10.2779 50.7034 10.353C50.6606 10.4278 50.6256 10.5359 50.6253 10.5933C50.625 10.6507 50.6044 10.7092 50.579 10.7234C50.5534 10.738 50.5165 10.8493 50.4965 10.9712C50.4765 11.0931 50.4397 11.2272 50.4147 11.2692C50.3465 11.3836 50.18 12.2536 50.054 13.1529C49.9903 13.6082 49.9897 16.1344 50.0531 16.6733C50.1294 17.32 50.3425 18.4352 50.4125 18.5539C50.4365 18.5941 50.4725 18.7171 50.4928 18.8273C50.5131 18.9372 50.5512 19.0394 50.5775 19.0542C50.6037 19.0691 50.625 19.1353 50.625 19.2018C50.625 19.314 50.6787 19.4532 50.8615 19.8129C50.9012 19.8914 50.9484 20.0127 50.9665 20.0829C50.9844 20.1528 51.0437 20.247 51.0984 20.2924C51.2234 20.3957 51.2222 20.3409 51.0937 20.0983C51.0384 19.9935 50.9922 19.8748 50.9912 19.8343C50.9903 19.7937 50.97 19.7401 50.9462 19.7153C50.8728 19.639 50.609 18.9038 50.5147 18.5131C50.3725 17.9234 50.3053 17.5952 50.2603 17.2678C50.2331 17.0717 50.1856 16.7612 50.1544 16.5779C50.0315 15.8567 50.14 12.8715 50.3125 12.2253C50.3369 12.1337 50.3806 11.941 50.4097 11.7972C50.52 11.2489 50.5781 11.0091 50.6231 10.9172C50.6487 10.865 50.7212 10.6615 50.7837 10.4654C50.8465 10.2691 50.9187 10.0881 50.9437 10.0633C50.969 10.0384 50.9897 9.98906 50.9897 9.95367C50.9897 9.89545 51.0578 9.74047 51.2797 9.29264C51.3206 9.21016 51.354 9.13024 51.354 9.11511C51.354 9.09999 51.4478 8.94757 51.5625 8.77661C51.6772 8.60564 51.7709 8.45637 51.7709 8.44524C51.7709 8.41156 52.0859 7.98857 52.339 7.6826C52.7437 7.19339 53.7281 6.35541 54.0625 6.21555C54.1053 6.19757 54.2578 6.11822 54.4009 6.03916C54.6797 5.88532 54.7412 5.85849 55.104 5.73262C55.2331 5.68781 55.4156 5.62131 55.5097 5.58478C55.6037 5.54796 55.7356 5.51799 55.8028 5.51799C55.8697 5.51799 56.0156 5.48231 56.1265 5.43836C56.4219 5.32162 58.68 5.32276 58.9697 5.43979C59.0762 5.48288 59.2219 5.51799 59.2934 5.51799C59.365 5.51799 59.5122 5.55252 59.6206 5.59477C59.729 5.63672 59.8881 5.69866 59.974 5.73177C60.3231 5.86677 60.8453 6.11623 60.8962 6.17217C60.9259 6.20471 60.9734 6.23153 61.0019 6.23153C61.0706 6.23153 61.7694 6.7313 62.1015 7.01786C62.3778 7.2559 63.1103 8.11415 63.2809 8.39986C63.3425 8.50232 63.4375 8.65045 63.4925 8.72894C63.5475 8.80743 63.6072 8.9039 63.6247 8.94301C63.6425 8.98239 63.7225 9.1428 63.8025 9.29978C63.8825 9.45676 63.9881 9.68167 64.0369 9.79926C64.0859 9.91714 64.1584 10.0701 64.1984 10.1398C64.2381 10.2091 64.2709 10.319 64.2709 10.3835C64.2709 10.4483 64.3037 10.5262 64.3437 10.5565C64.3837 10.5867 64.4284 10.6912 64.4431 10.7882C64.4694 10.9638 64.5275 11.1813 64.6669 11.6242C64.7069 11.7515 64.7397 11.9256 64.7397 12.011C64.7397 12.096 64.7747 12.257 64.8178 12.368C64.8606 12.4793 64.8962 12.7122 64.8969 12.8855C64.8972 13.0587 64.9325 13.3504 64.975 13.5337C65.0622 13.9101 65.0853 15.7542 65.0053 15.9469C64.894 16.2143 64.8762 16.7284 64.9812 16.6359C65.0984 16.5331 65.1581 13.6824 65.054 13.1529C65.0231 12.9959 64.9753 12.69 64.9475 12.4728C64.9197 12.2559 64.8731 12.0378 64.8444 11.9884C64.8153 11.939 64.7915 11.8217 64.7915 11.7275C64.7915 11.6334 64.7565 11.4795 64.7134 11.3856C64.6706 11.2917 64.6347 11.1587 64.6334 11.0899C64.6325 11.0211 64.5981 10.9113 64.5572 10.8459C64.5162 10.7805 64.4819 10.6841 64.4806 10.6318C64.4794 10.5796 64.4434 10.4754 64.4006 10.4004C64.3578 10.3256 64.3228 10.2354 64.3228 10.2C64.3228 10.1646 64.2853 10.0547 64.239 9.95567C64.1928 9.85663 64.1253 9.71135 64.089 9.63286C63.9487 9.32889 63.4194 8.38188 63.32 8.25572C62.3169 6.98675 61.4528 6.24695 60.4947 5.8368C60.3803 5.788 60.2244 5.7175 60.1481 5.68039C60.0722 5.64357 59.9665 5.61246 59.9137 5.61161C59.8609 5.61075 59.7722 5.57878 59.7165 5.54025C59.6609 5.50201 59.5544 5.47061 59.4797 5.47061C59.405 5.47061 59.3209 5.44977 59.2931 5.42437C59.2653 5.39897 59.0906 5.35701 58.905 5.33161C58.7197 5.30592 58.4272 5.26254 58.2553 5.23543C57.8912 5.17749 57.1081 5.17891 56.7709 5.23799ZM109.486 5.66898C109.431 5.78229 109.346 6.04601 109.297 6.25551C109.248 6.46472 109.175 6.73644 109.135 6.85888C109.095 6.98161 109.062 7.12946 109.062 7.18769C109.062 7.24591 109.029 7.40261 108.988 7.53561C108.947 7.66861 108.874 7.9489 108.827 8.15811C108.78 8.3676 108.708 8.63504 108.667 8.75292C108.627 8.87051 108.593 9.0078 108.593 9.05774C108.594 9.10798 108.56 9.25782 108.519 9.39083C108.449 9.61745 108.405 9.77329 108.2 10.5248C108.155 10.6883 108.094 10.8864 108.064 10.9649C108.034 11.0434 107.998 11.1718 107.984 11.2503C107.971 11.3288 107.927 11.4604 107.886 11.5429C107.846 11.6254 107.812 11.7547 107.812 11.8306C107.812 11.9065 107.789 11.9898 107.761 12.0158C107.732 12.0415 107.687 12.1582 107.659 12.275C107.576 12.632 107.492 12.9078 107.416 13.0713C107.376 13.1572 107.344 13.2779 107.344 13.3396C107.344 13.401 107.309 13.5126 107.266 13.5876C107.223 13.6627 107.188 13.7637 107.188 13.8125C107.187 13.8613 107.15 14.0112 107.104 14.1456C107.058 14.28 106.987 14.4861 106.947 14.604C106.907 14.7216 106.875 14.8649 106.875 14.9222C106.875 14.9796 106.853 15.039 106.826 15.0541C106.799 15.0692 106.761 15.1831 106.741 15.3067C106.722 15.4303 106.685 15.5553 106.66 15.5841C106.635 15.6132 106.592 15.7308 106.565 15.8458C106.485 16.1863 106.396 16.4726 106.317 16.6387C106.166 16.9593 106.217 16.9827 107.048 16.979C107.454 16.9772 107.828 16.9607 107.879 16.9424C107.93 16.9239 107.621 16.9093 107.193 16.9099C106.372 16.911 106.316 16.9007 106.399 16.7612C106.448 16.6787 106.476 16.5888 106.632 16.0231C106.665 15.9009 106.71 15.7851 106.732 15.7654C106.753 15.7457 106.771 15.6637 106.771 15.583C106.771 15.5025 106.807 15.3752 106.849 15.3001C106.892 15.2251 106.927 15.1135 106.927 15.0521C106.927 14.9904 106.96 14.8697 106.999 14.7838C107.075 14.6203 107.159 14.3445 107.243 13.9875C107.27 13.8708 107.316 13.754 107.344 13.7283C107.372 13.7024 107.396 13.6373 107.396 13.5836C107.395 13.53 107.428 13.3898 107.468 13.2719C107.508 13.1541 107.578 12.948 107.625 12.8136C107.671 12.6794 107.709 12.5187 107.71 12.4568C107.711 12.3949 107.746 12.3027 107.788 12.2519C107.83 12.2013 107.865 12.1174 107.865 12.0658C107.865 11.9741 107.975 11.5823 108.082 11.2977C108.111 11.2192 108.156 11.0597 108.182 10.9429C108.209 10.8262 108.253 10.7097 108.282 10.6838C108.31 10.6578 108.333 10.5759 108.333 10.502C108.333 10.4278 108.368 10.2902 108.412 10.1963C108.454 10.1024 108.49 9.95852 108.492 9.87689C108.492 9.79498 108.527 9.67453 108.568 9.60917C108.609 9.54381 108.643 9.42308 108.644 9.34145C108.645 9.25954 108.681 9.11568 108.724 9.02178C108.767 8.92788 108.802 8.7689 108.802 8.66872C108.802 8.56854 108.827 8.4635 108.858 8.43553C108.888 8.40756 108.934 8.26971 108.959 8.12871C109.014 7.81618 109.109 7.43115 109.326 6.63597C109.361 6.50525 109.401 6.32315 109.413 6.23153C109.425 6.13992 109.468 5.99778 109.509 5.91529C109.55 5.83281 109.583 5.72977 109.583 5.68639C109.583 5.643 109.607 5.62074 109.635 5.63701C109.664 5.65328 109.688 5.74547 109.689 5.84194C109.69 5.9387 109.725 6.07113 109.766 6.13649C109.807 6.20185 109.842 6.33029 109.844 6.42191C109.846 6.51353 109.881 6.64197 109.922 6.70733C109.963 6.77269 109.997 6.89713 109.998 6.9839C109.999 7.07066 110.028 7.18854 110.062 7.24563C110.096 7.30271 110.14 7.4457 110.16 7.56358C110.18 7.68117 110.221 7.84186 110.25 7.92035C110.31 8.07847 110.399 8.39015 110.469 8.68156C110.537 8.96812 110.631 9.27894 110.71 9.47931C110.749 9.57778 110.781 9.7182 110.781 9.7907C110.781 9.86348 110.802 9.9434 110.828 9.96823C110.853 9.99306 110.899 10.1098 110.929 10.2274C111.042 10.6689 111.108 10.8733 111.178 10.996C111.218 11.0654 111.25 11.1753 111.25 11.2403C111.25 11.3051 111.285 11.4196 111.328 11.4946C111.371 11.5694 111.406 11.6765 111.406 11.7324C111.406 11.7883 111.441 11.8954 111.484 11.9702C111.527 12.0452 111.562 12.1617 111.562 12.2293C111.562 12.297 111.58 12.3683 111.602 12.388C111.638 12.4214 111.666 12.5096 111.83 13.1055C111.866 13.2363 111.91 13.3541 111.927 13.367C111.944 13.3801 111.988 13.498 112.024 13.6287C112.188 14.2247 112.216 14.3129 112.252 14.3463C112.274 14.366 112.292 14.4373 112.292 14.5047C112.293 14.602 112.304 14.6128 112.344 14.5563C112.395 14.4861 112.368 14.2726 112.291 14.1296C112.27 14.0897 112.225 13.9607 112.192 13.8428C112.136 13.6398 112.095 13.5097 111.901 12.9266C111.855 12.7896 111.793 12.5809 111.762 12.4634C111.732 12.3455 111.689 12.2279 111.667 12.2016C111.644 12.1754 111.61 12.0632 111.59 11.9522C111.57 11.8411 111.535 11.7395 111.512 11.7267C111.489 11.7138 111.455 11.6071 111.435 11.4898C111.416 11.3722 111.378 11.2637 111.351 11.2486C111.324 11.2332 111.302 11.1664 111.302 11.0999C111.302 11.0337 111.269 10.9118 111.228 10.8293C111.188 10.7469 111.143 10.6153 111.13 10.5368C111.117 10.4583 111.082 10.3299 111.052 10.2514C111.022 10.1729 110.964 9.99078 110.922 9.84693C110.879 9.70308 110.807 9.46218 110.762 9.31148C110.511 8.47949 110.42 8.15754 110.369 7.92035C110.347 7.81561 110.3 7.63379 110.265 7.51592C110.229 7.39832 110.169 7.18426 110.13 7.04041C109.986 6.50354 109.888 6.15362 109.816 5.92243C109.775 5.79171 109.736 5.64357 109.728 5.59334C109.701 5.42494 109.587 5.46062 109.486 5.66898ZM20.7347 8.125C20.6465 8.27541 20.6575 8.44638 20.7509 8.3756C20.8094 8.33107 20.8297 8.33735 20.849 8.40528C20.8625 8.45266 20.8756 8.41641 20.8784 8.32479C20.8859 8.0956 20.8119 7.99313 20.7347 8.125Z" fill="#848484"/>
</g>
<defs>
<clipPath id="clip0_17_227">
<rect width="125" height="29.4944" fill="white"/>
</clipPath>
</defs>
</svg>
