<svg width="48" height="49" viewBox="0 0 48 49" fill="none" xmlns="http://www.w3.org/2000/svg">
<circle cx="24" cy="24.25" r="24" fill="#FF7315"/>
<path d="M24 14.25L22.6985 19.456C22.4445 20.4718 22.3176 20.9798 22.0531 21.3931C21.8192 21.7587 21.5087 22.0692 21.1431 22.3031C20.7298 22.5676 20.2218 22.6945 19.206 22.9485L14 24.25L19.206 25.5515C20.2218 25.8055 20.7298 25.9324 21.1431 26.1969C21.5087 26.4308 21.8192 26.7413 22.0531 27.1069C22.3176 27.5202 22.4445 28.0282 22.6985 29.044L24 34.25L25.3015 29.044C25.5555 28.0282 25.6824 27.5202 25.9469 27.1069C26.1808 26.7413 26.4913 26.4308 26.8569 26.1969C27.2702 25.9324 27.7782 25.8055 28.794 25.5515L34 24.25L28.794 22.9485C27.7782 22.6945 27.2702 22.5676 26.8569 22.3031C26.4913 22.0692 26.1808 21.7587 25.9469 21.3931C25.6824 20.9798 25.5555 20.4718 25.3015 19.456L24 14.25Z" stroke="white" stroke-width="2" stroke-linecap="round" stroke-linejoin="round"/>
</svg>
