<svg width="48" height="49" viewBox="0 0 48 49" fill="none" xmlns="http://www.w3.org/2000/svg">
<circle cx="24" cy="24.25" r="24" fill="#FF7315"/>
<path d="M32.5 28.25H20M20 28.25V15.75M20 28.25L15.5 32.75M15.5 20.25H28M28 20.25V32.75M28 20.25L32.5 15.75M33 27.5873V16.05C33 15.77 33 15.63 32.9455 15.523C32.8976 15.4289 32.8211 15.3524 32.727 15.3045C32.62 15.25 32.48 15.25 32.2 15.25H20.6627C20.4182 15.25 20.2959 15.25 20.1808 15.2776C20.0787 15.3021 19.9812 15.3425 19.8917 15.3974C19.7908 15.4592 19.7043 15.5457 19.5314 15.7186L15.4686 19.7814C15.2957 19.9543 15.2092 20.0408 15.1474 20.1417C15.0925 20.2312 15.0521 20.3287 15.0276 20.4308C15 20.5459 15 20.6682 15 20.9127V32.45C15 32.73 15 32.87 15.0545 32.977C15.1024 33.0711 15.1789 33.1476 15.273 33.1955C15.38 33.25 15.52 33.25 15.8 33.25H27.3373C27.5818 33.25 27.7041 33.25 27.8192 33.2224C27.9213 33.1979 28.0188 33.1575 28.1083 33.1026C28.2092 33.0408 28.2957 32.9543 28.4686 32.7814L32.5314 28.7186C32.7043 28.5457 32.7908 28.4592 32.8526 28.3583C32.9075 28.2688 32.9479 28.1713 32.9724 28.0692C33 27.9541 33 27.8318 33 27.5873Z" stroke="white" stroke-width="2" stroke-linecap="round" stroke-linejoin="round"/>
</svg>
