<svg width="125" height="30" viewBox="0 0 125 30" fill="none" xmlns="http://www.w3.org/2000/svg">
<g clip-path="url(#clip0_17_227)">
<path fill-rule="evenodd" clip-rule="evenodd" d="M55.7851 0.234861C55.7441 0.258551 55.4916 0.292801 55.2241 0.311067C54.9569 0.329334 54.7263 0.361872 54.7116 0.383564C54.6969 0.40497 54.521 0.437222 54.3207 0.455489C54.1201 0.47347 53.9444 0.505437 53.9301 0.526844C53.9157 0.547965 53.7932 0.579931 53.6576 0.597913C53.5222 0.615609 53.3882 0.646719 53.3594 0.666413C53.3307 0.686392 53.2019 0.724353 53.0729 0.751182C52.9441 0.777726 52.7566 0.825962 52.6563 0.858499C52.3441 0.959252 52.0641 1.05686 51.8932 1.12422C51.8029 1.1599 51.7141 1.1893 51.6957 1.1893C51.6319 1.1893 50.3172 1.75557 50.2604 1.80751C50.2241 1.84091 50.0463 1.94138 49.9219 1.99874C49.8647 2.02529 49.7476 2.08922 49.6616 2.14088C49.5757 2.19254 49.4701 2.24963 49.4272 2.26761C49.356 2.29786 48.7591 2.69031 48.6091 2.80562C48.5744 2.83245 48.5269 2.85414 48.5035 2.85414C48.4801 2.85414 48.4241 2.89153 48.3797 2.93749C48.3351 2.98315 48.2122 3.08476 48.1066 3.16325C48.001 3.24174 47.8466 3.36504 47.7635 3.43697C47.6804 3.50889 47.6001 3.56769 47.5854 3.56769C47.5529 3.56769 46.7188 4.32576 46.7188 4.35544C46.7188 4.36686 46.6779 4.41452 46.6276 4.46133C46.5776 4.50786 46.4429 4.65114 46.3282 4.77929C46.2135 4.90773 46.0788 5.05129 46.0288 5.09896C45.9785 5.14634 45.9376 5.2037 45.9376 5.22682C45.9376 5.24966 45.9038 5.29418 45.8622 5.32558C45.5585 5.55591 44.4673 7.28298 43.9819 8.30078C43.7788 8.72748 43.7501 8.79712 43.7501 8.86419C43.7501 8.90444 43.7294 8.94925 43.7038 8.96352C43.6785 8.97779 43.6413 9.06998 43.621 9.16845C43.601 9.26692 43.5682 9.36881 43.5479 9.39507C43.5279 9.42104 43.4688 9.57089 43.4169 9.72787C43.3651 9.88485 43.2916 10.0989 43.2538 10.2037C43.216 10.3084 43.1688 10.4902 43.1491 10.6081C43.1294 10.7257 43.0951 10.8436 43.0729 10.8695C43.0507 10.8958 43.0169 11.0348 42.9976 11.1789C42.9782 11.3228 42.9407 11.494 42.9138 11.5594C42.7507 11.957 42.5876 13.7263 42.5894 15.0795C42.5916 16.8082 42.6985 17.6785 43.1241 19.4321C43.156 19.5631 43.1929 19.7181 43.2066 19.7772C43.2219 19.8439 43.2694 19.8842 43.3332 19.8842C43.3894 19.8842 43.5238 19.9136 43.6319 19.9493C43.8201 20.0118 44.0369 20.0549 44.896 20.1996C46.8854 20.5349 51.6235 20.5695 51.0476 20.2441C51.0219 20.2298 50.986 20.159 50.9676 20.0868C50.9491 20.0146 50.9013 19.8913 50.8616 19.8128C50.6788 19.4532 50.6251 19.3139 50.6251 19.2018C50.6251 19.1352 50.6038 19.069 50.5776 19.0542C50.5513 19.0393 50.5132 18.9372 50.4929 18.8273C50.4726 18.7171 50.4366 18.5941 50.4126 18.5539C50.3426 18.4351 50.1294 17.32 50.0532 16.6732C49.9897 16.1344 49.9904 13.6081 50.0541 13.1529C50.1801 12.2535 50.3466 11.3836 50.4147 11.2691C50.4397 11.2272 50.4766 11.093 50.4966 10.9711C50.5166 10.8493 50.5535 10.738 50.5791 10.7234C50.6044 10.7091 50.6251 10.6506 50.6254 10.5933C50.6257 10.5359 50.6607 10.4277 50.7035 10.3529C50.7463 10.2779 50.7813 10.1803 50.7813 10.136C50.7813 10.0915 50.8157 10.0139 50.8579 9.96305C50.8997 9.91225 50.9351 9.83347 50.936 9.78809C50.9369 9.74271 51.0044 9.5823 51.0863 9.43132C51.1682 9.28062 51.2913 9.05371 51.3597 8.92756C51.5619 8.5548 51.6285 8.44491 51.6679 8.4198C51.6882 8.40667 51.7213 8.34787 51.7413 8.28907C51.7613 8.22999 51.7997 8.18204 51.8266 8.18204C51.8532 8.18204 51.8751 8.15892 51.8751 8.13067C51.8751 7.98939 52.846 6.96702 53.3397 6.58827C53.7757 6.25404 54.6241 5.75599 54.7576 5.75599C54.7941 5.75599 54.8694 5.72459 54.9251 5.68606C54.9807 5.64753 55.0729 5.61471 55.1304 5.61328C55.1876 5.61157 55.2801 5.57874 55.3357 5.54021C55.391 5.50197 55.4922 5.47057 55.5604 5.47057C55.6282 5.47057 55.7329 5.4466 55.7926 5.41748C55.8522 5.38809 56.0441 5.34556 56.2188 5.32244C56.3935 5.29932 56.6538 5.2605 56.7969 5.23567C57.1494 5.17488 57.8738 5.17459 58.2554 5.23539C58.4272 5.2625 58.7197 5.30588 58.9051 5.33157C59.0907 5.35697 59.2654 5.39893 59.2932 5.42433C59.321 5.44974 59.4051 5.47057 59.4798 5.47057C59.5544 5.47057 59.661 5.50197 59.7166 5.54021C59.7723 5.57874 59.861 5.61071 59.9138 5.61157C59.9666 5.61242 60.0723 5.64353 60.1482 5.68035C60.2244 5.71746 60.3804 5.78796 60.4947 5.83676C61.4529 6.24691 62.3169 6.98671 63.3201 8.25568C63.4194 8.38184 63.9488 9.32885 64.0891 9.63282C64.1254 9.71131 64.1929 9.85659 64.2391 9.95563C64.2854 10.0547 64.3229 10.1646 64.3229 10.1999C64.3229 10.2353 64.3579 10.3255 64.4007 10.4003C64.4435 10.4754 64.4794 10.5796 64.4807 10.6318C64.4819 10.684 64.5163 10.7805 64.5572 10.8458C64.5982 10.9112 64.6326 11.0211 64.6335 11.0899C64.6348 11.1587 64.6707 11.2917 64.7135 11.3856C64.7566 11.4795 64.7916 11.6333 64.7916 11.7275C64.7916 11.8217 64.8154 11.939 64.8444 11.9884C64.8732 12.0378 64.9197 12.2558 64.9476 12.4727C64.9757 12.6899 65.021 12.9745 65.0482 13.1055C65.1107 13.4043 65.1176 16.2303 65.0563 16.4712C64.9985 16.6983 65.0104 16.7026 65.4166 16.601C65.9366 16.4709 66.2538 16.4018 66.5104 16.3621C67.0438 16.2802 67.4382 16.2183 67.7085 16.1743C68.5251 16.041 70.6251 15.9885 71.8491 16.0707C72.5357 16.1167 72.4457 16.1755 72.5023 15.6432C72.6316 14.4227 72.4548 12.2604 72.1063 10.7982C72.0594 10.6021 72.0026 10.3558 71.9798 10.2513C71.9569 10.1466 71.9144 9.99673 71.8851 9.91824C71.856 9.83975 71.7926 9.64709 71.7441 9.49011C71.696 9.33313 71.6235 9.13448 71.5835 9.04857C71.5432 8.96266 71.5104 8.85877 71.5104 8.81796C71.5104 8.77714 71.4782 8.68695 71.4391 8.61731C71.2988 8.36985 71.1979 8.12981 71.1979 8.04333C71.1979 7.99509 71.1629 7.92916 71.1198 7.89663C71.0769 7.86409 71.0416 7.80957 71.0416 7.77561C71.0416 7.74164 71.0079 7.65345 70.966 7.57924C70.9244 7.50532 70.8404 7.34834 70.7788 7.23046C70.7176 7.11287 70.5882 6.88796 70.4913 6.73098C70.3944 6.574 70.2907 6.40275 70.261 6.35051C70.2313 6.29828 70.1607 6.19125 70.1041 6.11276C70.0476 6.03427 69.9851 5.9378 69.9654 5.8987C69.9457 5.85931 69.916 5.8165 69.8997 5.80337C69.8288 5.74686 69.6354 5.47 69.6354 5.4249C69.6354 5.3975 69.6135 5.37524 69.5869 5.37524C69.5601 5.37524 69.5251 5.33785 69.5088 5.29218C69.4929 5.24623 69.4032 5.13121 69.3101 5.03616C69.2169 4.94112 69.0772 4.79128 68.9997 4.70308C68.6454 4.30064 68.5401 4.19418 68.1185 3.81029C67.8716 3.58538 67.5551 3.31252 67.4154 3.20407C67.2757 3.09561 67.1029 2.95889 67.0313 2.90038C66.9597 2.84187 66.7807 2.72285 66.6335 2.6358C66.4863 2.54875 66.3341 2.44885 66.2951 2.41374C66.0938 2.23279 64.5313 1.45017 63.9569 1.24267C63.8576 1.20671 63.7119 1.14963 63.6335 1.11595C63.5551 1.08198 63.4204 1.04003 63.3344 1.0229C63.2485 1.00578 63.1651 0.97181 63.1485 0.947835C63.1322 0.923575 63.0751 0.903881 63.0213 0.903881C62.9676 0.903881 62.8576 0.878764 62.7769 0.847939C62.2841 0.660705 61.0735 0.402972 60.3385 0.329049C60.0807 0.303076 59.8019 0.261405 59.7188 0.236003C59.5266 0.177777 55.8857 0.17635 55.7851 0.234861ZM0.833496 0.645292C0.833496 0.660134 0.855996 0.710938 0.883809 0.758032C0.911309 0.805126 0.957246 0.958967 0.985996 1.09968C1.01443 1.24067 1.07568 1.4947 1.12193 1.66481C1.16818 1.83491 1.22975 2.08123 1.25881 2.21195C1.28787 2.34267 1.32537 2.48196 1.34256 2.52106C1.35943 2.56045 1.40256 2.71029 1.43818 2.85414C1.57506 3.405 1.781 4.20588 1.90318 4.6617C1.94881 4.83181 2.00787 5.06385 2.03412 5.17745C2.06037 5.29076 2.10475 5.46201 2.13225 5.55791C2.16006 5.65381 2.25662 6.02114 2.34725 6.3742C2.43756 6.72755 2.54412 7.11686 2.58381 7.23959C2.62381 7.36204 2.65631 7.50589 2.65631 7.55898C2.65631 7.61206 2.68787 7.74707 2.72631 7.85924C2.76475 7.9714 2.83756 8.23427 2.88818 8.44349C2.93881 8.65298 3.01037 8.93127 3.04725 9.06199C3.08412 9.19271 3.15475 9.47099 3.20443 9.68049C3.25412 9.8897 3.32537 10.168 3.36287 10.2987C3.40006 10.4297 3.46506 10.6652 3.50725 10.8222C3.54912 10.9791 3.61256 11.2146 3.64818 11.3453C3.6835 11.4761 3.72818 11.6796 3.74725 11.7971C3.76631 11.915 3.81006 12.058 3.84412 12.1151C3.8785 12.1725 3.90631 12.2821 3.90631 12.3591C3.90631 12.4362 3.94131 12.5761 3.98443 12.67C4.02756 12.7639 4.06318 12.9003 4.06412 12.9731C4.06506 13.0459 4.10818 13.2168 4.15975 13.353L4.2535 13.6007L4.53568 13.4611C4.89912 13.281 7.626 12.0437 8.086 11.8502C8.27943 11.7686 8.59568 11.6359 8.78912 11.5551C8.98256 11.4741 9.28131 11.3488 9.45318 11.2765C9.62506 11.2043 9.91193 11.0939 10.091 11.0311C10.2929 10.9603 10.4069 10.8949 10.3922 10.8584C10.3791 10.8259 10.3535 10.6869 10.3354 10.549C10.3169 10.4114 10.2691 10.1931 10.2291 10.0641C10.1891 9.93508 10.156 9.75327 10.1554 9.65994C10.1551 9.56661 10.121 9.40449 10.0797 9.29974C10.0385 9.19528 10.0035 9.02403 10.0019 8.91928C10.0001 8.81453 9.96412 8.62387 9.92131 8.49543C9.87881 8.36699 9.84381 8.17833 9.84381 8.07615C9.84381 7.97397 9.82006 7.84982 9.79131 7.80044C9.76225 7.75106 9.72381 7.57582 9.706 7.41113C9.68787 7.24644 9.65537 7.09032 9.6335 7.06406C9.61162 7.0378 9.57662 6.86655 9.55568 6.6836C9.53475 6.50036 9.49568 6.29714 9.46881 6.23178C9.44193 6.16671 9.39975 5.98461 9.37506 5.82763C9.30693 5.39379 9.17975 4.75588 9.11912 4.54296C9.08943 4.43821 9.06443 4.27581 9.06381 4.18219C9.06318 4.08829 9.04506 3.99582 9.0235 3.97641C9.00193 3.95671 8.95725 3.77661 8.92381 3.57597C8.8635 3.21348 8.77412 2.75196 8.62256 2.02158C8.57912 1.81237 8.5185 1.50212 8.48818 1.33201C8.45787 1.1619 8.40568 0.931852 8.37193 0.820539L8.31068 0.618463H4.57193C2.51568 0.618463 0.833496 0.63045 0.833496 0.645292ZM17.3438 0.768878C17.3438 0.851649 17.3107 1.02804 17.2701 1.16133C17.1894 1.42534 17.0926 1.85204 17.0366 2.18826C17.0172 2.30614 16.9847 2.42687 16.9647 2.45656C16.9447 2.48595 16.9047 2.64636 16.8757 2.81304C16.8469 2.97944 16.7879 3.26572 16.7447 3.44867C16.7016 3.63191 16.6422 3.89934 16.6122 4.04348C16.5826 4.18733 16.5251 4.44421 16.4841 4.61432C16.4435 4.78414 16.3719 5.09468 16.3254 5.30389C16.2788 5.51338 16.2163 5.77026 16.1869 5.87472C16.1576 5.97947 16.1135 6.17213 16.0891 6.30285C16.0426 6.55145 15.9563 6.94533 15.8076 7.58723C15.7591 7.79673 15.6976 8.08043 15.6713 8.21829C15.6451 8.35586 15.5885 8.59048 15.546 8.73946C15.5035 8.88874 15.4688 9.05828 15.4688 9.1165V9.22211L15.7682 9.1362C16.3441 8.97094 16.6507 8.89559 16.7447 8.89559C16.7972 8.89559 16.9591 8.86476 17.1047 8.82709C17.2507 8.78941 17.5572 8.72691 17.7866 8.68809C18.0157 8.64927 18.3438 8.59362 18.5157 8.56479C18.9394 8.49343 20.2982 8.4061 20.5079 8.43664C20.661 8.4589 20.6772 8.45005 20.6772 8.34245C20.6772 8.2768 20.7032 8.1789 20.7347 8.12496C20.8079 7.99995 20.8835 8.08928 20.8847 8.3022L20.8854 8.44663L21.2632 8.45747C21.7879 8.4726 22.5457 8.62815 23.1272 8.83993C23.6938 9.04629 23.8794 9.11879 24.2447 9.27577C24.4741 9.37424 24.6966 9.46842 24.7397 9.48498C24.7826 9.50182 24.9585 9.58659 25.1304 9.67335C25.3022 9.76012 25.5835 9.90112 25.7554 9.98646C26.2182 10.2168 26.6804 10.4708 26.7841 10.5519C26.9397 10.6735 26.9391 10.6646 26.6873 9.5138C26.6444 9.31772 26.5913 9.03944 26.5691 8.89559C26.5472 8.75145 26.5035 8.54823 26.4722 8.44349C26.4407 8.33902 26.3754 8.03933 26.3266 7.77761C26.2779 7.51588 26.2057 7.17709 26.166 7.02467C26.1263 6.87197 26.0938 6.70386 26.0938 6.65077C26.0938 6.59769 26.0597 6.41217 26.0179 6.23835C25.9763 6.06453 25.9154 5.79395 25.8826 5.63697C25.7657 5.07527 25.6679 4.58806 25.6441 4.44763C25.631 4.36914 25.5876 4.16592 25.5479 3.99582C25.4504 3.57711 25.3613 3.15983 25.3147 2.90181C25.2479 2.52962 25.0213 1.46615 24.9072 0.986938L24.8194 0.618463H21.0816H17.3438V0.768878ZM33.4938 0.725495C33.451 0.826533 33.3982 1.07542 33.2801 1.73616C33.2519 1.89314 33.2076 2.07524 33.181 2.1406C33.1548 2.20596 33.1182 2.37664 33.0998 2.51992C33.0813 2.6632 33.0476 2.80248 33.0247 2.82931C33.0019 2.85586 32.9682 3.01483 32.9501 3.18237C32.9316 3.34963 32.8963 3.51032 32.8713 3.53915C32.8466 3.56797 32.8094 3.73038 32.7894 3.9002C32.7691 4.07002 32.7338 4.23043 32.7113 4.25697C32.6888 4.28352 32.6572 4.44135 32.6416 4.60775C32.626 4.77444 32.5876 4.93398 32.5566 4.96224C32.5254 4.9905 32.5001 5.09696 32.5001 5.19857C32.5001 5.30046 32.4663 5.51538 32.4251 5.67664C32.3838 5.8379 32.3151 6.13046 32.2719 6.32683C32.2291 6.52291 32.1676 6.79063 32.1351 6.92135C32.1029 7.05207 32.0557 7.29268 32.0301 7.45622C32.0044 7.61948 31.9591 7.79473 31.9291 7.84554C31.8994 7.89634 31.8741 8.01964 31.8729 8.11925C31.8716 8.21915 31.8366 8.3864 31.7954 8.49115C31.7541 8.5959 31.7191 8.7563 31.7173 8.84792C31.7157 8.93954 31.6804 9.09995 31.6391 9.2047C31.5979 9.30944 31.5641 9.44844 31.5638 9.5138C31.5635 9.57945 31.5288 9.77182 31.4869 9.94193C31.4151 10.2316 31.3691 10.4351 31.1679 11.357C31.1238 11.56 31.0538 11.8579 31.0126 12.0192C30.9713 12.1805 30.9376 12.37 30.9376 12.4405C30.9376 12.5107 30.9007 12.6982 30.8557 12.8569C30.7885 13.0938 30.7863 13.1517 30.8426 13.1806C30.8807 13.2 30.9701 13.2633 31.0416 13.3213C31.1516 13.41 32.1954 14.1459 32.7941 14.5563C32.8894 14.6216 33.3719 14.9553 33.8666 15.2978C34.7344 15.8989 35.1904 16.198 35.7682 16.5459C35.9188 16.6364 36.0438 16.7343 36.0463 16.7631C36.0519 16.8314 36.2788 16.055 36.4066 15.5316C36.4385 15.4006 36.4851 15.2507 36.5104 15.1985C36.5535 15.1097 36.5819 15.0047 36.721 14.4256C36.7507 14.3011 36.7976 14.1624 36.8251 14.117C36.8526 14.0714 36.8751 13.9857 36.8747 13.9267C36.8747 13.8673 36.9076 13.7226 36.9482 13.605C37.0773 13.2285 37.2679 12.5683 37.3463 12.2253C37.3732 12.1077 37.4172 11.9684 37.4441 11.9162C37.471 11.8639 37.5076 11.7198 37.5257 11.5962C37.5435 11.4726 37.5804 11.3587 37.6073 11.3436C37.6341 11.3285 37.6563 11.2477 37.6566 11.1641C37.6569 11.0807 37.6919 10.9512 37.7347 10.8761C37.7776 10.801 37.8126 10.6834 37.8122 10.6144C37.8122 10.5456 37.8447 10.3926 37.8848 10.275C37.9248 10.1571 37.9954 9.95106 38.0413 9.81663C38.0872 9.68249 38.1251 9.53264 38.1247 9.48384C38.1247 9.43503 38.1576 9.2986 38.1982 9.18101C38.3351 8.78171 38.5313 8.0987 38.5876 7.82527C38.6091 7.72052 38.6544 7.58809 38.6885 7.531C38.7223 7.47392 38.7501 7.36974 38.7501 7.29953C38.7501 7.22932 38.7879 7.06206 38.8338 6.92763C38.8797 6.79348 38.9504 6.58713 38.9904 6.46953C39.0304 6.35166 39.0629 6.21266 39.0626 6.16014C39.0622 6.10791 39.0947 5.96863 39.1348 5.85103C39.1748 5.73316 39.2454 5.52708 39.2913 5.39265C39.3372 5.2585 39.3751 5.10352 39.3751 5.04872C39.3751 4.99392 39.4076 4.86834 39.4476 4.76987C39.4873 4.67111 39.5701 4.39768 39.6316 4.16221C39.6929 3.92674 39.7798 3.61649 39.8244 3.47264C39.8691 3.32851 39.9357 3.09332 39.9729 2.94919C40.0551 2.62923 40.2935 1.77469 40.391 1.45074C40.4304 1.32002 40.4866 1.12736 40.516 1.02261C40.5454 0.918152 40.5835 0.784291 40.6007 0.725495L40.6319 0.618463H37.0857H33.5394L33.4938 0.725495ZM73.5938 3.28198V5.94551L77.7476 5.95778L81.901 5.97005L81.9144 12.7256L81.9276 19.4815L82.2007 19.6362C82.351 19.7212 82.6851 19.9287 82.9429 20.0977C83.2007 20.2664 83.5398 20.4853 83.6963 20.5843C83.8529 20.6831 84.4038 21.0521 84.9204 21.4043C85.7348 21.9595 87.1726 22.9076 87.4673 23.0843C87.5207 23.1163 87.6494 23.1973 87.7535 23.2638C87.8576 23.3306 88.0951 23.4685 88.2813 23.5701C88.4676 23.672 88.6316 23.7676 88.646 23.783C88.706 23.8472 88.9585 23.9742 88.9588 23.9405C88.9588 23.9203 88.9588 19.8996 88.9585 15.0058C88.9579 7.94201 88.9713 6.09107 89.0232 6.02685C89.0835 5.95236 89.4063 5.94522 93.2813 5.93438L97.4741 5.92239L97.4876 3.27028L97.501 0.618463H85.5473H73.5938V3.28198ZM105.195 0.82111C105.145 0.932708 105.104 1.06628 105.102 1.11823C105.101 1.17046 105.067 1.26665 105.026 1.33201C104.985 1.39737 104.951 1.49669 104.95 1.55235C104.949 1.60829 104.913 1.71532 104.87 1.79039C104.827 1.86517 104.792 1.96307 104.792 2.00759C104.792 2.05212 104.77 2.13774 104.744 2.19768C104.717 2.2579 104.643 2.46769 104.579 2.66377C104.515 2.86014 104.41 3.17039 104.345 3.35362C104.281 3.53686 104.178 3.84711 104.115 4.04348C104.053 4.23956 103.97 4.48588 103.933 4.59034C103.895 4.69509 103.824 4.90915 103.776 5.06613C103.727 5.22311 103.634 5.5014 103.569 5.68463C103.343 6.31712 103.229 6.67618 103.229 6.76009C103.229 6.80633 103.208 6.85656 103.182 6.87112C103.155 6.88596 103.118 6.98357 103.099 7.08775C103.08 7.19221 103.045 7.28811 103.022 7.30096C102.999 7.31409 102.965 7.42055 102.946 7.53814C102.927 7.65545 102.889 7.76419 102.862 7.77932C102.835 7.79445 102.813 7.86466 102.812 7.93516C102.812 8.00537 102.777 8.12439 102.734 8.19917C102.691 8.27423 102.656 8.37042 102.656 8.41323C102.656 8.45604 102.621 8.55252 102.578 8.6273C102.535 8.70236 102.5 8.80939 102.5 8.86533C102.499 8.92099 102.464 9.02802 102.422 9.10309C102.379 9.17815 102.344 9.28518 102.344 9.34084C102.343 9.39678 102.308 9.50381 102.265 9.57888C102.223 9.65366 102.188 9.75013 102.187 9.79294C102.187 9.83576 102.152 9.93194 102.109 10.007C102.066 10.0818 102.031 10.1888 102.031 10.2448C102.031 10.3007 101.996 10.4077 101.953 10.4825C101.91 10.5576 101.875 10.6715 101.875 10.7354C101.875 10.7996 101.85 10.8952 101.819 10.9477C101.765 11.0402 101.668 11.3288 101.558 11.7258C101.528 11.8305 101.483 11.9364 101.455 11.9613C101.429 11.9861 101.405 12.0612 101.404 12.1279C101.404 12.1945 101.369 12.3026 101.328 12.368C101.287 12.4336 101.253 12.5418 101.252 12.6086C101.251 12.6757 101.216 12.7721 101.174 12.8227C101.132 12.8735 101.096 12.9734 101.095 13.0444C101.094 13.1155 101.061 13.2439 101.022 13.3298C100.952 13.4811 100.894 13.6478 100.703 14.2472C100.652 14.4042 100.582 14.6074 100.547 14.699C100.512 14.7906 100.443 14.9938 100.394 15.1508C100.346 15.3078 100.282 15.5004 100.252 15.5789C100.222 15.6574 100.187 15.7753 100.173 15.8407C100.159 15.906 100.129 16.0025 100.105 16.0547C100.081 16.107 100.009 16.3105 99.9454 16.5065C99.8813 16.7029 99.7998 16.9489 99.7638 17.0537C99.7279 17.1584 99.6573 17.3725 99.6069 17.5295C99.5563 17.6865 99.4835 17.8823 99.4451 17.9647C99.4066 18.0472 99.3751 18.1597 99.3751 18.2151C99.3751 18.2704 99.3541 18.3526 99.3288 18.3983C99.3032 18.4437 99.2307 18.6415 99.1679 18.8376C99.1048 19.0339 99.0335 19.2371 99.0088 19.2894C98.9844 19.3419 98.9485 19.4589 98.9288 19.5497C98.9091 19.6402 98.8754 19.7472 98.8541 19.7874C98.8326 19.8274 98.7745 19.9886 98.7251 20.1456C98.6754 20.3026 98.6044 20.5167 98.5673 20.6214C98.5301 20.7262 98.4591 20.9402 98.4101 21.0972C98.2857 21.4954 98.1219 21.9829 98.0751 22.0962C98.0532 22.1484 97.9941 22.3197 97.9438 22.4766C97.8935 22.6336 97.8329 22.8209 97.8091 22.8928C97.7688 23.0152 97.8226 23.0769 97.8866 22.9821C97.9023 22.9593 98.0851 22.8485 98.2935 22.7364C98.5016 22.6239 98.6835 22.5186 98.6979 22.5018C98.7123 22.4852 98.8179 22.4204 98.9323 22.3582C99.047 22.2957 100.489 21.428 102.135 20.4299C106.251 17.9359 107.301 17.3074 107.604 17.1579C107.937 16.9935 107.905 16.9823 107.097 16.9823C106.212 16.9823 106.165 16.9618 106.317 16.6387C106.396 16.4726 106.485 16.1863 106.565 15.8458C106.592 15.7308 106.635 15.6132 106.66 15.5841C106.685 15.5552 106.722 15.4302 106.741 15.3067C106.761 15.1831 106.799 15.0692 106.826 15.0541C106.853 15.0389 106.875 14.9796 106.875 14.9222C106.875 14.8648 106.907 14.7215 106.947 14.604C106.987 14.4861 107.058 14.28 107.104 14.1456C107.15 14.0111 107.188 13.8613 107.188 13.8125C107.188 13.7637 107.223 13.6626 107.266 13.5876C107.309 13.5125 107.344 13.4009 107.344 13.3395C107.344 13.2779 107.376 13.1572 107.416 13.0713C107.492 12.9077 107.576 12.632 107.659 12.2749C107.687 12.1582 107.733 12.0415 107.761 12.0158C107.789 11.9898 107.813 11.9065 107.813 11.8305C107.813 11.7546 107.846 11.6253 107.886 11.5428C107.927 11.4604 107.971 11.3288 107.984 11.2503C107.998 11.1718 108.034 11.0434 108.064 10.9649C108.115 10.8319 108.169 10.6475 108.367 9.91824C108.409 9.76126 108.478 9.52379 108.519 9.39079C108.56 9.25778 108.594 9.10794 108.594 9.05771C108.594 9.00776 108.627 8.87047 108.667 8.75288C108.708 8.635 108.78 8.36757 108.827 8.15807C108.874 7.94886 108.947 7.66858 108.988 7.53557C109.029 7.40257 109.063 7.24587 109.063 7.18765C109.063 7.12942 109.095 6.98157 109.135 6.85884C109.175 6.7364 109.248 6.46468 109.297 6.25547C109.443 5.63069 109.677 5.27078 109.728 5.5933C109.736 5.64353 109.775 5.79167 109.816 5.92239C109.885 6.14359 109.934 6.3194 110.126 7.02838C110.167 7.1788 110.229 7.39828 110.265 7.51588C110.3 7.63376 110.347 7.81557 110.369 7.92031C110.42 8.1575 110.511 8.47945 110.762 9.31144C110.807 9.46214 110.879 9.70304 110.922 9.84689C110.964 9.99074 111.023 10.1728 111.052 10.2513C111.082 10.3298 111.117 10.4583 111.13 10.5367C111.144 10.6152 111.188 10.7468 111.229 10.8293C111.269 10.9118 111.302 11.0337 111.302 11.0999C111.302 11.1664 111.324 11.2332 111.351 11.2486C111.378 11.2637 111.416 11.3722 111.435 11.4898C111.455 11.6071 111.489 11.7138 111.512 11.7267C111.535 11.7395 111.57 11.8411 111.59 11.9521C111.61 12.0632 111.644 12.1753 111.667 12.2016C111.689 12.2278 111.732 12.3454 111.762 12.4633C111.814 12.6597 111.857 12.7993 112.062 13.4146C112.101 13.5325 112.16 13.7249 112.192 13.8427C112.225 13.9606 112.271 14.0916 112.294 14.1342C112.318 14.1767 112.353 14.2897 112.372 14.385C112.399 14.5143 112.424 14.5466 112.472 14.5106C112.615 14.4016 114.831 13.3732 115.547 13.083C116.761 12.5906 117.915 12.1845 118.214 12.1434C118.398 12.118 118.408 11.9832 118.248 11.6927C118.209 11.6219 118.177 11.5303 118.177 11.4886C118.177 11.4058 117.894 10.5827 117.78 10.333C117.741 10.247 117.709 10.1352 117.709 10.0846C117.709 10.0341 117.676 9.92252 117.638 9.83661C117.525 9.58944 117.396 9.20013 117.394 9.10309C117.393 9.05428 117.358 8.97294 117.316 8.92213C117.274 8.87133 117.239 8.7643 117.238 8.68409C117.237 8.60418 117.202 8.49714 117.16 8.44634C117.118 8.39554 117.084 8.29507 117.084 8.22314C117.084 8.15122 117.062 8.08015 117.035 8.06531C117.009 8.05047 116.972 7.96884 116.952 7.88407C116.908 7.68941 116.774 7.3001 116.684 7.1043C116.646 7.0221 116.615 6.91193 116.615 6.86027C116.615 6.80833 116.58 6.70443 116.537 6.62937C116.494 6.55459 116.459 6.43443 116.459 6.3625C116.459 6.29058 116.436 6.2315 116.409 6.2315C116.381 6.2315 116.345 6.15129 116.328 6.05311C116.31 5.95521 116.276 5.8399 116.251 5.79737C116.226 5.75485 116.189 5.63925 116.168 5.54021C116.148 5.44146 116.099 5.30503 116.061 5.2371C116.022 5.16917 115.99 5.0844 115.99 5.04872C115.99 4.97394 115.848 4.56608 115.746 4.34545C115.708 4.26297 115.677 4.14109 115.677 4.07459C115.677 4.00809 115.655 3.94159 115.629 3.92674C115.603 3.9119 115.565 3.83027 115.546 3.7455C115.511 3.59166 115.384 3.20064 115.309 3.02054C115.288 2.96831 115.232 2.80762 115.185 2.66377C114.96 1.96849 114.879 1.72845 114.841 1.64112C114.818 1.58888 114.749 1.38538 114.688 1.1893C114.626 0.992931 114.55 0.784291 114.519 0.725495L114.462 0.618463H109.874L105.287 0.618748L105.195 0.82111Z" fill="#FAFAFA"/>
</g>
<defs>
<clipPath id="clip0_17_227">
<rect width="125" height="29.4944" fill="white"/>
</clipPath>
</defs>
</svg>
